<?xml version="1.0" standalone="no"?>
<!DOCTYPE svg PUBLIC "-//W3C//DTD SVG 20010904//EN"
 "http://www.w3.org/TR/2001/REC-SVG-20010904/DTD/svg10.dtd">
<svg version="1.0" xmlns="http://www.w3.org/2000/svg"
 width="1200.000000pt" height="1200.000000pt" viewBox="0 0 1200.000000 1200.000000"
 preserveAspectRatio="xMidYMid meet">
<metadata>
Created by potrace 1.11, written by Peter Selinger 2001-2013
</metadata>
<g transform="translate(0.000000,1200.000000) scale(0.100000,-0.100000)"
fill="#000000" stroke="none">
<path d="M5757 10470 c-984 -95 -1870 -677 -2489 -1635 -428 -661 -711 -1521
-777 -2360 -24 -304 -24 -332 -4 -339 16 -7 16 -8 2 -16 -11 -7 -17 -24 -17
-55 -1 -45 0 -46 26 -43 27 3 27 4 29 83 15 520 135 994 371 1467 l83 168 -28
25 c-31 27 -13 36 23 11 20 -14 24 -10 95 102 117 186 319 442 443 561 46 44
59 33 14 -12 -149 -152 -330 -387 -472 -611 l-38 -59 29 -23 c34 -27 25 -42
-12 -18 -25 16 -26 16 -40 -2 -30 -41 -152 -295 -198 -414 -55 -141 -69 -180
-106 -305 -84 -281 -128 -545 -138 -827 l-5 -148 36 0 c20 0 36 -4 36 -10 0
-5 -16 -10 -35 -10 l-35 0 0 -79 c0 -380 105 -878 262 -1238 10 -23 18 -44 18
-47 0 -10 111 -235 143 -291 l30 -54 30 15 c39 21 48 8 13 -20 l-29 -22 28
-45 c68 -107 123 -189 175 -259 30 -41 64 -88 74 -105 42 -67 376 -404 509
-513 48 -40 87 -78 87 -84 0 -42 -441 371 -557 521 -21 27 -65 85 -99 128 -80
103 -224 318 -224 335 0 11 -38 10 -45 -2 -8 -13 -35 -13 -35 0 0 6 11 16 25
22 14 6 25 15 25 19 0 4 -23 50 -51 101 -49 92 -132 270 -164 358 -9 25 -21
54 -26 65 -24 53 -92 283 -123 418 -48 208 -76 411 -83 610 l-6 167 -30 0 -30
0 7 -187 c49 -1320 532 -2520 1341 -3328 519 -520 1117 -833 1788 -937 205
-31 589 -31 794 0 671 104 1269 417 1788 937 779 778 1262 1933 1334 3190 5
94 10 205 11 248 0 71 -1 77 -20 77 -18 0 -20 -6 -20 -85 0 -187 -43 -503
-101 -742 -58 -240 -199 -623 -229 -623 -15 0 -12 11 16 71 33 67 113 285 147
399 75 252 118 493 137 780 14 214 16 200 -25 200 -44 0 -46 18 -2 22 l32 3
-3 125 c-13 504 -171 1075 -418 1518 l-35 62 -30 -16 c-17 -8 -34 -13 -37 -9
-7 7 20 31 42 38 15 5 0 36 -80 159 -132 202 -290 394 -475 575 -104 102 -275
250 -349 303 -19 13 -27 26 -23 36 3 9 8 11 12 6 3 -6 41 -37 85 -70 193 -149
402 -356 576 -573 74 -92 220 -301 276 -395 10 -16 14 -17 39 -6 15 7 30 10
34 7 6 -7 -22 -31 -43 -38 -8 -3 -8 -8 0 -18 22 -27 153 -296 197 -405 154
-380 231 -738 253 -1166 6 -129 8 -138 27 -138 20 0 20 4 13 178 -30 769 -205
1496 -515 2137 -570 1180 -1522 1952 -2609 2115 -155 24 -500 34 -645 20z
m-52 -461 c33 -6 114 -10 180 -10 202 3 390 -32 545 -101 215 -95 300 -142
312 -170 9 -20 18 -26 31 -22 21 7 110 -41 181 -97 27 -22 60 -39 73 -39 17 0
23 -4 20 -14 -4 -10 0 -12 14 -9 13 4 19 0 19 -10 0 -9 8 -15 18 -14 9 0 29
-7 45 -17 21 -14 25 -22 16 -32 -6 -7 -8 -18 -4 -25 6 -8 10 -7 16 2 18 27 39
-19 34 -75 -2 -33 1 -59 11 -73 11 -18 12 -23 2 -24 -7 0 -3 -5 10 -11 14 -7
21 -17 17 -26 -3 -8 3 -22 13 -31 10 -9 21 -24 25 -34 4 -11 16 -21 26 -24 23
-6 17 -31 -7 -29 -9 0 -17 -6 -17 -14 0 -9 7 -14 18 -12 11 2 17 -4 17 -17 0
-11 7 -24 16 -29 8 -5 17 -19 19 -33 1 -13 6 -33 10 -44 4 -11 -4 -5 -19 14
-14 19 -26 39 -26 43 0 5 -11 6 -25 2 -20 -5 -24 -3 -19 10 3 8 9 14 12 13 4
-1 8 3 9 8 2 6 -13 10 -33 11 -34 0 -84 38 -84 64 0 5 -7 10 -15 10 -8 0 -15
-7 -15 -15 0 -8 -4 -15 -10 -15 -5 0 -11 -8 -11 -17 -1 -16 -2 -16 -6 -1 -4
17 -32 33 -41 23 -3 -3 0 -5 6 -5 7 0 12 -6 12 -14 0 -8 -8 -13 -17 -12 -12 0
-17 -5 -15 -15 1 -10 -6 -19 -18 -22 -12 -3 -18 -1 -14 5 9 14 -18 29 -32 17
-8 -6 -14 -5 -17 5 -8 20 -77 19 -77 -1 0 -8 -5 -11 -11 -8 -6 4 -8 13 -5 21
3 8 1 14 -4 14 -5 0 -7 6 -4 14 4 10 -8 17 -43 24 -26 6 -49 9 -51 7 -9 -9 11
-25 33 -25 20 0 23 -5 22 -37 -1 -21 3 -46 7 -56 6 -13 5 -16 -8 -11 -9 4 -15
9 -12 11 3 3 -6 15 -19 27 -18 16 -22 29 -18 47 3 13 3 21 -1 17 -4 -3 -17 3
-28 14 -17 17 -20 30 -16 75 4 45 2 53 -11 51 -11 -3 -15 -13 -13 -32 2 -19
-4 -35 -17 -47 -24 -23 -51 -25 -51 -3 0 8 5 12 11 9 12 -8 55 33 45 42 -3 4
-14 -1 -24 -10 -23 -21 -46 -22 -62 -2 -9 11 -8 19 4 37 17 24 21 39 9 37 -5
-1 -10 0 -13 1 -3 1 -18 3 -35 4 -21 2 -34 -4 -42 -18 -11 -19 -12 -19 -13 -2
0 12 -5 16 -15 12 -9 -3 -15 0 -15 10 0 10 -4 12 -12 7 -7 -4 -16 -8 -20 -8
-12 0 -21 -15 -9 -15 9 0 9 -3 -1 -13 -14 -15 -21 -11 -65 36 -27 28 -43 34
-43 17 0 -5 7 -10 16 -10 9 0 14 -6 11 -12 -2 -7 -10 -12 -16 -11 -6 2 -11 -2
-11 -7 0 -5 7 -10 15 -10 17 0 48 -67 40 -88 -10 -27 7 -34 30 -12 13 12 31
20 41 18 19 -3 17 -23 -3 -23 -6 0 -20 -9 -31 -19 -30 -26 -82 -14 -82 20 0
15 6 24 15 24 26 0 -2 40 -36 52 -20 7 -28 15 -25 25 4 11 -1 14 -21 11 -17
-2 -29 -10 -31 -21 -3 -12 2 -16 19 -15 33 4 33 -15 -1 -31 -25 -11 -34 -11
-48 0 -31 24 -61 64 -62 81 0 9 -4 20 -10 23 -5 3 -10 15 -10 25 0 10 -5 20
-12 22 -6 2 -13 26 -14 52 -2 26 -9 55 -15 63 -10 11 -10 16 0 23 10 5 10 9 1
15 -6 4 -12 5 -13 4 -19 -36 -28 -44 -51 -44 -19 1 -26 -4 -23 -15 1 -9 12
-14 24 -13 28 3 41 -14 43 -57 4 -68 3 -69 -37 -67 -30 2 -37 7 -38 25 -1 12
3 22 9 21 27 -3 36 2 36 22 0 17 -4 20 -23 15 -17 -4 -25 0 -32 16 -6 12 -22
25 -37 29 -27 7 -27 7 -21 -37 7 -52 -9 -59 -32 -15 -8 17 -20 33 -26 36 -15
10 20 -56 40 -75 9 -8 22 -25 29 -38 10 -19 10 -23 -3 -28 -8 -4 -15 -13 -15
-21 0 -10 -6 -12 -21 -8 -18 6 -20 5 -10 -14 13 -24 4 -27 -24 -7 -11 7 -28
13 -37 13 -14 0 -16 -6 -11 -26 9 -41 9 -43 -4 -48 -7 -3 -13 0 -13 6 0 6 -11
21 -25 33 -14 12 -25 28 -25 35 0 16 -12 17 -29 1 -10 -11 -16 -8 -32 11 -10
13 -19 18 -19 12 0 -7 11 -22 25 -35 14 -13 25 -27 25 -31 0 -4 8 -14 18 -21
16 -13 16 -13 -1 -14 -9 0 -25 9 -34 19 -24 29 -33 16 -26 -37 5 -41 4 -45 -8
-35 -8 7 -21 36 -28 65 -21 88 -32 118 -41 113 -4 -3 -6 -24 -3 -48 5 -39 4
-41 -10 -22 -15 20 -15 20 -37 0 l-23 -20 7 22 c4 12 3 31 -3 41 -6 11 -6 24
0 33 7 11 9 11 9 -3 0 -10 5 -18 10 -18 7 0 7 7 0 21 -7 11 -17 18 -25 16 -7
-3 -22 1 -33 9 -13 9 -23 11 -27 4 -3 -6 1 -13 9 -16 20 -8 20 -28 1 -44 -11
-9 -12 -17 -6 -23 7 -7 7 -17 -1 -30 -7 -14 -7 -22 3 -28 7 -4 16 -6 19 -4 14
8 6 -61 -9 -72 -15 -11 -14 -13 2 -25 18 -13 17 -15 -3 -41 -12 -15 -24 -44
-26 -64 -9 -62 -14 -71 -25 -50 -6 9 -7 22 -4 27 3 6 8 87 10 181 4 166 4 171
-15 166 -11 -3 -20 0 -20 6 0 7 -6 5 -14 -3 -8 -9 -16 -45 -19 -82 -3 -37 -12
-82 -21 -99 -9 -17 -13 -36 -10 -41 4 -6 1 -13 -5 -17 -6 -4 -14 -25 -17 -47
-3 -21 -8 -46 -11 -54 -3 -8 -7 -21 -9 -28 -5 -27 -14 -25 -14 4 0 16 -3 46
-6 67 -6 32 -10 37 -28 31 -27 -8 -34 -16 -19 -21 8 -3 6 -16 -8 -46 -10 -23
-19 -51 -19 -62 0 -11 -7 -30 -15 -41 -8 -12 -12 -24 -9 -27 3 -3 0 -15 -6
-27 -6 -12 -13 -31 -15 -42 -3 -12 -10 -25 -17 -29 -17 -11 16 -23 38 -15 10
4 22 -1 29 -10 9 -13 29 -17 86 -17 62 -1 76 -4 89 -21 24 -33 28 -60 12 -78
-14 -16 -13 -18 6 -18 12 0 26 8 31 18 7 11 13 13 18 6 5 -6 17 -14 28 -19 19
-8 19 -8 1 -12 -14 -4 -17 -11 -12 -35 5 -26 3 -29 -12 -23 -9 4 -26 10 -37
13 -17 5 -18 3 -8 -9 10 -12 7 -20 -13 -42 -14 -16 -22 -33 -18 -40 4 -6 -7 1
-24 17 -38 35 -47 30 -43 -26 1 -21 27 -24 34 -5 2 6 8 9 12 4 5 -4 0 -14 -11
-22 -16 -13 -17 -16 -4 -25 11 -7 18 -6 25 4 15 19 45 16 45 -5 0 -12 -5 -16
-14 -13 -11 4 -13 0 -9 -16 4 -15 -4 -29 -31 -53 -41 -37 -45 -48 -16 -40 14
4 20 0 20 -12 0 -12 -6 -16 -20 -12 -10 3 -19 2 -18 -2 3 -24 -4 -51 -13 -51
-6 0 -9 8 -6 19 2 10 0 26 -5 36 -7 12 -7 20 2 25 18 11 22 80 5 80 -8 0 -17
-4 -20 -10 -3 -5 -1 -10 4 -10 6 0 11 -9 11 -20 0 -11 -7 -20 -15 -20 -9 0
-15 -9 -15 -25 0 -14 -5 -25 -11 -25 -5 0 -8 4 -5 9 3 5 -1 14 -8 20 -18 15
-23 5 -21 -41 2 -33 -1 -37 -19 -33 -59 12 -70 10 -76 -15 -6 -24 -42 -41 -68
-32 -9 3 -10 8 -1 18 8 10 8 14 1 14 -6 0 -15 -6 -19 -13 -12 -19 -60 -37
-101 -37 -20 0 -68 -8 -106 -17 -58 -14 -76 -23 -105 -56 -20 -22 -49 -52 -64
-68 l-29 -29 11 -287 c8 -207 8 -299 0 -328 -16 -60 -30 -223 -23 -280 11 -93
117 -478 139 -505 7 -8 18 -48 25 -88 8 -50 18 -76 31 -86 11 -7 33 -40 49
-72 42 -81 88 -144 114 -154 11 -4 32 -20 45 -34 14 -14 35 -26 47 -26 30 0
38 -14 22 -40 -11 -17 -10 -22 9 -35 14 -10 19 -22 16 -36 -5 -16 -2 -20 13
-17 11 2 18 -2 16 -10 -1 -7 10 -23 25 -37 l28 -23 -27 -7 c-16 -4 -28 -11
-28 -16 0 -5 -18 0 -40 11 -39 20 -40 20 -40 1 0 -22 -30 -32 -55 -19 -13 8
-16 7 -13 -3 2 -7 13 -17 23 -23 31 -18 60 -46 47 -46 -7 0 -12 -5 -12 -10 0
-6 6 -10 13 -8 15 4 69 -37 60 -46 -12 -12 13 -6 26 7 11 10 12 8 7 -10 -5
-17 0 -28 23 -49 37 -32 39 -50 8 -56 -18 -3 -22 1 -24 21 -1 27 -45 68 -52
49 -2 -7 1 -14 8 -16 6 -2 11 -10 11 -17 0 -7 7 -15 15 -19 8 -3 12 -12 9 -21
-4 -9 -1 -15 9 -15 8 0 20 -7 27 -16 8 -8 9 -14 4 -13 -26 5 -36 -1 -25 -15
10 -11 9 -16 -4 -23 -14 -8 -14 -13 -3 -39 7 -16 20 -35 28 -42 13 -11 11 -13
-12 -7 -31 6 -38 -9 -10 -20 15 -6 15 -8 1 -18 -9 -7 -16 -21 -16 -32 0 -25
26 -53 35 -38 4 6 8 -11 9 -38 0 -27 -2 -49 -5 -49 -4 0 -6 -21 -6 -47 1 -27
-2 -53 -6 -58 -9 -11 9 -105 20 -105 4 0 8 -17 9 -37 2 -70 7 -86 29 -94 25
-9 26 -19 12 -69 -9 -30 -7 -37 8 -50 10 -9 17 -21 14 -28 -2 -7 6 -12 22 -12
26 0 26 0 9 -26 -17 -27 -17 -27 4 -15 31 16 51 14 62 -7 9 -16 5 -18 -26 -18
-41 1 -49 -10 -27 -39 11 -15 17 -17 23 -7 8 13 41 6 41 -8 0 -5 9 -12 20 -15
24 -8 26 -31 3 -53 -16 -16 -15 -17 3 -20 33 -6 59 -52 29 -52 -8 0 -15 -7
-15 -15 0 -8 6 -15 13 -15 14 0 37 -45 37 -72 0 -10 6 -18 14 -18 17 0 29 -27
15 -35 -5 -4 -7 -11 -3 -16 4 -6 11 -6 20 2 20 16 18 -5 -2 -25 -8 -9 -11 -16
-5 -16 6 0 8 -6 5 -14 -4 -10 5 -16 28 -21 33 -7 68 -31 68 -47 0 -4 -8 -8
-17 -8 -16 -1 -16 -2 1 -15 11 -8 29 -13 40 -9 17 4 18 3 6 -5 -13 -9 -13 -13
3 -28 18 -17 19 -17 34 4 20 30 31 29 43 -2 5 -14 16 -25 25 -25 8 0 15 -8 15
-18 0 -9 9 -23 20 -30 18 -11 20 -10 20 9 0 20 1 20 23 6 12 -8 21 -20 20 -25
-1 -5 9 -8 23 -6 13 1 31 -4 39 -12 8 -9 16 -10 20 -4 3 5 15 10 26 10 10 0
19 5 19 10 0 6 9 10 21 10 11 0 18 4 15 9 -3 4 6 18 19 31 13 13 22 27 18 33
-4 6 -1 7 6 3 8 -5 14 0 18 13 4 16 12 20 37 18 l31 -2 -2 53 c-1 44 2 52 17
52 11 0 22 5 25 10 5 8 11 8 20 0 7 -6 20 -8 29 -4 9 3 23 1 30 -5 10 -8 16
-9 21 -1 3 6 11 8 16 4 20 -12 -4 -24 -37 -18 -35 7 -38 4 -28 -34 4 -14 12
-21 20 -18 7 3 16 1 20 -5 4 -6 15 -4 30 5 13 9 31 16 40 16 15 0 15 -2 1 -23
-10 -16 -11 -24 -4 -24 7 0 29 -3 50 -7 34 -6 39 -5 44 13 6 22 37 29 48 10 4
-6 14 -7 24 -4 38 16 61 16 55 0 -4 -8 -1 -15 5 -15 6 0 11 7 11 15 0 17 12
19 26 5 8 -8 15 -6 24 5 7 8 19 15 27 15 7 0 16 7 19 15 4 8 14 15 24 15 11 0
21 4 24 8 3 5 19 7 36 4 18 -2 40 2 55 12 14 9 30 14 35 11 5 -3 18 -1 29 5
14 7 22 7 26 0 5 -8 11 -7 21 1 7 6 11 15 8 20 -3 5 4 9 15 9 12 0 21 -6 21
-12 0 -9 4 -8 10 2 5 8 10 12 11 8 1 -5 3 -12 4 -18 1 -5 3 -13 4 -18 1 -8 72
-32 96 -32 8 0 15 6 15 14 0 7 7 19 15 26 10 9 15 9 15 1 0 -18 16 -13 49 15
28 23 45 22 21 -2 -12 -12 9 -64 27 -64 7 0 10 -7 7 -15 -4 -8 -1 -15 5 -15
14 0 15 37 1 45 -18 11 -10 23 15 21 15 0 28 -9 31 -19 3 -10 12 -16 19 -13 8
3 19 -2 26 -10 17 -21 41 2 36 35 -2 14 -2 20 0 13 6 -16 25 -16 43 0 12 11
12 10 1 -4 -7 -9 -11 -25 -9 -35 1 -10 -1 -24 -6 -31 -4 -7 -2 -19 5 -28 10
-12 10 -15 -1 -12 -8 2 -16 -5 -18 -14 -3 -14 1 -16 15 -11 24 9 34 24 27 44
-3 12 3 18 23 22 43 9 77 -32 68 -82 l-6 -39 48 5 c43 4 46 3 31 -10 -10 -8
-18 -18 -18 -24 0 -5 -5 -14 -12 -21 -9 -9 -16 -8 -31 6 -19 17 -19 16 -12
-18 4 -19 11 -36 16 -38 5 -2 9 -11 9 -19 0 -9 6 -13 15 -10 8 4 17 2 20 -3
14 -22 41 -7 60 33 17 36 24 42 48 39 19 -2 27 2 27 13 0 8 -7 15 -15 15 -18
0 -20 26 -2 37 15 10 16 35 2 45 -6 5 -5 8 2 8 7 0 22 -10 33 -22 l21 -22 -22
-17 c-13 -10 -19 -21 -14 -28 5 -9 10 -10 18 -2 25 25 35 -3 21 -56 -6 -20 -7
-21 -22 -6 -24 24 -29 -3 -7 -44 13 -24 23 -32 36 -28 9 3 21 0 25 -7 4 -6 2
-14 -4 -16 -7 -2 -10 -8 -6 -13 3 -5 -2 -9 -10 -9 -9 0 -16 -7 -16 -16 0 -11
-5 -14 -17 -10 -10 4 -15 4 -11 1 9 -10 -35 -50 -50 -47 -9 2 -12 -3 -8 -16 8
-25 -23 -25 -46 0 -10 12 -19 15 -23 8 -3 -5 -15 -10 -26 -10 -11 0 -19 -7
-19 -17 0 -15 2 -16 10 -3 11 17 13 10 4 -14 -3 -9 -11 -13 -17 -9 -6 3 -7 1
-3 -5 4 -7 14 -12 22 -12 8 0 12 -4 9 -10 -3 -5 -1 -10 5 -10 6 0 13 7 16 15
4 8 10 13 15 10 4 -3 6 -12 2 -20 -3 -10 2 -15 16 -15 12 0 21 -5 21 -11 0 -6
-8 -8 -19 -4 -11 3 -22 1 -26 -5 -3 -5 -16 -10 -29 -10 -28 0 -46 -18 -46 -46
0 -12 -5 -24 -12 -26 -22 -8 4 -71 32 -79 l25 -7 -27 -1 c-16 -1 -28 4 -28 9
0 6 -7 10 -15 10 -8 0 -15 6 -15 13 0 8 -4 7 -10 -3 -14 -22 -12 -33 5 -26 8
3 15 0 15 -6 0 -6 7 -19 15 -28 12 -13 12 -21 0 -55 -12 -36 -17 -40 -44 -39
-30 2 -41 -9 -21 -21 21 -13 9 -23 -15 -12 -14 7 -23 18 -20 25 7 18 -11 49
-35 62 -28 15 -38 -14 -15 -40 10 -11 15 -23 10 -28 -4 -4 -10 -1 -12 6 -3 6
-14 12 -26 11 l-22 0 23 -11 c12 -6 22 -15 22 -20 0 -4 6 -8 14 -8 23 0 46
-43 34 -64 -7 -13 -7 -20 0 -25 9 -6 16 -34 13 -56 -1 -5 -9 1 -17 15 -10 16
-13 18 -9 6 3 -11 0 -23 -7 -28 -10 -6 -10 -10 2 -17 8 -5 18 -7 22 -5 4 3 8
-2 8 -10 0 -9 -4 -16 -10 -16 -5 0 -16 -15 -23 -32 l-14 -33 -7 28 c-6 24 -9
27 -22 16 -19 -16 -30 -4 -14 16 10 12 9 16 -5 21 -9 4 -21 2 -28 -5 -16 -16
-25 -14 -30 7 -3 9 -5 3 -6 -14 -1 -22 -8 -34 -26 -44 -14 -7 -25 -20 -25 -27
0 -8 -12 -25 -26 -38 -28 -26 -27 -69 2 -58 8 3 14 -1 14 -11 0 -9 -4 -16 -10
-16 -17 0 -33 -40 -21 -54 8 -10 7 -17 -4 -26 -21 -17 -29 -6 -28 36 1 29 -1
33 -13 23 -8 -7 -13 -18 -10 -26 3 -8 -2 -13 -14 -13 -11 0 -20 -4 -20 -10 0
-5 7 -10 15 -10 8 0 15 -9 15 -21 0 -11 4 -18 9 -14 5 3 12 1 15 -4 10 -16
-35 -25 -45 -10 -6 10 -11 11 -16 3 -5 -6 -16 -13 -26 -17 -21 -8 -35 19 -18
36 8 8 11 6 11 -9 1 -18 1 -18 11 -1 6 9 16 15 22 11 7 -4 -1 6 -16 21 -23 21
-26 30 -16 41 6 8 9 18 5 22 -4 4 -13 -1 -20 -11 -16 -21 -26 -22 -26 -2 0 8
-7 15 -15 15 -8 0 -15 -6 -15 -14 0 -8 -3 -21 -6 -30 -4 -11 -1 -16 11 -16 9
0 15 -3 13 -7 -3 -5 -10 -23 -17 -40 -7 -18 -18 -33 -24 -33 -6 0 -24 -12 -39
-27 -15 -15 -28 -22 -28 -15 0 6 5 14 10 17 6 4 8 11 4 16 -3 5 8 14 25 20 17
6 31 15 31 20 0 4 -7 6 -15 3 -9 -4 -16 0 -17 7 0 8 -2 19 -3 24 -2 6 -3 16
-4 23 0 6 -12 12 -26 12 -24 0 -33 5 -70 38 -20 17 -38 15 -31 -4 4 -9 0 -27
-8 -39 -14 -21 -13 -22 2 -18 13 3 17 -2 17 -22 0 -24 -2 -26 -34 -20 -26 5
-32 3 -29 -7 3 -7 -5 -27 -19 -43 -16 -19 -27 -26 -30 -17 -7 17 -23 15 -23
-3 0 -8 8 -20 19 -27 15 -9 17 -17 10 -40 -4 -16 -5 -36 -2 -43 3 -9 -5 -19
-20 -26 -18 -8 -23 -17 -19 -32 4 -16 2 -19 -11 -14 -20 7 -31 -21 -16 -39 8
-9 8 -14 1 -14 -6 0 -13 -8 -15 -18 -3 -11 -5 -7 -6 10 0 15 -5 29 -9 32 -5 3
-8 19 -7 35 1 24 -1 28 -11 20 -17 -14 -35 -3 -27 16 8 23 -10 18 -25 -6 -11
-17 -11 -27 -1 -51 7 -16 17 -27 24 -24 7 2 21 -4 31 -15 13 -15 14 -19 3 -19
-8 0 -24 -3 -36 -6 -17 -5 -23 -2 -23 10 0 9 -7 16 -15 16 -9 0 -15 -9 -15
-21 0 -18 -4 -20 -26 -15 -21 6 -25 4 -22 -11 2 -9 14 -20 28 -24 23 -6 23 -7
3 -8 -12 -1 -28 6 -37 14 -18 19 -21 19 -41 -1 -13 -13 -18 -14 -31 -3 -8 7
-14 8 -13 3 6 -36 -2 -46 -31 -41 -19 4 -32 2 -37 -7 -4 -7 -16 -15 -25 -19
-29 -10 -21 -33 14 -43 19 -6 34 -17 36 -28 3 -13 0 -17 -11 -13 -8 3 -31 -3
-51 -14 -39 -21 -50 -10 -14 15 26 18 18 32 -10 17 -25 -13 -35 -50 -17 -58
11 -4 12 -9 2 -24 -9 -15 -9 -23 1 -39 10 -17 10 -21 -2 -26 -8 -3 -12 -13 -9
-22 3 -11 2 -13 -4 -6 -13 18 -53 27 -68 14 -10 -8 -18 -6 -36 12 l-22 23 6
-24 c3 -14 1 -31 -5 -38 -8 -11 -7 -12 6 -7 9 3 16 9 16 13 0 5 52 6 80 2 12
-2 -54 -31 -71 -31 -24 0 -35 -20 -18 -31 10 -6 8 -9 -10 -9 -17 0 -22 -4 -17
-16 3 -8 2 -13 -3 -10 -5 3 -11 0 -14 -8 -7 -17 -77 -29 -93 -15 -8 7 -14 6
-19 -1 -5 -8 -47 -10 -137 -6 -149 6 -199 14 -213 32 -17 20 -55 28 -55 11 0
-13 -31 -15 -227 -11 -126 2 -237 6 -249 9 -11 2 -46 7 -78 10 -31 3 -79 15
-107 25 -60 24 -159 86 -159 100 0 11 57 49 105 70 17 7 42 30 57 51 28 40 66
63 179 109 37 15 85 42 109 61 66 54 206 192 218 216 7 12 33 29 59 39 27 9
57 25 68 34 27 23 193 100 214 100 24 0 177 63 253 104 34 19 103 47 151 61
48 15 86 29 84 32 -7 6 -121 -23 -154 -41 -18 -9 -38 -16 -45 -16 -7 0 -37
-16 -65 -35 -29 -19 -59 -35 -67 -35 -9 0 -44 -13 -78 -30 -34 -17 -73 -30
-87 -30 -14 0 -53 -13 -86 -29 -33 -16 -81 -39 -107 -51 -27 -12 -48 -26 -48
-31 0 -5 -12 -9 -27 -9 -19 0 -39 -13 -70 -48 -23 -26 -48 -51 -54 -57 -7 -5
-35 -33 -63 -60 -75 -75 -197 -155 -236 -155 -35 0 -143 -66 -165 -101 -13
-20 -38 -41 -57 -48 -18 -7 -45 -19 -61 -27 -15 -9 -31 -13 -36 -10 -5 3 -11
-4 -14 -15 -6 -21 -6 -21 -36 2 -22 16 -30 29 -26 43 3 12 2 15 -1 9 -3 -7 -9
-13 -14 -13 -6 0 -41 47 -77 105 -27 44 -113 226 -113 239 0 8 -4 16 -8 18
-11 4 -44 87 -77 195 -25 81 -33 94 -58 104 -27 11 -32 10 -49 -11 -24 -29
-33 -21 -16 15 8 18 9 30 3 32 -16 5 -277 179 -310 207 -16 13 -27 27 -23 31
4 4 42 -20 85 -52 69 -52 255 -173 267 -173 2 0 14 16 26 35 16 27 20 44 16
73 -3 20 -8 61 -11 91 -2 29 -9 59 -15 66 -8 9 -8 15 0 20 27 17 7 46 -66 97
-94 66 -229 171 -271 211 -18 17 -43 31 -55 32 -14 1 -23 8 -23 18 0 20 -12
32 -33 32 -10 0 -18 9 -20 23 -2 12 -10 22 -17 22 -8 0 -20 10 -26 22 -7 12
-20 29 -29 38 -69 60 -262 299 -357 440 -119 179 -198 325 -314 585 -56 128
-144 435 -177 625 -47 265 -63 608 -38 820 3 25 8 77 11 115 24 277 146 705
274 965 149 300 256 468 438 687 88 106 291 311 389 393 l61 51 13 77 c8 42
14 91 15 107 5 60 26 170 36 180 10 10 13 45 3 45 -23 0 -281 -202 -426 -332
-47 -43 -89 -75 -92 -70 -14 23 297 285 483 408 48 31 46 29 90 124 70 153
168 267 391 460 52 45 120 106 150 135 63 60 108 87 197 121 34 13 84 37 112
54 62 38 211 103 311 134 41 14 98 34 125 47 43 19 148 45 195 48 8 0 42 -4
75 -10z m1570 -709 c19 -27 25 -44 18 -51 -7 -7 -14 -5 -23 6 -7 8 -9 15 -5
15 4 0 -3 9 -16 20 -13 10 -19 19 -12 20 7 0 10 7 7 15 -11 27 3 16 31 -25z
m-1090 -88 c2 -24 0 -30 -9 -23 -15 13 -19 64 -5 59 7 -2 13 -18 14 -36z m397
20 c8 -8 9 -12 1 -12 -18 0 -43 12 -43 20 0 12 28 6 42 -8z m814 -28 c33 -14
124 -57 203 -97 85 -43 145 -67 148 -61 8 22 32 49 38 42 4 -3 0 -19 -9 -36
l-15 -29 145 -94 c79 -52 144 -97 144 -101 0 -18 -30 -5 -95 40 -39 26 -100
67 -137 90 l-68 42 -16 -25 c-19 -29 -40 -34 -29 -7 20 47 19 48 -77 98 -142
73 -142 73 -225 109 -43 19 -79 38 -81 44 -6 17 10 13 74 -15z m-1816 -18
c-14 -14 -24 0 -16 21 6 15 8 15 16 3 6 -9 5 -19 0 -24z m707 -8 c-3 -8 -6 -5
-6 6 -1 11 2 17 5 13 3 -3 4 -12 1 -19z m1073 -80 c0 -5 -4 -8 -10 -8 -5 0
-10 10 -10 23 0 18 2 19 10 7 5 -8 10 -18 10 -22z m-1630 -64 c0 -34 -4 -66
-10 -69 -6 -4 -10 13 -10 43 0 27 -3 65 -7 83 -6 31 -5 33 10 20 13 -10 17
-30 17 -77z m2142 51 c3 -15 10 -19 33 -17 26 2 27 1 12 -9 -10 -6 -22 -22
-28 -35 -7 -20 -15 -25 -37 -22 -21 2 -28 9 -30 30 -2 18 3 31 16 39 13 8 18
19 14 33 -3 14 -1 18 6 11 5 -5 12 -19 14 -30z m-674 -23 c2 -12 8 -20 13 -17
5 3 6 -1 3 -9 -11 -28 -32 -17 -36 19 -4 38 15 44 20 7z m-243 8 c3 -5 -1 -10
-9 -10 -9 0 -16 5 -16 10 0 6 4 10 9 10 6 0 13 -4 16 -10z m-184 -23 c-10 -9
-11 -8 -5 6 3 10 9 15 12 12 3 -3 0 -11 -7 -18z m346 -19 c-3 -8 -6 -5 -6 6
-1 11 2 17 5 13 3 -3 4 -12 1 -19z m73 -27 c0 -5 -7 -12 -16 -15 -14 -5 -15
-4 -4 9 14 17 20 19 20 6z m49 -40 c1 -8 -5 -11 -14 -7 -16 6 -16 -14 0 -26 6
-5 6 -8 -1 -8 -6 0 -17 7 -24 15 -10 12 -10 18 0 30 6 8 9 18 6 24 -3 5 0 11
6 14 13 4 26 -16 27 -42z m231 19 c0 -5 -4 -10 -10 -10 -5 0 -10 5 -10 10 0 6
5 10 10 10 6 0 10 -4 10 -10z m60 -30 c0 -5 -4 -10 -9 -10 -6 0 -13 5 -16 10
-3 6 1 10 9 10 9 0 16 -4 16 -10z m55 -30 c3 -5 2 -10 -4 -10 -5 0 -13 5 -16
10 -3 6 -2 10 4 10 5 0 13 -4 16 -10z m-2286 -44 c-9 -8 -10 -7 -5 7 3 10 7
24 7 30 1 7 3 4 6 -7 3 -10 -1 -23 -8 -30z m1881 24 c0 -5 -5 -10 -11 -10 -5
0 -7 5 -4 10 3 6 8 10 11 10 2 0 4 -4 4 -10z m465 -10 c3 -5 -1 -10 -10 -10
-9 0 -13 5 -10 10 3 6 8 10 10 10 2 0 7 -4 10 -10z m65 -40 c0 -5 -4 -10 -9
-10 -6 0 -13 5 -16 10 -3 6 1 10 9 10 9 0 16 -4 16 -10z m55 -30 c3 -5 -1 -10
-9 -10 -9 0 -16 5 -16 10 0 6 4 10 9 10 6 0 13 -4 16 -10z m-115 -105 c8 -6
34 -22 57 -35 23 -13 40 -27 37 -32 -3 -4 2 -8 11 -8 42 0 378 -273 525 -426
332 -346 572 -739 726 -1189 36 -103 74 -243 74 -267 -1 -30 -30 27 -41 81
-11 51 -78 260 -99 306 -5 11 -29 67 -54 125 -96 224 -236 463 -389 660 -155
199 -377 421 -574 572 -96 74 -315 219 -365 243 -21 9 -38 24 -38 32 0 11 14
7 58 -17 31 -18 64 -38 72 -45z m175 65 c3 -5 -1 -10 -9 -10 -9 0 -16 5 -16
10 0 6 4 10 9 10 6 0 13 -4 16 -10z m52 -46 c-9 -9 -28 6 -21 18 4 6 10 6 17
-1 6 -6 8 -13 4 -17z m60 -40 c-9 -9 -28 6 -21 18 4 6 10 6 17 -1 6 -6 8 -13
4 -17z m-1342 -4 c18 -7 19 -8 3 -15 -24 -10 -23 -23 5 -46 l22 -18 -27 -1
c-16 0 -28 -4 -28 -10 0 -5 4 -10 9 -10 5 0 17 -7 25 -16 20 -20 20 -34 1 -34
-8 0 -15 4 -15 9 0 5 -9 11 -21 14 -16 4 -18 3 -8 -9 14 -17 11 -17 -30 -3
-29 10 -43 29 -21 29 6 0 10 7 10 15 0 9 9 15 23 15 20 0 19 2 -10 21 -18 12
-33 25 -33 29 0 14 18 21 25 10 10 -17 25 -11 25 10 0 21 12 24 45 10z m1400
-30 c3 -5 2 -10 -4 -10 -5 0 -13 5 -16 10 -3 6 -2 10 4 10 5 0 13 -4 16 -10z
m-3965 -9 c0 -5 -7 -11 -15 -15 -15 -5 -20 5 -8 17 9 10 23 9 23 -2z m1490 -6
c0 -9 -6 -12 -15 -9 -8 4 -12 10 -9 15 8 14 24 10 24 -6z m753 2 c9 -1 17 -6
18 -12 0 -5 2 -18 4 -27 2 -14 -4 -18 -26 -18 -34 0 -38 13 -7 27 22 10 22 10
-6 15 -22 4 -30 2 -33 -13 -5 -19 -40 -36 -50 -25 -4 3 1 6 10 6 10 0 18 5 18
10 1 6 3 15 4 20 1 6 3 15 4 21 1 7 10 9 24 4 12 -4 30 -7 40 -8z m79 -30 c-7
-8 -8 -17 -4 -22 4 -4 -2 -6 -12 -4 -29 6 -31 28 -4 38 28 10 35 6 20 -12z
m1693 3 c3 -5 2 -10 -4 -10 -5 0 -13 5 -16 10 -3 6 -2 10 4 10 5 0 13 -4 16
-10z m-4075 -15 c-7 -9 -15 -13 -17 -11 -7 7 7 26 19 26 6 0 6 -6 -2 -15z
m2670 -21 c0 -8 -5 -12 -10 -9 -6 4 -8 11 -5 16 9 14 15 11 15 -7z m30 2 c0
-3 -4 -8 -10 -11 -5 -3 -10 -1 -10 4 0 6 5 11 10 11 6 0 10 -2 10 -4z m1438
-15 c3 -8 -1 -12 -9 -9 -7 2 -15 10 -17 17 -3 8 1 12 9 9 7 -2 15 -10 17 -17z
m-4193 -10 c-3 -6 -11 -11 -17 -11 -6 0 -6 6 2 15 14 17 26 13 15 -4z m4245
-33 c0 -13 -23 -5 -28 10 -2 7 2 10 12 6 9 -3 16 -11 16 -16z m-4300 -13 c-7
-9 -15 -13 -17 -11 -7 7 7 26 19 26 6 0 6 -6 -2 -15z m1985 -25 c3 -5 1 -10
-4 -10 -6 0 -11 5 -11 10 0 6 2 10 4 10 3 0 8 -4 11 -10z m2360 0 c3 -5 -1
-10 -9 -10 -9 0 -16 5 -16 10 0 6 4 10 9 10 6 0 13 -4 16 -10z m-4390 -20 c-3
-5 -10 -10 -16 -10 -5 0 -9 5 -9 10 0 6 7 10 16 10 8 0 12 -4 9 -10z m2055
-10 c0 -5 -2 -10 -4 -10 -3 0 -8 5 -11 10 -3 6 -1 10 4 10 6 0 11 -4 11 -10z
m2390 -22 c0 -13 -23 -5 -28 10 -2 7 2 10 12 6 9 -3 16 -11 16 -16z m-4500
-13 c-7 -9 -15 -13 -17 -11 -7 7 7 26 19 26 6 0 6 -6 -2 -15z m2140 -6 c0 -6
-4 -7 -10 -4 -5 3 -10 11 -10 16 0 6 5 7 10 4 6 -3 10 -11 10 -16z m2407 -35
c-9 -9 -28 6 -21 18 4 6 10 6 17 -1 6 -6 8 -13 4 -17z m-2376 -1 c13 -16 12
-17 -3 -4 -10 7 -18 15 -18 17 0 8 8 3 21 -13z m336 -5 c-3 -8 -6 -5 -6 6 -1
11 2 17 5 13 3 -3 4 -12 1 -19z m-2552 2 c-3 -5 -11 -10 -16 -10 -6 0 -7 5 -4
10 3 6 11 10 16 10 6 0 7 -4 4 -10z m1775 0 c0 -5 -5 -10 -11 -10 -5 0 -7 5
-4 10 3 6 8 10 11 10 2 0 4 -4 4 -10z m502 -74 c16 -29 -7 -11 -33 27 l-23 32
23 -20 c13 -11 27 -28 33 -39z m1688 -32 c528 -396 890 -933 1056 -1564 9 -36
21 -69 25 -74 5 -6 9 -24 9 -42 0 -21 6 -34 17 -38 14 -6 15 -9 4 -15 -11 -7
-11 -27 2 -122 44 -309 39 -622 -14 -914 -35 -190 -87 -376 -108 -383 -15 -5
-14 11 4 55 38 98 92 369 111 558 15 150 15 498 1 575 -3 14 -8 52 -12 85 -13
114 -70 371 -87 390 -4 5 -8 19 -8 31 0 12 -7 27 -15 34 -9 8 -13 21 -9 37 5
19 2 25 -15 30 -11 3 -21 10 -21 15 0 5 5 6 11 2 41 -25 -109 314 -226 511
-189 318 -528 679 -815 867 -28 18 -50 36 -50 40 0 21 35 1 140 -78z m678 67
c3 -8 -1 -12 -9 -9 -7 2 -15 10 -17 17 -3 8 1 12 9 9 7 -2 15 -10 17 -17z
m-4693 -11 c-3 -5 -11 -10 -16 -10 -6 0 -7 5 -4 10 3 6 11 10 16 10 6 0 7 -4
4 -10z m1750 -16 c-9 -9 -19 -13 -23 -10 -3 4 0 11 8 16 24 15 33 11 15 -6z
m2990 -14 c3 -5 -1 -10 -9 -10 -9 0 -16 5 -16 10 0 6 4 10 9 10 6 0 13 -4 16
-10z m-4790 -20 c-3 -5 -11 -10 -16 -10 -6 0 -7 5 -4 10 3 6 11 10 16 10 6 0
7 -4 4 -10z m2465 -92 c0 -14 -7 -8 -38 36 -43 59 -41 70 3 15 19 -24 35 -47
35 -51z m207 60 c-3 -7 -5 -2 -5 12 0 14 2 19 5 13 2 -7 2 -19 0 -25z m2158 1
c11 -17 -1 -21 -15 -4 -8 9 -8 15 -2 15 6 0 14 -5 17 -11z m-4875 -19 c0 -5
-4 -10 -10 -10 -5 0 -10 5 -10 10 0 6 5 10 10 10 6 0 10 -4 10 -10z m4928 -39
c3 -8 -1 -12 -9 -9 -7 2 -15 10 -17 17 -3 8 1 12 9 9 7 -2 15 -10 17 -17z
m-2193 -20 c2 -11 0 -21 -6 -21 -5 0 -9 12 -9 27 0 30 9 27 15 -6z m-2780 9
c-3 -5 -11 -10 -16 -10 -6 0 -7 5 -4 10 3 6 11 10 16 10 6 0 7 -4 4 -10z
m2615 -74 c0 -6 -11 5 -25 24 -14 19 -25 36 -25 39 1 10 50 -53 50 -63z m2400
33 c0 -5 -4 -9 -10 -9 -5 0 -10 7 -10 16 0 8 5 12 10 9 6 -3 10 -10 10 -16z
m-5068 -21 c-7 -7 -12 -8 -12 -2 0 14 12 26 19 19 2 -3 -1 -11 -7 -17z m4084
7 c13 -13 13 -15 1 -15 -8 0 -20 7 -27 15 -9 11 -10 15 -1 15 7 0 19 -7 27
-15z m-1237 -55 c0 -29 -2 -31 -9 -15 -5 11 -9 34 -9 50 -1 23 2 26 9 15 5 -8
9 -31 9 -50z m1199 35 c-7 -7 -159 -37 -164 -32 -2 2 24 11 58 20 62 15 116
22 106 12z m90 -13 c2 -7 -2 -10 -12 -6 -9 3 -16 11 -16 16 0 13 23 5 28 -10z
m972 -3 c0 -6 -4 -7 -10 -4 -5 3 -10 11 -10 16 0 6 5 7 10 4 6 -3 10 -11 10
-16z m-2412 -14 c-3 -3 -9 2 -12 12 -6 14 -5 15 5 6 7 -7 10 -15 7 -18z
m-2733 -4 c-3 -6 -11 -11 -17 -11 -6 0 -6 6 2 15 14 17 26 13 15 -4z m3865
-15 c-19 -8 -39 -11 -44 -8 -13 7 23 21 54 21 22 -1 20 -2 -10 -13z m260 -7
c0 -6 -4 -7 -10 -4 -5 3 -10 11 -10 16 0 6 5 7 10 4 6 -3 10 -11 10 -16z m105
11 c3 -5 -1 -10 -9 -10 -9 0 -16 5 -16 10 0 6 4 10 9 10 6 0 13 -4 16 -10z
m-1441 -50 c49 -68 46 -77 -4 -10 -22 29 -40 55 -40 57 0 10 12 -3 44 -47z
m2401 29 c11 -17 -1 -21 -15 -4 -8 9 -8 15 -2 15 6 0 14 -5 17 -11z m-1425 -3
c0 -2 -7 -6 -15 -10 -8 -3 -15 -1 -15 4 0 6 7 10 15 10 8 0 15 -2 15 -4z m520
-22 c0 -8 -4 -12 -10 -9 -5 3 -10 10 -10 16 0 5 5 9 10 9 6 0 10 -7 10 -16z
m-1388 -28 c2 -19 0 -32 -4 -30 -8 5 -12 64 -4 64 2 0 6 -15 8 -34z m1283 24
c3 -5 1 -10 -4 -10 -6 0 -11 5 -11 10 0 6 2 10 4 10 3 0 8 -4 11 -10z m-560
-10 c-3 -5 -14 -10 -23 -9 -14 0 -13 2 3 9 27 11 27 11 20 0z m1612 -26 c-9
-9 -28 6 -21 18 4 6 10 6 17 -1 6 -6 8 -13 4 -17z m-1687 6 c-14 -4 -36 -8
-50 -8 -22 0 -22 1 5 8 17 4 39 8 50 8 16 0 15 -2 -5 -8z m795 0 c3 -5 -1 -10
-9 -10 -9 0 -16 5 -16 10 0 6 4 10 9 10 6 0 13 -4 16 -10z m-4415 -9 c0 -12
-20 -25 -27 -18 -7 7 6 27 18 27 5 0 9 -4 9 -9z m4305 -1 c3 -5 1 -10 -4 -10
-6 0 -11 5 -11 10 0 6 2 10 4 10 3 0 8 -4 11 -10z m-785 -10 c-14 -4 -34 -8
-45 -8 -16 0 -15 2 5 8 14 4 34 8 45 8 16 0 15 -2 -5 -8z m-90 -19 c-42 -13
-94 -22 -87 -15 8 8 66 22 92 22 15 0 14 -1 -5 -7z m1040 -12 c0 -6 -4 -7 -10
-4 -5 3 -10 11 -10 16 0 6 5 7 10 4 6 -3 10 -11 10 -16z m-1494 -46 c-3 9 -1
17 4 17 6 0 10 -9 10 -21 0 -15 4 -19 19 -14 11 3 22 1 26 -5 3 -5 1 -10 -6
-10 -8 0 -8 -4 1 -15 7 -8 24 -15 39 -15 37 0 59 -16 32 -23 -12 -3 -19 -1
-16 3 3 5 -3 9 -12 9 -39 -1 -95 29 -114 61 -11 18 -27 39 -35 47 -8 8 -14 17
-14 21 1 4 17 -11 36 -33 20 -22 34 -32 30 -22z m1384 36 c0 -6 -4 -7 -10 -4
-5 3 -10 11 -10 16 0 6 5 7 10 4 6 -3 10 -11 10 -16z m990 0 c0 -6 -4 -7 -10
-4 -5 3 -10 11 -10 16 0 6 5 7 10 4 6 -3 10 -11 10 -16z m-5730 -14 c9 -18 19
-23 32 -19 13 4 16 1 12 -10 -9 -23 -17 -20 -47 14 -16 18 -33 27 -42 24 -19
-8 -10 -23 22 -35 15 -5 23 -15 21 -26 -4 -24 -27 -28 -35 -6 -3 10 -12 25
-20 34 -7 9 -11 24 -7 33 10 25 49 20 64 -9z m3710 20 c0 -6 -73 -25 -78 -20
-2 2 11 8 29 14 41 11 49 12 49 6z m-3388 -27 c-7 -7 -12 -8 -12 -2 0 14 12
26 19 19 2 -3 -1 -11 -7 -17z m4584 -15 c-7 -7 -26 7 -26 19 0 6 6 6 15 -2 9
-7 13 -15 11 -17z m-1979 1 c-3 -3 -12 -4 -19 -1 -8 3 -5 6 6 6 11 1 17 -2 13
-5z m628 -4 c-27 -12 -43 -12 -25 0 8 5 22 9 30 9 10 0 8 -3 -5 -9z m1240 0
c3 -5 -1 -10 -9 -10 -9 0 -16 5 -16 10 0 6 4 10 9 10 6 0 13 -4 16 -10z m975
-11 c0 -5 -4 -9 -10 -9 -5 0 -10 7 -10 16 0 8 5 12 10 9 6 -3 10 -10 10 -16z
m-2287 -6 c-7 -2 -19 -2 -25 0 -7 3 -2 5 12 5 14 0 19 -2 13 -5z m-3188 -13
c-3 -5 -11 -10 -16 -10 -6 0 -7 5 -4 10 3 6 11 10 16 10 6 0 7 -4 4 -10z
m4655 0 c0 -5 -4 -10 -10 -10 -5 0 -10 5 -10 10 0 6 5 10 10 10 6 0 10 -4 10
-10z m-110 -20 c0 -5 -2 -10 -4 -10 -3 0 -8 5 -11 10 -3 6 -1 10 4 10 6 0 11
-4 11 -10z m968 -19 c3 -8 -1 -12 -9 -9 -7 2 -15 10 -17 17 -3 8 1 12 9 9 7
-2 15 -10 17 -17z m-798 -13 c0 -13 -23 -5 -28 10 -2 7 2 10 12 6 9 -3 16 -11
16 -16z m-4755 -7 c-3 -6 -11 -11 -17 -11 -6 0 -6 6 2 15 14 17 26 13 15 -4z
m3290 -9 c-3 -3 -11 0 -18 7 -9 10 -8 11 6 5 10 -3 15 -9 12 -12z m1345 -3 c0
-6 -4 -7 -10 -4 -5 3 -10 11 -10 16 0 6 5 7 10 4 6 -3 10 -11 10 -16z m1295
-10 c0 -16 7 -26 20 -29 23 -7 27 -41 6 -48 -10 -3 -12 0 -7 13 7 18 1 18 -64
-1 -24 -6 -23 -5 9 30 31 32 33 41 9 37 -10 -1 -10 13 -1 23 13 12 28 -1 28
-25z m-1127 -17 c2 -7 -2 -10 -12 -6 -9 3 -16 11 -16 16 0 13 23 5 28 -10z
m782 -3 c0 -6 -4 -7 -10 -4 -5 3 -10 11 -10 16 0 6 5 7 10 4 6 -3 10 -11 10
-16z m-5628 -21 c-7 -7 -12 -8 -12 -2 0 14 12 26 19 19 2 -3 -1 -11 -7 -17z
m3473 12 c7 -12 -2 -12 -30 0 -19 8 -19 9 2 9 12 1 25 -3 28 -9z m1255 -11 c0
-5 -4 -9 -10 -9 -5 0 -10 7 -10 16 0 8 5 12 10 9 6 -3 10 -10 10 -16z m-1190
-9 c13 -9 13 -10 0 -9 -8 0 -24 4 -35 9 l-20 9 20 0 c11 0 27 -4 35 -9z m1355
-9 c3 -5 1 -12 -4 -15 -5 -3 -11 1 -15 9 -6 16 9 21 19 6z m-1267 -18 c12 -3
22 -9 22 -14 0 -12 -9 -10 -55 12 -23 11 -29 17 -15 13 14 -3 35 -8 48 -11z
m2042 -4 c0 -5 -4 -9 -10 -9 -5 0 -10 7 -10 16 0 8 5 12 10 9 6 -3 10 -10 10
-16z m-5703 -21 c-3 -8 -6 -5 -6 6 -1 11 2 17 5 13 3 -3 4 -12 1 -19z m4808
12 c3 -5 2 -10 -4 -10 -5 0 -13 5 -16 10 -3 6 -2 10 4 10 5 0 13 -4 16 -10z
m165 -26 c0 -8 -4 -12 -10 -9 -5 3 -10 10 -10 16 0 5 5 9 10 9 6 0 10 -7 10
-16z m760 -20 c0 -8 -4 -12 -10 -9 -5 3 -10 10 -10 16 0 5 5 9 10 9 6 0 10 -7
10 -16z m-880 -15 c0 -6 -4 -7 -10 -4 -5 3 -10 11 -10 16 0 6 5 7 10 4 6 -3
10 -11 10 -16z m-4888 -11 c-7 -7 -12 -8 -12 -2 0 14 12 26 19 19 2 -3 -1 -11
-7 -17z m5053 2 c3 -5 1 -10 -4 -10 -6 0 -11 5 -11 10 0 6 2 10 4 10 3 0 8 -4
11 -10z m-340 -10 c3 -5 2 -10 -4 -10 -5 0 -13 5 -16 10 -3 6 -2 10 4 10 5 0
13 -4 16 -10z m215 -31 c0 -6 -4 -7 -10 -4 -5 3 -10 11 -10 16 0 6 5 7 10 4 6
-3 10 -11 10 -16z m870 5 c0 -8 -4 -12 -10 -9 -5 3 -10 10 -10 16 0 5 5 9 10
9 6 0 10 -7 10 -16z m-5828 -26 c-7 -7 -12 -8 -12 -2 0 14 12 26 19 19 2 -3
-1 -11 -7 -17z m5136 3 c3 -8 -1 -12 -9 -9 -7 2 -15 10 -17 17 -3 8 1 12 9 9
7 -2 15 -10 17 -17z m-138 -32 c0 -6 -4 -7 -10 -4 -5 3 -10 11 -10 16 0 6 5 7
10 4 6 -3 10 -11 10 -16z m865 0 c11 -17 -1 -21 -15 -4 -8 9 -8 15 -2 15 6 0
14 -5 17 -11z m-685 -20 c0 -6 -4 -7 -10 -4 -5 3 -10 11 -10 16 0 6 5 7 10 4
6 -3 10 -11 10 -16z m-5200 2 c0 -6 -4 -13 -10 -16 -5 -3 -10 1 -10 9 0 9 5
16 10 16 6 0 10 -4 10 -9z m5060 -42 c0 -6 -4 -7 -10 -4 -5 3 -10 11 -10 16 0
6 5 7 10 4 6 -3 10 -11 10 -16z m186 -16 c-7 -7 -26 7 -26 19 0 6 6 6 15 -2 9
-7 13 -15 11 -17z m672 9 c6 -18 -15 -14 -22 4 -4 10 -1 14 6 12 6 -2 14 -10
16 -16z m-5956 -24 c-7 -7 -12 -8 -12 -2 0 14 12 26 19 19 2 -3 -1 -11 -7 -17z
m5138 -18 c0 -5 -2 -10 -4 -10 -3 0 -8 5 -11 10 -3 6 -1 10 4 10 6 0 11 -4 11
-10z m188 -19 c3 -8 -1 -12 -9 -9 -7 2 -15 10 -17 17 -3 8 1 12 9 9 7 -2 15
-10 17 -17z m660 0 c3 -8 -1 -12 -9 -9 -7 2 -15 10 -17 17 -3 8 1 12 9 9 7 -2
15 -10 17 -17z m-6012 -28 c-10 -10 -19 5 -10 18 6 11 8 11 12 0 2 -7 1 -15
-2 -18z m5204 -13 c0 -5 -4 -10 -10 -10 -5 0 -10 5 -10 10 0 6 5 10 10 10 6 0
10 -4 10 -10z m186 -17 c-7 -7 -26 7 -26 19 0 6 6 6 15 -2 9 -7 13 -15 11 -17z
m649 -3 c3 -5 2 -10 -4 -10 -5 0 -13 5 -16 10 -3 6 -2 10 4 10 5 0 13 -4 16
-10z m-6073 -32 c-7 -7 -12 -8 -12 -2 0 14 12 26 19 19 2 -3 -1 -11 -7 -17z
m5268 -3 c7 -9 8 -15 2 -15 -5 0 -12 7 -16 15 -3 8 -4 15 -2 15 2 0 9 -7 16
-15z m194 -11 c4 -10 1 -14 -6 -12 -15 5 -23 28 -10 28 5 0 13 -7 16 -16z
m636 -20 c0 -8 -4 -12 -10 -9 -5 3 -10 10 -10 16 0 5 5 9 10 9 6 0 10 -7 10
-16z m-6123 -26 c-3 -8 -6 -5 -6 6 -1 11 2 17 5 13 3 -3 4 -12 1 -19z m5333
-9 c0 -5 -4 -9 -10 -9 -5 0 -10 7 -10 16 0 8 5 12 10 9 6 -3 10 -10 10 -16z
m190 1 c0 -5 -4 -10 -10 -10 -5 0 -10 5 -10 10 0 6 5 10 10 10 6 0 10 -4 10
-10z m624 -26 c4 -10 1 -14 -6 -12 -15 5 -23 28 -10 28 5 0 13 -7 16 -16z
m-6164 -23 c0 -6 -4 -13 -10 -16 -5 -3 -10 1 -10 9 0 9 5 16 10 16 6 0 10 -4
10 -9z m4481 -73 c163 -209 283 -464 339 -719 59 -272 49 -601 -27 -867 -26
-92 -32 -42 -7 55 101 396 58 824 -120 1196 -54 113 -54 113 -101 86 -76 -43
-76 -43 -44 -105 83 -159 172 -434 170 -526 0 -15 4 -30 8 -32 4 -3 7 -36 5
-73 -2 -44 1 -70 9 -76 9 -7 9 -10 0 -14 -7 -2 -13 -16 -13 -29 0 -14 4 -22
10 -19 6 3 10 -1 10 -9 0 -9 -4 -16 -10 -16 -6 0 -10 -27 -10 -61 0 -37 4 -58
10 -54 6 3 10 -1 10 -10 0 -9 -4 -14 -9 -10 -14 8 -19 -5 -31 -81 -14 -94 -38
-174 -51 -174 -7 0 -9 9 -4 23 40 130 49 205 49 422 0 194 -3 231 -22 315 -24
98 -56 210 -71 245 -60 141 -132 274 -193 359 -15 21 -28 43 -28 48 0 22 19 2
65 -67 28 -41 53 -75 58 -75 4 0 32 14 62 31 l54 31 -26 41 c-36 58 -90 134
-135 188 -21 25 -38 48 -38 52 0 20 24 -1 81 -75z m899 61 c0 -6 -4 -7 -10 -4
-5 3 -10 11 -10 16 0 6 5 7 10 4 6 -3 10 -11 10 -16z m-1705 1 c3 -5 -1 -10
-9 -10 -9 0 -16 5 -16 10 0 6 4 10 9 10 6 0 13 -4 16 -10z m1905 -6 c0 -8 -4
-12 -10 -9 -5 3 -10 10 -10 16 0 5 5 9 10 9 6 0 10 -7 10 -16z m610 -25 c0 -5
-4 -9 -10 -9 -5 0 -10 7 -10 16 0 8 5 12 10 9 6 -3 10 -10 10 -16z m-6210 -18
c0 -6 -4 -13 -10 -16 -5 -3 -10 1 -10 9 0 9 5 16 10 16 6 0 10 -4 10 -9z
m5630 -6 c10 -12 10 -15 -4 -15 -9 0 -16 7 -16 15 0 8 2 15 4 15 2 0 9 -7 16
-15z m600 -41 c0 -8 -4 -12 -10 -9 -5 3 -10 10 -10 16 0 5 5 9 10 9 6 0 10 -7
10 -16z m-6269 -37 c-10 -9 -11 -8 -5 6 3 10 9 15 12 12 3 -3 0 -11 -7 -18z
m5499 13 c0 -5 -2 -10 -4 -10 -3 0 -8 5 -11 10 -3 6 -1 10 4 10 6 0 11 -4 11
-10z m210 0 c0 -5 -4 -10 -10 -10 -5 0 -10 5 -10 10 0 6 5 10 10 10 6 0 10 -4
10 -10z m580 -40 c0 -5 -4 -10 -10 -10 -5 0 -10 5 -10 10 0 6 5 10 10 10 6 0
10 -4 10 -10z m-550 -21 c0 -5 -4 -9 -10 -9 -5 0 -10 7 -10 16 0 8 5 12 10 9
6 -3 10 -10 10 -16z m-5754 -16 c-10 -10 -19 5 -10 18 6 11 8 11 12 0 2 -7 1
-15 -2 -18z m5544 17 c0 -5 -4 -10 -10 -10 -5 0 -10 5 -10 10 0 6 5 10 10 10
6 0 10 -4 10 -10z m-2765 -40 c3 -5 1 -10 -4 -10 -6 0 -11 5 -11 10 0 6 2 10
4 10 3 0 8 -4 11 -10z m3542 -12 c-3 -8 -6 -5 -6 6 -1 11 2 17 5 13 3 -3 4
-12 1 -19z m-6340 -30 c-3 -8 -6 -5 -6 6 -1 11 2 17 5 13 3 -3 4 -12 1 -19z
m5588 12 c3 -5 1 -10 -4 -10 -6 0 -11 5 -11 10 0 6 2 10 4 10 3 0 8 -4 11 -10z
m775 -46 c0 -8 -4 -12 -10 -9 -5 3 -10 10 -10 16 0 5 5 9 10 9 6 0 10 -7 10
-16z m-6375 -24 c-3 -5 -11 -10 -16 -10 -6 0 -7 5 -4 10 3 6 11 10 16 10 6 0
7 -4 4 -10z m6395 -41 c0 -5 -4 -9 -10 -9 -5 0 -10 7 -10 16 0 8 5 12 10 9 6
-3 10 -10 10 -16z m-750 -9 c0 -5 -4 -10 -10 -10 -5 0 -10 5 -10 10 0 6 5 10
10 10 6 0 10 -4 10 -10z m-5660 -15 c0 -8 -4 -15 -10 -15 -5 0 -10 7 -10 15 0
8 5 15 10 15 6 0 10 -7 10 -15z m6420 -41 c0 -8 -4 -12 -10 -9 -5 3 -10 10
-10 16 0 5 5 9 10 9 6 0 10 -7 10 -16z m-6443 -36 c-3 -8 -6 -5 -6 6 -1 11 2
17 5 13 3 -3 4 -12 1 -19z m6319 -44 c6 -32 8 -68 4 -79 -6 -16 -9 -13 -15 20
-4 22 -11 56 -16 75 -12 46 -11 52 3 48 6 -2 17 -31 24 -64z m144 16 c0 -5 -4
-10 -10 -10 -5 0 -10 5 -10 10 0 6 5 10 10 10 6 0 10 -4 10 -10z m-740 -16 c0
-8 -5 -12 -10 -9 -6 4 -8 11 -5 16 9 14 15 11 15 -7z m-5730 -14 c0 -5 -4 -10
-10 -10 -5 0 -10 5 -10 10 0 6 5 10 10 10 6 0 10 -4 10 -10z m6480 -40 c0 -5
-4 -10 -10 -10 -5 0 -10 5 -10 10 0 6 5 10 10 10 6 0 10 -4 10 -10z m-735 -10
c3 -5 1 -10 -4 -10 -6 0 -11 5 -11 10 0 6 2 10 4 10 3 0 8 -4 11 -10z m-5760
-9 c3 -5 1 -12 -5 -16 -5 -3 -10 1 -10 9 0 18 6 21 15 7z m6505 -52 c0 -5 -4
-9 -10 -9 -5 0 -10 7 -10 16 0 8 5 12 10 9 6 -3 10 -10 10 -16z m-730 -9 c0
-5 -2 -10 -4 -10 -3 0 -8 5 -11 10 -3 6 -1 10 4 10 6 0 11 -4 11 -10z m595
-32 c4 -24 8 -56 11 -73 32 -208 29 -665 -5 -880 -44 -274 -98 -473 -190 -702
-70 -175 -92 -216 -106 -201 -3 2 16 51 41 109 69 157 69 156 107 274 63 194
103 372 133 590 22 155 25 629 6 760 -7 44 -15 99 -18 123 -4 27 -3 42 4 42 6
0 14 -19 17 -42z m-6375 18 c0 -3 -4 -8 -10 -11 -5 -3 -10 -1 -10 4 0 6 5 11
10 11 6 0 10 -2 10 -4z m6047 -38 c-3 -8 -6 -5 -6 6 -1 11 2 17 5 13 3 -3 4
-12 1 -19z m473 -4 c0 -8 -5 -12 -10 -9 -6 4 -8 11 -5 16 9 14 15 11 15 -7z
m-6530 -29 c0 -8 -4 -15 -10 -15 -5 0 -10 7 -10 15 0 8 5 15 10 15 6 0 10 -7
10 -15z m6540 -41 c0 -8 -4 -12 -10 -9 -5 3 -10 10 -10 16 0 5 5 9 10 9 6 0
10 -7 10 -16z m-6550 -23 c0 -6 -4 -13 -10 -16 -5 -3 -10 1 -10 9 0 9 5 16 10
16 6 0 10 -4 10 -9z m6110 -31 c0 -5 -2 -10 -4 -10 -3 0 -8 5 -11 10 -3 6 -1
10 4 10 6 0 11 -4 11 -10z m450 -15 c0 -8 -4 -15 -10 -15 -5 0 -10 7 -10 15 0
8 5 15 10 15 6 0 10 -7 10 -15z m-720 -11 c0 -8 -4 -12 -10 -9 -5 3 -10 10
-10 16 0 5 5 9 10 9 6 0 10 -7 10 -16z m-5853 -16 c-3 -8 -6 -5 -6 6 -1 11 2
17 5 13 3 -3 4 -12 1 -19z m6143 -29 c0 -5 -4 -9 -10 -9 -5 0 -10 7 -10 16 0
8 5 12 10 9 6 -3 10 -10 10 -16z m435 -8 c3 -5 1 -12 -5 -16 -5 -3 -10 1 -10
9 0 18 6 21 15 7z m-715 -11 c0 -5 -4 -10 -10 -10 -5 0 -10 5 -10 10 0 6 5 10
10 10 6 0 10 -4 10 -10z m-5860 -20 c0 -5 -4 -10 -10 -10 -5 0 -10 5 -10 10 0
6 5 10 10 10 6 0 10 -4 10 -10z m6147 -32 c-3 -8 -6 -5 -6 6 -1 11 2 17 5 13
3 -3 4 -12 1 -19z m433 -14 c0 -8 -4 -14 -10 -14 -5 0 -10 9 -10 21 0 11 5 17
10 14 6 -3 10 -13 10 -21z m-723 -6 c-3 -8 -6 -5 -6 6 -1 11 2 17 5 13 3 -3 4
-12 1 -19z m-3357 2 c0 -5 -7 -10 -15 -10 -8 0 -15 5 -15 10 0 6 7 10 15 10 8
0 15 -4 15 -10z m-2513 -22 c-3 -8 -6 -5 -6 6 -1 11 2 17 5 13 3 -3 4 -12 1
-19z m6593 -33 c0 -8 -4 -15 -10 -15 -5 0 -10 7 -10 15 0 8 5 15 10 15 6 0 10
-7 10 -15z m-715 -4 c3 -5 1 -12 -5 -16 -5 -3 -10 1 -10 9 0 18 6 21 15 7z
m-5875 -27 c0 -8 -5 -12 -10 -9 -6 4 -8 11 -5 16 9 14 15 11 15 -7z m6187 -30
c-9 -9 -28 6 -21 18 4 6 10 6 17 -1 6 -6 8 -13 4 -17z m-3707 0 c0 -8 -4 -12
-10 -9 -5 3 -10 10 -10 16 0 5 5 9 10 9 6 0 10 -7 10 -16z m-40 -9 c0 -8 -4
-15 -10 -15 -5 0 -10 7 -10 15 0 8 5 15 10 15 6 0 10 -7 10 -15z m4150 0 c0
-8 -4 -15 -10 -15 -5 0 -10 7 -10 15 0 8 5 15 10 15 6 0 10 -7 10 -15z m-713
-17 c-3 -8 -6 -5 -6 6 -1 11 2 17 5 13 3 -3 4 -12 1 -19z m-5877 -35 c0 -20
-3 -33 -6 -30 -11 10 -13 67 -3 67 5 0 9 -16 9 -37z m50 -3 c0 -16 -4 -32 -10
-35 -6 -4 -10 10 -10 35 0 25 4 39 10 35 6 -3 10 -19 10 -35z m5399 0 c5 0 12
8 15 18 4 13 4 13 3 -3 -1 -11 2 -26 6 -32 5 -7 4 -13 -2 -13 -5 0 -13 5 -16
10 -3 6 -11 10 -16 10 -6 0 -7 -4 -4 -10 3 -5 1 -10 -4 -10 -6 0 -11 17 -10
38 0 32 1 34 9 15 5 -13 14 -23 19 -23z m1044 -12 c-8 -41 -20 -26 -15 18 3
24 7 32 12 23 5 -8 6 -26 3 -41z m44 -10 c-4 -23 -4 -23 -14 2 -8 18 -7 31 0
45 11 20 12 19 15 -2 2 -13 2 -33 -1 -45z m-6440 22 c-2 -33 -12 -40 -19 -12
-6 21 1 42 12 42 5 0 8 -13 7 -30z m5893 -6 c0 -19 -4 -33 -8 -30 -8 5 -4 66
4 66 2 0 4 -16 4 -36z m200 10 c0 -8 -4 -12 -10 -9 -5 3 -10 10 -10 16 0 5 5
9 10 9 6 0 10 -7 10 -16z m-3615 -14 c-3 -5 -12 -10 -18 -10 -7 0 -6 4 3 10
19 12 23 12 15 0z m4015 -5 c0 -8 -4 -15 -10 -15 -5 0 -10 7 -10 15 0 8 5 15
10 15 6 0 10 -7 10 -15z m-713 -17 c-3 -8 -6 -5 -6 6 -1 11 2 17 5 13 3 -3 4
-12 1 -19z m-3276 -35 c-9 -16 -10 -14 -11 12 0 21 3 26 11 18 8 -8 8 -16 0
-30z m68 2 c16 -8 31 -12 34 -9 3 3 26 -4 51 -16 l47 -21 -18 -29 c-9 -17 -24
-30 -33 -31 -8 0 -24 -2 -34 -4 -20 -4 -46 16 -46 34 0 6 -7 11 -15 11 -8 0
-15 7 -15 15 0 8 -7 15 -15 15 -18 0 -19 4 -3 30 15 24 12 24 47 5z m3531 -1
c0 -8 -5 -12 -10 -9 -6 4 -8 11 -5 16 9 14 15 11 15 -7z m-6203 -26 c-3 -8 -6
-5 -6 6 -1 11 2 17 5 13 3 -3 4 -12 1 -19z m6593 7 c0 -8 -4 -15 -10 -15 -5 0
-10 7 -10 15 0 8 5 15 10 15 6 0 10 -7 10 -15z m-1663 -27 c-3 -8 -6 -5 -6 6
-1 11 2 17 5 13 3 -3 4 -12 1 -19z m-2424 -13 c-7 -21 -13 -19 -13 6 0 11 4
18 10 14 5 -3 7 -12 3 -20z m322 -16 c-10 -15 -25 -10 -19 6 4 8 10 12 15 9 5
-3 7 -10 4 -15z m3380 12 c3 -5 1 -12 -5 -16 -5 -3 -10 1 -10 9 0 18 6 21 15
7z m-3785 -31 c12 -23 12 -24 -3 -11 -10 7 -17 20 -17 29 0 18 3 16 20 -18z
m-2423 -2 c-3 -8 -6 -5 -6 6 -1 11 2 17 5 13 3 -3 4 -12 1 -19z m6593 7 c0 -8
-4 -15 -10 -15 -5 0 -10 7 -10 15 0 8 5 15 10 15 6 0 10 -7 10 -15z m-710 -5
c0 -5 -4 -10 -10 -10 -5 0 -10 5 -10 10 0 6 5 10 10 10 6 0 10 -4 10 -10z
m-3139 -38 c-7 -2 -18 1 -23 6 -8 8 -4 9 13 5 13 -4 18 -8 10 -11z m3469 -8
c0 -8 -4 -12 -10 -9 -5 3 -10 10 -10 16 0 5 5 9 10 9 6 0 10 -7 10 -16z
m-6200 -14 c0 -5 -4 -10 -10 -10 -5 0 -10 5 -10 10 0 6 5 10 10 10 6 0 10 -4
10 -10z m4712 -122 c-1 -5 4 -8 11 -8 20 0 50 -37 42 -50 -5 -9 -1 -10 14 -5
11 3 21 3 21 -2 0 -5 -9 -9 -21 -10 -47 -4 -58 -42 -24 -83 7 -9 11 -29 8 -48
-4 -26 -8 -30 -19 -21 -11 9 -14 7 -14 -10 0 -19 -3 -20 -20 -11 -11 6 -20 20
-20 30 0 11 -6 29 -12 41 -11 17 -10 22 5 33 21 16 22 26 2 26 -8 0 -15 -4
-15 -8 0 -5 -11 -15 -25 -22 -18 -9 -23 -19 -19 -32 8 -28 -15 -21 -26 7 -5
14 -12 25 -16 25 -3 0 -4 -7 -1 -15 4 -8 2 -17 -3 -20 -14 -9 -38 5 -43 26 -3
10 -13 22 -24 26 -28 10 -33 24 -15 51 12 19 13 28 4 43 -6 10 -9 25 -6 34 4
8 1 22 -5 29 -7 8 -8 16 -4 19 15 10 63 -5 63 -19 0 -10 7 -13 24 -8 16 4 25
1 30 -11 5 -15 9 -15 23 -4 11 9 14 10 9 2 -5 -10 1 -11 26 -7 27 6 31 4 21
-6 -15 -16 0 -40 24 -40 8 0 12 -4 8 -10 -3 -5 -13 -6 -22 -3 -9 4 -14 2 -11
-3 3 -5 8 -18 12 -28 6 -17 9 -16 31 14 18 25 21 35 12 45 -7 7 -15 11 -19 9
-4 -3 -12 6 -19 18 -15 28 -49 62 -55 55 -10 -10 -46 35 -49 61 -2 22 5 17 58
-39 34 -35 60 -67 59 -71z m1868 123 c0 -6 -4 -13 -10 -16 -5 -3 -10 1 -10 9
0 9 5 16 10 16 6 0 10 -4 10 -9z m-1673 -33 c-3 -8 -6 -5 -6 6 -1 11 2 17 5
13 3 -3 4 -12 1 -19z m1295 -30 c-9 -9 -12 -7 -12 12 0 19 3 21 12 12 9 -9 9
-15 0 -24z m-6205 -10 c-3 -8 -6 -5 -6 6 -1 11 2 17 5 13 3 -3 4 -12 1 -19z
m6573 2 c0 -5 -4 -10 -10 -10 -5 0 -10 5 -10 10 0 6 5 10 10 10 6 0 10 -4 10
-10z m-1990 -10 c0 -5 -2 -10 -4 -10 -3 0 -8 5 -11 10 -3 6 -1 10 4 10 6 0 11
-4 11 -10z m1280 0 c0 -5 -4 -10 -10 -10 -5 0 -10 5 -10 10 0 6 5 10 10 10 6
0 10 -4 10 -10z m-950 -4 c0 -3 -4 -8 -10 -11 -5 -3 -10 -1 -10 4 0 6 5 11 10
11 6 0 10 -2 10 -4z m1292 -48 c-9 -9 -12 -7 -12 12 0 19 3 21 12 12 9 -9 9
-15 0 -24z m-6192 -9 c0 -6 -4 -7 -10 -4 -5 3 -10 11 -10 16 0 6 5 7 10 4 6
-3 10 -11 10 -16z m2565 -29 c1 -13 -4 -20 -16 -20 -13 0 -17 -5 -12 -17 6
-17 6 -17 -11 0 -20 20 -15 50 8 41 8 -3 17 -1 21 5 3 6 -1 14 -9 17 -9 3 -16
11 -16 17 0 20 34 -21 35 -43z m3982 28 c-3 -8 -6 -5 -6 6 -1 11 2 17 5 13 3
-3 4 -12 1 -19z m-711 -15 c-10 -10 -19 5 -10 18 6 11 8 11 12 0 2 -7 1 -15
-2 -18z m364 -34 c0 -5 -4 -9 -10 -9 -5 0 -10 7 -10 16 0 8 5 12 10 9 6 -3 10
-10 10 -16z m-6190 -14 c0 -8 -4 -15 -10 -15 -5 0 -10 7 -10 15 0 8 5 15 10
15 6 0 10 -7 10 -15z m6530 -1 c0 -8 -5 -12 -10 -9 -6 4 -8 11 -5 16 9 14 15
11 15 -7z m-4024 -21 c17 -23 17 -33 2 -33 -23 0 -39 16 -32 33 8 21 14 21 30
0z m2344 -8 c-7 -8 -17 -15 -23 -15 -5 0 -2 9 8 20 21 23 35 19 15 -5z m970
21 c0 -3 -4 -8 -10 -11 -5 -3 -10 -1 -10 4 0 6 5 11 10 11 6 0 10 -2 10 -4z
m365 -35 c3 -5 1 -12 -5 -16 -5 -3 -10 1 -10 9 0 18 6 21 15 7z m-6175 -27 c0
-8 -4 -12 -10 -9 -5 3 -10 10 -10 16 0 5 5 9 10 9 6 0 10 -7 10 -16z m4870 6
c0 -5 -4 -10 -10 -10 -5 0 -10 5 -10 10 0 6 5 10 10 10 6 0 10 -4 10 -10z
m1650 2 c0 -13 -12 -22 -22 -16 -10 6 -1 24 13 24 5 0 9 -4 9 -8z m-3983 -18
c6 -16 -15 -37 -29 -28 -4 3 -13 14 -18 25 -9 16 -7 19 15 19 14 0 28 -7 32
-16z m2254 -22 c-25 -4 -27 -15 -6 -32 12 -10 18 -10 29 -1 10 8 16 9 21 1 3
-5 1 -10 -4 -10 -6 0 -11 -9 -11 -20 0 -22 -16 -27 -23 -7 -2 6 -2 2 0 -10 3
-18 0 -21 -14 -16 -28 11 -45 31 -33 38 6 4 10 14 9 23 -1 10 1 30 6 45 7 27
8 27 27 10 20 -18 20 -18 -1 -21z m1009 28 c0 -5 -5 -10 -11 -10 -5 0 -7 5 -4
10 3 6 8 10 11 10 2 0 4 -4 4 -10z m-955 -20 c-3 -5 -10 -10 -16 -10 -5 0 -9
5 -9 10 0 6 7 10 16 10 8 0 12 -4 9 -10z m1325 -19 c0 -6 -4 -13 -10 -16 -5
-3 -10 1 -10 9 0 9 5 16 10 16 6 0 10 -4 10 -9z m-3597 -42 c3 -23 2 -50 -2
-61 -7 -19 -7 -19 -29 0 -25 22 -30 44 -7 36 21 -9 19 23 -2 35 -16 9 -16 12
-3 21 27 18 37 11 43 -31z m-2563 21 c0 -5 -4 -10 -10 -10 -5 0 -10 5 -10 10
0 6 5 10 10 10 6 0 10 -4 10 -10z m6495 0 c-3 -5 -11 -10 -16 -10 -6 0 -7 5
-4 10 3 6 11 10 16 10 6 0 7 -4 4 -10z m-715 -10 c0 -5 -4 -10 -10 -10 -5 0
-10 5 -10 10 0 6 5 10 10 10 6 0 10 -4 10 -10z m367 -52 c-3 -8 -6 -5 -6 6 -1
11 2 17 5 13 3 -3 4 -12 1 -19z m-1102 2 c3 -5 2 -10 -4 -10 -5 0 -13 5 -16
10 -3 6 -2 10 4 10 5 0 13 -4 16 -10z m1431 -17 c-10 -10 -19 5 -10 18 6 11 8
11 12 0 2 -7 1 -15 -2 -18z m-716 2 c0 -8 -4 -15 -10 -15 -5 0 -7 7 -4 15 4 8
8 15 10 15 2 0 4 -7 4 -15z m386 -52 c-10 -10 -19 5 -10 18 6 11 8 11 12 0 2
-7 1 -15 -2 -18z m-986 7 c0 -5 -4 -10 -10 -10 -5 0 -10 5 -10 10 0 6 5 10 10
10 6 0 10 -4 10 -10z m-5130 -21 c0 -5 -4 -9 -10 -9 -5 0 -10 7 -10 16 0 8 5
12 10 9 6 -3 10 -10 10 -16z m6440 6 c0 -8 -4 -15 -10 -15 -5 0 -10 7 -10 15
0 8 5 15 10 15 6 0 10 -7 10 -15z m-730 -11 c0 -8 -5 -12 -10 -9 -6 4 -8 11
-5 16 9 14 15 11 15 -7z m-559 -11 c12 -15 12 -16 -4 -10 -10 4 -23 7 -28 7
-5 0 -9 5 -9 10 0 16 26 12 41 -7z m-166 -3 c3 -5 2 -10 -4 -10 -5 0 -13 5
-16 10 -3 6 -2 10 4 10 5 0 13 -4 16 -10z m-2463 -44 c-9 -19 -19 -30 -20 -25
-5 13 21 68 30 63 4 -3 0 -20 -10 -38z m150 22 c-7 -7 -12 -8 -12 -2 0 14 12
26 19 19 2 -3 -1 -11 -7 -17z m-22 -29 c0 -4 -9 -9 -19 -12 -22 -6 -42 10 -35
28 4 10 11 10 30 1 13 -6 24 -14 24 -17z m2560 15 c0 -2 -7 -4 -15 -4 -8 0
-15 4 -15 10 0 5 7 7 15 4 8 -4 15 -8 15 -10z m900 0 c0 -8 -4 -12 -10 -9 -5
3 -10 10 -10 16 0 5 5 9 10 9 6 0 10 -7 10 -16z m306 -21 c-10 -10 -19 5 -10
18 6 11 8 11 12 0 2 -7 1 -15 -2 -18z m-1303 -3 c20 -1 21 -1 4 -11 -10 -6
-22 -20 -27 -32 -6 -17 -8 -12 -7 22 1 23 3 38 5 32 2 -6 13 -11 25 -11z m587
10 c0 -5 -4 -10 -10 -10 -5 0 -10 5 -10 10 0 6 5 10 10 10 6 0 10 -4 10 -10z
m-2997 -25 c10 -14 13 -25 7 -25 -5 0 -10 5 -10 10 0 6 -4 10 -9 10 -5 0 -8
-8 -7 -17 1 -12 -7 -19 -22 -21 -15 -2 -22 -9 -18 -17 3 -8 1 -17 -4 -20 -6
-4 -10 1 -10 10 0 12 -6 15 -20 10 -34 -11 -22 15 14 30 18 8 36 23 39 35 7
26 18 25 40 -5z m3393 -32 c-10 -10 -19 5 -10 18 6 11 8 11 12 0 2 -7 1 -15
-2 -18z m308 2 c-4 -8 -8 -15 -10 -15 -2 0 -4 7 -4 15 0 8 4 15 10 15 5 0 7
-7 4 -15z m-6374 -5 c0 -5 -4 -10 -10 -10 -5 0 -10 5 -10 10 0 6 5 10 10 10 6
0 10 -4 10 -10z m5177 -15 c-9 -19 -13 -21 -15 -9 -3 13 12 33 25 34 0 0 -4
-11 -10 -25z m468 6 c-3 -6 -11 -11 -17 -11 -6 0 -6 6 2 15 14 17 26 13 15 -4z
m-290 -39 c-3 -3 -11 0 -18 7 -9 10 -8 11 6 5 10 -3 15 -9 12 -12z m701 -19
c-10 -10 -19 5 -10 18 6 11 8 11 12 0 2 -7 1 -15 -2 -18z m-6041 8 c3 -5 1
-12 -5 -16 -5 -3 -10 1 -10 9 0 18 6 21 15 7z m6345 0 c0 -6 -4 -13 -10 -16
-5 -3 -10 1 -10 9 0 9 5 16 10 16 6 0 10 -4 10 -9z m-556 -128 c-46 -125 -153
-340 -229 -463 -95 -152 -341 -466 -376 -478 -23 -9 -5 23 39 71 163 175 356
458 454 667 39 83 96 218 108 255 7 22 17 46 23 54 24 29 17 -11 -19 -106z
m246 68 c0 -6 -4 -13 -10 -16 -5 -3 -10 1 -10 9 0 9 5 16 10 16 6 0 10 -4 10
-9z m-6015 -11 c3 -5 1 -10 -4 -10 -6 0 -11 5 -11 10 0 6 2 10 4 10 3 0 8 -4
11 -10z m5557 -12 c-7 -7 -12 -8 -12 -2 0 14 12 26 19 19 2 -3 -1 -11 -7 -17z
m748 13 c0 -6 -4 -13 -10 -16 -5 -3 -10 1 -10 9 0 9 5 16 10 16 6 0 10 -4 10
-9z m-305 -61 c-3 -5 -11 -10 -16 -10 -6 0 -7 5 -4 10 3 6 11 10 16 10 6 0 7
-4 4 -10z m280 1 c3 -5 1 -12 -5 -16 -5 -3 -10 1 -10 9 0 18 6 21 15 7z
m-6255 -11 c0 -5 -4 -10 -10 -10 -5 0 -10 5 -10 10 0 6 5 10 10 10 6 0 10 -4
10 -10z m20 -66 c0 -8 -4 -12 -10 -9 -5 3 -10 10 -10 16 0 5 5 9 10 9 6 0 10
-7 10 -16z m5940 12 c0 -3 -4 -8 -10 -11 -5 -3 -10 -1 -10 4 0 6 5 11 10 11 6
0 10 -2 10 -4z m280 0 c0 -3 -4 -8 -10 -11 -5 -3 -10 -1 -10 4 0 6 5 11 10 11
6 0 10 -2 10 -4z m-6195 -84 c-8 -8 -25 10 -19 20 4 6 9 5 15 -3 4 -7 6 -15 4
-17z m5895 13 c0 -8 -4 -15 -10 -15 -5 0 -10 7 -10 15 0 8 5 15 10 15 6 0 10
-7 10 -15z m270 -5 c0 -5 -5 -10 -11 -10 -5 0 -7 5 -4 10 3 6 8 10 11 10 2 0
4 -4 4 -10z m-294 -67 c-10 -10 -19 5 -10 18 6 11 8 11 12 0 2 -7 1 -15 -2
-18z m268 2 c-4 -8 -8 -15 -10 -15 -2 0 -4 7 -4 15 0 8 4 15 10 15 5 0 7 -7 4
-15z m-6097 -67 c-3 -8 -6 -5 -6 6 -1 11 2 17 5 13 3 -3 4 -12 1 -19z m5813
13 c0 -6 -4 -13 -10 -16 -5 -3 -10 1 -10 9 0 9 5 16 10 16 6 0 10 -4 10 -9z
m-5780 -67 c0 -8 -5 -12 -10 -9 -6 4 -8 11 -5 16 9 14 15 11 15 -7z m5751 -17
c-8 -8 -11 -7 -11 4 0 20 13 34 18 19 3 -7 -1 -17 -7 -23z m259 13 c0 -5 -4
-10 -10 -10 -5 0 -10 5 -10 10 0 6 5 10 10 10 6 0 10 -4 10 -10z m-5984 -67
c-10 -10 -19 5 -10 18 6 11 8 11 12 0 2 -7 1 -15 -2 -18z m5804 13 c0 -8 -4
-18 -10 -21 -5 -3 -10 3 -10 14 0 12 5 21 10 21 6 0 10 -6 10 -14z m-104 -23
c-10 -10 -19 5 -10 18 6 11 8 11 12 0 2 -7 1 -15 -2 -18z m254 12 c0 -8 -4
-15 -10 -15 -5 0 -10 7 -10 15 0 8 5 15 10 15 6 0 10 -7 10 -15z m-5920 -50
c10 -12 10 -15 -4 -15 -9 0 -16 7 -16 15 0 8 2 15 4 15 2 0 9 -7 16 -15z
m5724 -43 c-32 -56 -42 -68 -50 -59 -3 3 4 25 17 49 32 59 40 69 51 62 5 -3
-3 -27 -18 -52z m-74 39 c0 -6 -4 -13 -10 -16 -5 -3 -10 1 -10 9 0 9 5 16 10
16 6 0 10 -4 10 -9z m430 -26 c0 -3 -4 -13 -9 -23 -5 -9 -21 -42 -35 -72 -14
-30 -37 -73 -50 -95 l-25 -40 27 -22 c32 -25 23 -42 -11 -20 -24 16 -24 15
-111 -118 -107 -164 -228 -323 -234 -306 -2 7 5 25 16 40 63 80 187 257 231
328 l50 83 -29 15 c-17 9 -30 20 -30 25 0 16 27 12 45 -7 16 -16 18 -15 34 5
9 12 38 65 64 117 27 52 53 95 58 95 5 0 9 -2 9 -5z m-6044 -42 c-7 -7 -26 7
-26 19 0 6 6 6 15 -2 9 -7 13 -15 11 -17z m5584 -2 c0 -6 -4 -13 -10 -16 -5
-3 -10 1 -10 9 0 9 5 16 10 16 6 0 10 -4 10 -9z m-5555 -51 c3 -5 1 -10 -4
-10 -6 0 -11 5 -11 10 0 6 2 10 4 10 3 0 8 -4 11 -10z m5763 -2 c-2 -6 -10
-14 -16 -16 -7 -2 -10 2 -6 12 7 18 28 22 22 4z m-242 -25 c-10 -10 -19 5 -10
18 6 11 8 11 12 0 2 -7 1 -15 -2 -18z m-5486 -34 c0 -5 -4 -9 -10 -9 -5 0 -10
7 -10 16 0 8 5 12 10 9 6 -3 10 -10 10 -16z m5460 -122 c-95 -140 -236 -314
-351 -435 -38 -40 -69 -77 -69 -82 0 -6 -11 -15 -25 -20 -14 -5 -25 -13 -24
-17 4 -24 -2 -35 -17 -29 -10 4 -32 -8 -61 -34 -48 -42 -73 -53 -51 -22 7 10
54 55 105 100 51 46 120 115 155 154 35 39 73 81 86 93 12 12 22 27 22 33 0 6
9 16 20 22 11 6 20 20 20 31 0 12 10 23 25 29 22 8 24 14 19 37 -6 24 -5 26 8
15 13 -11 27 4 96 105 45 65 89 128 97 141 9 12 21 20 26 17 5 -4 -31 -66 -81
-138z m-5720 101 c17 -24 19 -30 7 -25 -11 4 -17 1 -17 -8 0 -20 -44 -19 -60
1 -11 13 -10 19 8 37 12 12 22 16 22 10 0 -7 -4 -15 -10 -18 -14 -9 -12 -25 3
-25 28 0 40 17 28 39 -17 30 -8 26 19 -11z m4484 7 c-10 -8 -23 -15 -28 -15
-6 0 -1 7 10 15 10 8 23 15 28 15 6 0 1 -7 -10 -15z m1232 -12 c-10 -10 -19 5
-10 18 6 11 8 11 12 0 2 -7 1 -15 -2 -18z m234 17 c0 -5 -4 -10 -10 -10 -5 0
-10 5 -10 10 0 6 5 10 10 10 6 0 10 -4 10 -10z m-1795 -31 c-10 -15 -25 -10
-19 6 4 8 10 12 15 9 5 -3 7 -10 4 -15z m222 -5 c-3 -3 -12 -4 -19 -1 -8 3 -5
6 6 6 11 1 17 -2 13 -5z m-4082 -14 c3 -5 1 -10 -4 -10 -6 0 -11 5 -11 10 0 6
2 10 4 10 3 0 8 -4 11 -10z m5623 -2 c-2 -6 -10 -14 -16 -16 -7 -2 -10 2 -6
12 7 18 28 22 22 4z m-943 -8 c3 -5 1 -10 -4 -10 -6 0 -11 5 -11 10 0 6 2 10
4 10 3 0 8 -4 11 -10z m706 -23 c-8 -8 -11 -7 -11 4 0 20 13 34 18 19 3 -7 -1
-17 -7 -23z m-5351 -28 c0 -6 -4 -7 -10 -4 -5 3 -10 11 -10 16 0 6 5 7 10 4 6
-3 10 -11 10 -16z m5550 2 c0 -6 -4 -13 -10 -16 -5 -3 -10 1 -10 9 0 9 5 16
10 16 6 0 10 -4 10 -9z m-228 -23 c-7 -7 -12 -8 -12 -2 0 14 12 26 19 19 2 -3
-1 -11 -7 -17z m-752 -28 c-6 -11 -15 -18 -20 -15 -6 4 -5 12 3 20 18 21 29
18 17 -5z m100 10 c0 -5 -2 -10 -4 -10 -3 0 -8 5 -11 10 -3 6 -1 10 4 10 6 0
11 -4 11 -10z m-4630 -21 c0 -6 -4 -7 -10 -4 -5 3 -10 11 -10 16 0 6 5 7 10 4
6 -3 10 -11 10 -16z m5469 -5 c-14 -18 -24 -11 -15 11 3 9 11 13 16 10 8 -5 7
-11 -1 -21z m291 12 c0 -12 -43 -76 -51 -76 -14 0 -11 11 14 47 19 29 37 42
37 29z m-1334 -15 c-3 -5 1 -11 9 -15 22 -8 18 -24 -7 -28 -18 -2 -22 -9 -20
-28 2 -20 0 -22 -8 -10 -9 13 -10 13 -11 0 -1 -20 -17 19 -18 44 -1 15 2 16
14 6 12 -10 15 -7 21 14 3 14 10 26 16 26 5 0 7 -4 4 -9z m164 5 c0 -3 -4 -8
-10 -11 -5 -3 -10 -1 -10 4 0 6 5 11 10 11 6 0 10 -2 10 -4z m660 -17 c-7 -11
-14 -18 -17 -15 -8 8 5 36 17 36 7 0 7 -6 0 -21z m525 -34 c-10 -19 -24 -35
-32 -35 -10 0 -9 6 4 28 39 60 60 65 28 7z m-1225 15 c0 -5 -4 -10 -10 -10 -5
0 -10 5 -10 10 0 6 5 10 10 10 6 0 10 -4 10 -10z m-4515 -10 c3 -5 1 -10 -4
-10 -6 0 -11 5 -11 10 0 6 2 10 4 10 3 0 8 -4 11 -10z m2589 -5 c3 -9 0 -15
-9 -15 -8 0 -15 7 -15 15 0 8 4 15 9 15 5 0 11 -7 15 -15z m2816 6 c0 -12 -20
-25 -27 -18 -7 7 6 27 18 27 5 0 9 -4 9 -9z m-5360 -62 c0 -5 -4 -9 -10 -9 -5
0 -10 7 -10 16 0 8 5 12 10 9 6 -3 10 -10 10 -16z m5310 -4 c-7 -9 -15 -13
-17 -11 -7 7 7 26 19 26 6 0 6 -6 -2 -15z m-780 -21 c0 -8 -5 -12 -10 -9 -6 4
-8 11 -5 16 9 14 15 11 15 -7z m-4490 -30 c0 -8 -4 -12 -10 -9 -5 3 -10 10
-10 16 0 5 5 9 10 9 6 0 10 -7 10 -16z m4251 3 c-1 -12 -15 -9 -19 4 -3 6 1
10 8 8 6 -3 11 -8 11 -12z m975 -14 c-10 -10 -19 5 -10 18 6 11 8 11 12 0 2
-7 1 -15 -2 -18z m-5186 -39 c0 -8 -4 -12 -10 -9 -5 3 -10 10 -10 16 0 5 5 9
10 9 6 0 10 -7 10 -16z m4370 6 c0 -5 -2 -10 -4 -10 -3 0 -8 5 -11 10 -3 6 -1
10 4 10 6 0 11 -4 11 -10z m776 -15 c-3 -9 -11 -13 -16 -10 -8 5 -7 11 1 21
14 18 24 11 15 -11z m-5101 -45 c3 -5 2 -10 -4 -10 -5 0 -13 5 -16 10 -3 6 -2
10 4 10 5 0 13 -4 16 -10z m5065 1 c0 -12 -20 -25 -27 -18 -7 7 6 27 18 27 5
0 9 -4 9 -9z m-700 -30 c0 -6 -4 -13 -10 -16 -5 -3 -10 1 -10 9 0 9 5 16 10
16 6 0 10 -4 10 -9z m-4320 -21 c0 -5 -4 -10 -10 -10 -5 0 -10 5 -10 10 0 6 5
10 10 10 6 0 10 -4 10 -10z m4966 -17 c-10 -10 -19 5 -10 18 6 11 8 11 12 0 2
-7 1 -15 -2 -18z m-4918 -41 c6 -18 -15 -14 -22 4 -4 10 -1 14 6 12 6 -2 14
-10 16 -16z m4882 9 c0 -12 -20 -25 -27 -18 -7 7 6 27 18 27 5 0 9 -4 9 -9z
m-800 -31 c0 -5 -7 -7 -15 -4 -8 4 -12 10 -9 15 6 11 24 2 24 -11z m1020 1 c0
-5 -7 -11 -15 -15 -15 -5 -20 5 -8 17 9 10 23 9 23 -2z m-5056 -27 c4 -10 1
-14 -6 -12 -15 5 -23 28 -10 28 5 0 13 -7 16 -16z m4781 -3 c-3 -6 -11 -11
-17 -11 -6 0 -6 6 2 15 14 17 26 13 15 -4z m210 -47 c-28 -44 -262 -274 -361
-355 -145 -121 -382 -290 -471 -338 -22 -11 -22 -13 -7 -37 12 -18 14 -28 6
-36 -8 -8 -14 -4 -23 15 -15 32 -27 33 -73 6 -19 -11 -43 -19 -53 -17 -13 2
-9 8 17 21 67 33 74 42 60 77 -17 42 -7 48 19 11 l22 -30 67 41 c246 150 504
359 706 574 94 100 129 126 91 68z m-4945 0 c0 -8 -4 -12 -10 -9 -5 3 -10 10
-10 16 0 5 5 9 10 9 6 0 10 -7 10 -16z m4694 1 c-6 -16 -24 -21 -24 -7 0 11
11 22 21 22 5 0 6 -7 3 -15z m-4649 -45 c3 -5 1 -10 -4 -10 -6 0 -11 5 -11 10
0 6 2 10 4 10 3 0 8 -4 11 -10z m3951 -19 c-12 -19 -24 -12 -19 10 4 13 9 17
15 11 6 -6 7 -15 4 -21z m644 14 c-7 -9 -15 -13 -17 -11 -7 7 7 26 19 26 6 0
6 -6 -2 -15z m-4542 -43 c6 -18 -15 -14 -22 4 -4 10 -1 14 6 12 6 -2 14 -10
16 -16z m4352 9 c0 -6 -4 -13 -10 -16 -5 -3 -10 1 -10 9 0 9 5 16 10 16 6 0
10 -4 10 -9z m-4190 -22 c0 -6 -4 -7 -10 -4 -5 3 -10 11 -10 16 0 6 5 7 10 4
6 -3 10 -11 10 -16z m4340 17 c0 -2 -7 -9 -15 -16 -12 -10 -15 -10 -15 4 0 9
7 16 15 16 8 0 15 -2 15 -4z m-4455 -47 c11 -17 -1 -21 -15 -4 -8 9 -8 15 -2
15 6 0 14 -5 17 -11z m4255 1 c0 -5 -4 -10 -10 -10 -5 0 -10 5 -10 10 0 6 5
10 10 10 6 0 10 -4 10 -10z m141 -13 c-13 -13 -26 -3 -16 12 3 6 11 8 17 5 6
-4 6 -10 -1 -17z m-4231 -8 c0 -6 -4 -7 -10 -4 -5 3 -10 11 -10 16 0 6 5 7 10
4 6 -3 10 -11 10 -16z m4009 -6 c-17 -20 -211 -164 -216 -159 -11 10 20 39
115 108 100 73 132 90 101 51z m-4114 -31 c-3 -3 -11 0 -18 7 -9 10 -8 11 6 5
10 -3 15 -9 12 -12z m4145 14 c0 -3 -4 -8 -10 -11 -5 -3 -10 -1 -10 4 0 6 5
11 10 11 6 0 10 -2 10 -4z m140 -11 c-7 -8 -17 -12 -22 -9 -6 4 -5 10 3 15 22
14 33 10 19 -6z m-4135 -6 c11 -17 -1 -21 -15 -4 -8 9 -8 15 -2 15 6 0 14 -5
17 -11z m-104 -32 c-1 -12 -15 -9 -19 4 -3 6 1 10 8 8 6 -3 11 -8 11 -12z
m3689 -8 c0 -6 -4 -7 -10 -4 -5 3 -10 11 -10 16 0 6 5 7 10 4 6 -3 10 -11 10
-16z m360 6 c0 -8 -7 -15 -16 -15 -14 0 -14 3 -4 15 7 8 14 15 16 15 2 0 4 -7
4 -15z m132 -7 c-6 -6 -15 -8 -19 -4 -4 4 -1 11 7 16 8 5 17 7 19 4 3 -2 -1
-10 -7 -16z m-4022 -8 c0 -5 -2 -10 -4 -10 -3 0 -8 5 -11 10 -3 6 -1 10 4 10
6 0 11 -4 11 -10z m3527 -16 c-3 -3 -12 -4 -19 -1 -8 3 -5 6 6 6 11 1 17 -2
13 -5z m-3627 -14 c0 -5 -4 -10 -10 -10 -5 0 -10 5 -10 10 0 6 5 10 10 10 6 0
10 -4 10 -10z m3940 1 c0 -5 -7 -11 -15 -15 -15 -5 -20 5 -8 17 9 10 23 9 23
-2z m135 -1 c-3 -5 -10 -10 -16 -10 -5 0 -9 5 -9 10 0 6 7 10 16 10 8 0 12 -4
9 -10z m-3930 -10 c3 -5 1 -10 -4 -10 -6 0 -11 5 -11 10 0 6 2 10 4 10 3 0 8
-4 11 -10z m3745 -29 c0 -12 -20 -25 -27 -18 -7 7 6 27 18 27 5 0 9 -4 9 -9z
m130 -1 c0 -5 -4 -10 -10 -10 -5 0 -10 5 -10 10 0 6 5 10 10 10 6 0 10 -4 10
-10z m-3820 -20 c0 -5 -2 -10 -4 -10 -3 0 -8 5 -11 10 -3 6 -1 10 4 10 6 0 11
-4 11 -10z m-95 -20 c3 -5 1 -10 -4 -10 -6 0 -11 5 -11 10 0 6 2 10 4 10 3 0
8 -4 11 -10z m3465 6 c0 -3 -4 -8 -10 -11 -5 -3 -10 -1 -10 4 0 6 5 11 10 11
6 0 10 -2 10 -4z m400 -6 c0 -5 -7 -10 -16 -10 -8 0 -12 5 -9 10 3 6 10 10 16
10 5 0 9 -4 9 -10z m-135 -10 c-3 -5 -10 -10 -16 -10 -5 0 -9 5 -9 10 0 6 7
10 16 10 8 0 12 -4 9 -10z m-3580 -10 c3 -5 2 -10 -4 -10 -5 0 -13 5 -16 10
-3 6 -2 10 4 10 5 0 13 -4 16 -10z m-90 -20 c3 -5 2 -10 -4 -10 -5 0 -13 5
-16 10 -3 6 -2 10 4 10 5 0 13 -4 16 -10z m3745 0 c0 -5 -7 -10 -16 -10 -8 0
-12 5 -9 10 3 6 10 10 16 10 5 0 9 -4 9 -10z m-135 -10 c-3 -5 -11 -10 -16
-10 -6 0 -7 5 -4 10 3 6 11 10 16 10 6 0 7 -4 4 -10z m-180 -20 c3 -5 1 -10
-4 -10 -6 0 -11 5 -11 10 0 6 2 10 4 10 3 0 8 -4 11 -10z m-3375 -10 c0 -5 -2
-10 -4 -10 -3 0 -8 5 -11 10 -3 6 -1 10 4 10 6 0 11 -4 11 -10z m3630 -5 c-7
-8 -16 -12 -21 -9 -13 8 -1 24 18 24 13 0 13 -3 3 -15z m-3570 -35 c0 -5 -2
-10 -4 -10 -3 0 -8 5 -11 10 -3 6 -1 10 4 10 6 0 11 -4 11 -10z m3515 0 c-3
-5 -10 -10 -16 -10 -5 0 -9 5 -9 10 0 6 7 10 16 10 8 0 12 -4 9 -10z m-55 -30
c0 -5 -7 -10 -16 -10 -8 0 -12 5 -9 10 3 6 10 10 16 10 5 0 9 -4 9 -10z m-365
-88 c-3 -8 -5 -17 -5 -21 0 -5 -11 -7 -25 -6 -29 4 -47 -15 -49 -52 -2 -16 -7
-28 -12 -28 -5 0 -8 9 -8 20 1 11 2 28 3 38 0 10 12 22 26 27 14 5 25 15 25
22 0 7 11 13 25 13 17 0 24 -4 20 -13z m-3212 -112 c9 -16 12 -32 7 -35 -5 -3
-10 3 -12 12 -3 15 -6 14 -17 -6 -12 -21 -11 -23 3 -18 9 4 16 1 16 -5 0 -6 9
-1 20 12 25 28 26 18 3 -21 -20 -33 -22 -34 -49 -14 -18 13 -18 15 -2 45 10
17 15 37 12 45 -11 27 4 16 19 -15z m3271 15 c4 -10 -1 -15 -14 -15 -13 0 -18
-5 -14 -15 4 -8 2 -15 -4 -15 -16 0 -20 23 -8 43 13 21 32 22 40 2z m-104 -5
c0 -5 -4 -10 -10 -10 -5 0 -10 5 -10 10 0 6 5 10 10 10 6 0 10 -4 10 -10z
m395 -100 c-3 -5 -11 -10 -16 -10 -6 0 -7 5 -4 10 3 6 11 10 16 10 6 0 7 -4 4
-10z m-775 -10 c0 -5 -7 -10 -16 -10 -8 0 -12 5 -9 10 3 6 10 10 16 10 5 0 9
-4 9 -10z m373 -25 c-3 -9 -8 -14 -10 -11 -3 3 -2 9 2 15 9 16 15 13 8 -4z
m212 -4 c-3 -6 -11 -11 -17 -11 -6 0 -6 6 2 15 14 17 26 13 15 -4z m236 3 c15
-14 16 -18 4 -30 -7 -8 -17 -14 -20 -14 -13 0 -54 37 -48 44 4 3 15 -2 26 -11
19 -17 19 -17 13 5 -9 26 0 28 25 6z m-824 -32 c-23 -3 -26 -6 -16 -18 9 -11
7 -14 -14 -14 -17 0 -24 5 -23 18 1 20 32 31 61 23 17 -5 15 -6 -8 -9z m-77
-11 c0 -11 -31 -24 -39 -16 -3 3 1 10 9 15 19 12 30 12 30 1z m330 -5 c0 -3
-4 -8 -10 -11 -5 -3 -10 -1 -10 4 0 6 5 11 10 11 6 0 10 -2 10 -4z m-376 -22
c3 -8 2 -12 -4 -9 -6 3 -10 2 -10 -3 0 -6 -7 -12 -14 -15 -11 -4 -13 -1 -9 11
5 14 21 31 29 32 1 0 5 -7 8 -16z m41 -24 c3 -5 1 -10 -4 -10 -6 0 -11 5 -11
10 0 6 2 10 4 10 3 0 8 -4 11 -10z m45 -14 c0 -2 -8 -10 -17 -17 -16 -13 -17
-12 -4 4 13 16 21 21 21 13z m-94 -24 c16 -10 28 -52 15 -52 -6 0 -11 5 -11
12 0 6 -7 20 -17 30 -16 18 -8 24 13 10z m-56 -131 c-11 -21 -30 -29 -30 -12
0 12 31 43 37 37 3 -2 0 -14 -7 -25z m112 -13 c-7 -7 -12 -8 -12 -2 0 14 12
26 19 19 2 -3 -1 -11 -7 -17z m-232 -98 c0 -5 -4 -10 -10 -10 -5 0 -10 5 -10
10 0 6 5 10 10 10 6 0 10 -4 10 -10z m-260 -120 c0 -5 -4 -10 -10 -10 -5 0
-10 5 -10 10 0 6 5 10 10 10 6 0 10 -4 10 -10z m-74 -129 c-14 -50 -32 -40
-21 12 9 41 15 51 26 40 4 -4 2 -28 -5 -52z m51 27 c-3 -8 -6 -5 -6 6 -1 11 2
17 5 13 3 -3 4 -12 1 -19z"/>
<path d="M6360 9746 c0 -2 9 -6 20 -9 11 -3 18 -1 14 4 -5 9 -34 13 -34 5z"/>
<path d="M6770 9690 c0 -5 5 -10 11 -10 5 0 7 5 4 10 -3 6 -8 10 -11 10 -2 0
-4 -4 -4 -10z"/>
<path d="M4816 9681 c-4 -5 -2 -12 3 -15 5 -4 12 -2 15 3 4 5 2 12 -3 15 -5 4
-12 2 -15 -3z"/>
<path d="M6775 9650 c-4 -6 -10 -8 -15 -5 -5 3 -12 0 -16 -6 -3 -6 -1 -15 6
-19 6 -4 11 -10 11 -14 -1 -3 2 -5 6 -3 4 1 6 10 5 20 -2 10 3 17 12 17 9 0
16 -4 16 -10 0 -5 7 -10 15 -10 8 0 15 5 15 10 0 6 -7 10 -15 10 -8 0 -15 5
-15 10 0 13 -17 13 -25 0z"/>
<path d="M6140 9644 c0 -3 11 -20 25 -38 14 -18 25 -38 25 -45 0 -7 5 -9 11
-6 18 12 68 -15 62 -33 -5 -12 -2 -14 12 -9 9 4 23 4 29 -1 6 -5 39 -19 74
-32 34 -12 66 -28 70 -35 4 -7 24 -23 45 -35 60 -36 93 -6 42 39 -14 12 -31
19 -37 15 -8 -5 -9 -2 -5 9 3 10 2 17 -3 17 -5 0 -24 13 -42 28 -18 16 -46 32
-62 36 -16 4 -42 20 -58 36 -16 16 -52 36 -80 45 -52 15 -108 20 -108 9z"/>
<path d="M5715 9629 c-12 -19 5 -23 22 -6 16 16 16 17 1 17 -9 0 -20 -5 -23
-11z"/>
<path d="M5770 9590 c0 -5 7 -10 15 -10 8 0 15 5 15 10 0 6 -7 10 -15 10 -8 0
-15 -4 -15 -10z"/>
<path d="M5997 9563 c3 -6 11 -9 19 -6 20 7 17 19 -5 19 -11 0 -17 -6 -14 -13z"/>
<path d="M6080 9549 c0 -5 5 -7 10 -4 6 3 10 8 10 11 0 2 -4 4 -10 4 -5 0 -10
-5 -10 -11z"/>
<path d="M5840 9502 c0 -4 9 -13 20 -20 19 -12 20 -11 8 8 -13 20 -28 27 -28
12z"/>
<path d="M6550 9487 c-22 -23 -10 -38 14 -18 7 6 21 9 30 5 12 -4 15 -2 10 9
-9 26 -33 28 -54 4z"/>
<path d="M6686 9501 c-4 -7 -5 -15 -2 -18 9 -9 19 4 14 18 -4 11 -6 11 -12 0z"/>
<path d="M7080 9500 c-12 -8 -12 -10 3 -16 21 -8 35 2 21 16 -5 5 -15 6 -24 0z"/>
<path d="M6710 9469 c0 -5 9 -9 20 -9 11 0 20 2 20 4 0 2 -9 6 -20 9 -11 3
-20 1 -20 -4z"/>
<path d="M6962 9455 c-25 -18 -30 -48 -6 -43 8 2 14 7 14 12 -1 5 4 12 10 16
7 4 11 13 9 19 -3 8 -11 6 -27 -4z"/>
<path d="M6910 9450 c0 -5 5 -10 10 -10 6 0 10 5 10 10 0 6 -4 10 -10 10 -5 0
-10 -4 -10 -10z"/>
<path d="M7012 9429 c2 -7 10 -15 17 -17 8 -3 12 1 9 9 -2 7 -10 15 -17 17 -8
3 -12 -1 -9 -9z"/>
<path d="M6770 9424 c0 -11 53 -53 61 -48 14 8 12 10 -26 33 -19 11 -35 18
-35 15z"/>
<path d="M7110 9405 c0 -9 5 -15 11 -13 6 2 11 8 11 13 0 5 -5 11 -11 13 -6 2
-11 -4 -11 -13z"/>
<path d="M6958 9393 c-30 -7 -20 -29 13 -31 39 -3 49 -9 43 -25 -2 -7 4 -21
14 -30 17 -15 18 -15 17 8 0 25 -43 85 -60 83 -5 0 -18 -2 -27 -5z"/>
<path d="M6450 9366 c0 -2 7 -9 15 -16 9 -7 15 -8 15 -2 0 5 -7 12 -15 16 -8
3 -15 4 -15 2z"/>
<path d="M6250 9350 c0 -5 7 -10 15 -10 8 0 15 5 15 10 0 6 -7 10 -15 10 -8 0
-15 -4 -15 -10z"/>
<path d="M7060 9350 c0 -5 7 -10 15 -10 8 0 15 5 15 10 0 6 -7 10 -15 10 -8 0
-15 -4 -15 -10z"/>
<path d="M6530 9340 c0 -5 7 -10 15 -10 8 0 15 5 15 10 0 6 -7 10 -15 10 -8 0
-15 -4 -15 -10z"/>
<path d="M6906 9342 c-3 -5 1 -18 9 -28 8 -10 15 -26 15 -35 0 -9 12 -28 26
-42 14 -14 24 -30 21 -34 -12 -20 13 -53 40 -54 l28 -1 -29 -7 c-41 -9 -44
-28 -4 -33 29 -3 33 -1 35 22 1 14 8 38 17 54 8 16 12 35 9 42 -3 8 0 14 6 14
6 0 2 9 -9 20 -24 24 -44 17 -34 -12 4 -15 2 -19 -7 -16 -8 3 -16 20 -19 39
-3 22 -11 35 -22 37 -10 2 -18 -1 -18 -7 0 -24 -29 -9 -32 16 -3 27 -22 42
-32 25z"/>
<path d="M5760 9330 c0 -7 24 -20 36 -20 13 0 1 19 -16 23 -11 3 -20 2 -20 -3z"/>
<path d="M7091 9304 c-13 -30 -14 -29 16 -38 28 -9 35 5 20 38 -15 33 -21 33
-36 0z"/>
<path d="M6915 9220 c3 -5 8 -10 11 -10 2 0 4 5 4 10 0 6 -5 10 -11 10 -5 0
-7 -4 -4 -10z"/>
<path d="M7195 9220 c-3 -5 -1 -10 4 -10 6 0 11 5 11 10 0 6 -2 10 -4 10 -3 0
-8 -4 -11 -10z"/>
<path d="M6819 9219 c-10 -51 -10 -52 8 -38 10 7 19 14 21 15 1 1 -4 7 -13 14
-8 7 -15 11 -16 9z"/>
<path d="M6920 9155 c0 -8 7 -15 15 -15 8 0 15 7 15 15 0 8 -7 15 -15 15 -8 0
-15 -7 -15 -15z"/>
<path d="M7220 9130 c0 -5 5 -10 10 -10 6 0 10 5 10 10 0 6 -4 10 -10 10 -5 0
-10 -4 -10 -10z"/>
<path d="M5105 9071 c3 -5 1 -20 -4 -33 -6 -13 -15 -48 -21 -79 -6 -31 -17
-65 -25 -75 -14 -18 -14 -17 -9 12 4 18 1 34 -5 38 -6 4 -12 -3 -15 -16 -12
-63 -24 -115 -30 -130 -7 -14 0 -16 56 -11 54 4 67 9 89 35 39 43 62 208 29
208 -4 0 -10 14 -13 30 -5 24 -12 30 -32 30 -15 0 -24 -4 -20 -9z"/>
<path d="M4645 8880 c3 -6 -5 -14 -19 -20 -16 -6 -28 -20 -32 -37 -4 -15 -11
-34 -17 -40 -6 -9 -6 -13 2 -13 20 0 12 -18 -11 -24 -22 -5 -22 -6 -6 -23 16
-16 18 -16 37 1 23 21 33 64 20 88 -7 14 -6 18 5 18 9 0 22 14 31 30 14 27 14
30 0 30 -9 0 -13 -5 -10 -10z"/>
<path d="M4935 8844 c-11 -14 -29 -30 -40 -34 -27 -10 -31 -50 -5 -50 53 0
100 53 84 95 -8 21 -16 19 -39 -11z"/>
<path d="M4490 8734 c0 -8 5 -12 10 -9 6 3 10 10 10 16 0 5 -4 9 -10 9 -5 0
-10 -7 -10 -16z"/>
<path d="M4680 8680 c0 -5 5 -10 10 -10 6 0 10 5 10 10 0 6 -4 10 -10 10 -5 0
-10 -4 -10 -10z"/>
<path d="M4236 8594 c-3 -9 -6 -23 -6 -32 1 -12 5 -10 15 8 8 14 14 28 15 33
0 13 -18 7 -24 -9z"/>
<path d="M4610 8594 c0 -8 5 -12 10 -9 6 3 10 10 10 16 0 5 -4 9 -10 9 -5 0
-10 -7 -10 -16z"/>
<path d="M5450 8590 c0 -5 5 -10 10 -10 6 0 10 5 10 10 0 6 -4 10 -10 10 -5 0
-10 -4 -10 -10z"/>
<path d="M5250 8580 c0 -5 7 -7 15 -4 8 4 15 8 15 10 0 2 -7 4 -15 4 -8 0 -15
-4 -15 -10z"/>
<path d="M4523 8560 c-3 -11 -10 -20 -15 -20 -23 0 -86 -63 -92 -92 -4 -21
-10 -28 -21 -25 -23 10 -28 -9 -30 -125 -1 -67 -6 -113 -13 -117 -7 -4 -9 -25
-7 -50 5 -43 4 -43 -15 -26 -20 18 -20 18 -14 -28 4 -29 2 -58 -6 -76 -10 -25
-9 -38 3 -76 13 -37 13 -45 2 -45 -7 0 -16 6 -18 13 -3 6 -4 -3 -2 -22 1 -18
-4 -45 -11 -60 -19 -37 -19 -57 1 -41 8 7 15 21 15 31 0 9 8 25 18 35 16 17
17 16 22 -11 5 -28 5 -28 38 24 17 29 32 59 32 67 0 7 11 53 25 100 27 94 31
141 14 194 -24 79 -38 170 -29 199 14 52 42 89 69 94 27 6 100 56 101 70 0 4
-14 7 -31 7 -22 0 -32 -5 -36 -20z"/>
<path d="M4137 8503 c-4 -3 -7 -11 -7 -17 0 -6 5 -5 12 2 6 6 9 14 7 17 -3 3
-9 2 -12 -2z"/>
<path d="M3923 8361 c-331 -292 -595 -651 -790 -1076 -91 -198 -175 -472 -217
-705 -40 -224 -49 -326 -49 -565 -1 -251 12 -391 54 -605 74 -374 207 -717
406 -1045 74 -122 224 -325 239 -325 7 0 15 -8 19 -19 11 -34 152 -190 290
-320 115 -108 377 -311 401 -311 13 0 20 27 15 60 -7 49 1 186 14 241 l15 64
-28 20 c-50 37 -256 222 -313 281 -238 249 -403 496 -554 829 -70 153 -172
496 -190 635 -5 40 -4 43 9 27 7 -9 17 -41 20 -69 10 -76 71 -297 117 -423 86
-237 228 -501 378 -705 115 -157 331 -383 484 -508 l77 -64 22 49 c11 26 24
50 28 53 4 3 11 16 15 30 12 39 66 130 77 130 5 0 6 5 3 11 -4 6 0 29 9 52 8
23 27 99 41 169 34 173 73 258 187 406 l49 63 -64 72 c-99 112 -143 172 -211
287 -153 257 -231 518 -251 840 -15 242 56 596 164 820 l31 64 -24 21 c-42 36
-64 80 -86 168 -12 47 -20 92 -19 99 2 7 -24 65 -56 128 -56 109 -59 119 -62
200 -3 86 8 130 33 130 10 0 21 -52 24 -122 1 -23 32 -23 53 0 15 16 14 21 -4
62 -69 157 -72 161 -95 156 -12 -3 -35 -1 -52 5 -22 8 -37 7 -53 -1 -21 -12
-22 -11 -15 21 7 35 48 85 78 95 23 7 23 18 -1 68 -10 23 -27 68 -37 101 -9
33 -20 64 -24 68 -8 9 -167 -158 -250 -263 -77 -96 -159 -214 -217 -310 -117
-195 -256 -506 -232 -520 6 -4 8 -13 5 -19 -4 -6 -12 -9 -17 -6 -9 6 -13 -8
-10 -33 1 -8 -4 -21 -12 -30 -8 -10 -17 -28 -20 -42 -3 -14 -17 -65 -30 -115
-76 -279 -101 -645 -66 -982 5 -51 9 -97 9 -103 0 -15 -17 -12 -17 3 -1 6 -7
46 -14 87 -8 47 -13 166 -13 320 0 233 4 286 39 493 3 17 1 26 -5 22 -6 -3
-10 1 -10 10 0 9 4 14 9 11 11 -7 23 22 15 36 -4 5 -2 20 4 31 5 12 16 47 25
77 147 526 363 913 709 1276 l87 91 -26 74 c-22 62 -26 92 -27 186 -1 62 -4
113 -8 113 -5 0 -43 -31 -85 -69z m172 -521 c-3 -5 -11 -10 -16 -10 -6 0 -7 5
-4 10 3 6 11 10 16 10 6 0 7 -4 4 -10z m-45 -39 c0 -5 -7 -11 -15 -15 -15 -5
-20 5 -8 17 9 10 23 9 23 -2z m-55 -51 c-3 -5 -11 -10 -16 -10 -6 0 -7 5 -4
10 3 6 11 10 16 10 6 0 7 -4 4 -10z m-50 -50 c-3 -5 -11 -10 -16 -10 -6 0 -7
5 -4 10 3 6 11 10 16 10 6 0 7 -4 4 -10z m-50 -49 c-3 -6 -11 -11 -17 -11 -6
0 -6 6 2 15 14 17 26 13 15 -4z m135 -11 c0 -5 -5 -10 -11 -10 -5 0 -7 5 -4
10 3 6 8 10 11 10 2 0 4 -4 4 -10z m-180 -40 c0 -5 -7 -10 -16 -10 -8 0 -12 5
-9 10 3 6 10 10 16 10 5 0 9 -4 9 -10z m132 -22 c-7 -7 -12 -8 -12 -2 0 14 12
26 19 19 2 -3 -1 -11 -7 -17z m-177 -27 c-3 -6 -11 -11 -17 -11 -6 0 -6 6 2
15 14 17 26 13 15 -4z m145 -15 c0 -3 -4 -8 -10 -11 -5 -3 -10 -1 -10 4 0 6 5
11 10 11 6 0 10 -2 10 -4z m-190 -35 c0 -6 -4 -13 -10 -16 -5 -3 -10 1 -10 9
0 9 5 16 10 16 6 0 10 -4 10 -9z m150 -25 c0 -3 -4 -8 -10 -11 -5 -3 -10 -1
-10 4 0 6 5 11 10 11 6 0 10 -2 10 -4z m-198 -38 c-7 -7 -12 -8 -12 -2 0 14
12 26 19 19 2 -3 -1 -11 -7 -17z m158 -17 c0 -6 -4 -13 -10 -16 -5 -3 -10 1
-10 9 0 9 5 16 10 16 6 0 10 -4 10 -9z m300 -12 c0 -6 -4 -7 -10 -4 -5 3 -10
11 -10 16 0 6 5 7 10 4 6 -3 10 -11 10 -16z m-490 -13 c0 -3 -4 -8 -10 -11 -5
-3 -10 -1 -10 4 0 6 5 11 10 11 6 0 10 -2 10 -4z m-42 -58 c-2 -6 -10 -14 -16
-16 -7 -2 -10 2 -6 12 7 18 28 22 22 4z m149 -40 c-3 -8 -6 -5 -6 6 -1 11 2
17 5 13 3 -3 4 -12 1 -19z m-193 -23 c-4 -8 -10 -12 -15 -9 -11 6 -2 24 11 24
5 0 7 -7 4 -15z m166 -29 c0 -3 -4 -8 -10 -11 -5 -3 -10 -1 -10 4 0 6 5 11 10
11 6 0 10 -2 10 -4z m-204 -33 c-10 -10 -19 5 -10 18 6 11 8 11 12 0 2 -7 1
-15 -2 -18z m169 -22 c3 -5 1 -12 -5 -16 -5 -3 -10 1 -10 9 0 18 6 21 15 7z
m-209 -38 c-10 -10 -19 5 -10 18 6 11 8 11 12 0 2 -7 1 -15 -2 -18z m184 -27
c0 -3 -4 -8 -10 -11 -5 -3 -10 -1 -10 4 0 6 5 11 10 11 6 0 10 -2 10 -4z
m-215 -25 c-3 -6 -11 -11 -17 -11 -6 0 -6 6 2 15 14 17 26 13 15 -4z m185 -35
c0 -3 -4 -8 -10 -11 -5 -3 -10 -1 -10 4 0 6 5 11 10 11 6 0 10 -2 10 -4z
m-220 -21 c0 -8 -4 -15 -10 -15 -5 0 -7 7 -4 15 4 8 8 15 10 15 2 0 4 -7 4
-15z m182 -57 c-7 -7 -12 -8 -12 -2 0 14 12 26 19 19 2 -3 -1 -11 -7 -17z
m-216 -15 c-10 -10 -19 5 -10 18 6 11 8 11 12 0 2 -7 1 -15 -2 -18z m185 -46
c-10 -9 -11 -8 -5 6 3 10 9 15 12 12 3 -3 0 -11 -7 -18z m-11 -57 c0 -5 -4
-10 -10 -10 -5 0 -10 5 -10 10 0 6 5 10 10 10 6 0 10 -4 10 -10z m-59 -143
c-10 -9 -11 -8 -5 6 3 10 9 15 12 12 3 -3 0 -11 -7 -18z m-26 -116 c3 -5 1
-12 -5 -16 -5 -3 -10 1 -10 9 0 18 6 21 15 7z m-285 -135 c0 -3 -4 -8 -10 -11
-5 -3 -10 -1 -10 4 0 6 5 11 10 11 6 0 10 -2 10 -4z m260 -6 c0 -5 -4 -10 -10
-10 -5 0 -10 5 -10 10 0 6 5 10 10 10 6 0 10 -4 10 -10z m-23 -72 c-3 -8 -6
-5 -6 6 -1 11 2 17 5 13 3 -3 4 -12 1 -19z m-257 8 c0 -3 -4 -8 -10 -11 -5 -3
-10 -1 -10 4 0 6 5 11 10 11 6 0 10 -2 10 -4z m-20 -65 c0 -6 -4 -13 -10 -16
-5 -3 -10 1 -10 9 0 9 5 16 10 16 6 0 10 -4 10 -9z m267 -13 c-3 -8 -6 -5 -6
6 -1 11 2 17 5 13 3 -3 4 -12 1 -19z m-290 -60 c-3 -8 -6 -5 -6 6 -1 11 2 17
5 13 3 -3 4 -12 1 -19z m-11 -75 c-10 -10 -19 5 -10 18 6 11 8 11 12 0 2 -7 1
-15 -2 -18z m294 7 c0 -5 -4 -10 -10 -10 -5 0 -10 5 -10 10 0 6 5 10 10 10 6
0 10 -4 10 -10z m-313 -72 c-3 -8 -6 -5 -6 6 -1 11 2 17 5 13 3 -3 4 -12 1
-19z m313 8 c0 -3 -4 -8 -10 -11 -5 -3 -10 -1 -10 4 0 6 5 11 10 11 6 0 10 -2
10 -4z m-316 -71 c-4 -8 -8 -15 -10 -15 -2 0 -4 7 -4 15 0 8 4 15 10 15 5 0 7
-7 4 -15z m306 -5 c0 -5 -4 -10 -10 -10 -5 0 -10 5 -10 10 0 6 5 10 10 10 6 0
10 -4 10 -10z m-102 -50 c0 -16 -4 -30 -9 -30 -5 0 -9 16 -9 36 0 42 17 38 18
-6z m-212 -17 c-10 -10 -19 5 -10 18 6 11 8 11 12 0 2 -7 1 -15 -2 -18z m306
-23 c-2 -16 -6 -30 -8 -30 -2 0 -4 14 -4 30 0 17 4 30 8 30 5 0 7 -13 4 -30z
m258 -21 c0 -5 -4 -9 -10 -9 -5 0 -10 7 -10 16 0 8 5 12 10 9 6 -3 10 -10 10
-16z m-570 -19 c0 -5 -4 -10 -10 -10 -5 0 -10 5 -10 10 0 6 5 10 10 10 6 0 10
-4 10 -10z m-5 -59 c3 -5 1 -12 -5 -16 -5 -3 -10 1 -10 9 0 18 6 21 15 7z
m330 -50 c3 -5 1 -12 -5 -16 -5 -3 -10 1 -10 9 0 18 6 21 15 7z m-335 -27 c0
-8 -4 -12 -10 -9 -5 3 -10 10 -10 16 0 5 5 9 10 9 6 0 10 -7 10 -16z m340 -44
c0 -5 -4 -10 -10 -10 -5 0 -10 5 -10 10 0 6 5 10 10 10 6 0 10 -4 10 -10z
m-345 -19 c3 -5 1 -12 -5 -16 -5 -3 -10 1 -10 9 0 18 6 21 15 7z m355 -51 c0
-5 -4 -10 -10 -10 -5 0 -10 5 -10 10 0 6 5 10 10 10 6 0 10 -4 10 -10z m-363
-32 c-3 -8 -6 -5 -6 6 -1 11 2 17 5 13 3 -3 4 -12 1 -19z m0 -70 c-3 -8 -6 -5
-6 6 -1 11 2 17 5 13 3 -3 4 -12 1 -19z m378 -27 c3 -5 1 -12 -5 -16 -5 -3
-10 1 -10 9 0 18 6 21 15 7z m-365 -36 c0 -8 -4 -15 -10 -15 -5 0 -10 7 -10
15 0 8 5 15 10 15 6 0 10 -7 10 -15z m380 -41 c0 -8 -4 -12 -10 -9 -5 3 -10
10 -10 16 0 5 5 9 10 9 6 0 10 -7 10 -16z m7 -76 c-3 -8 -6 -5 -6 6 -1 11 2
17 5 13 3 -3 4 -12 1 -19z m-377 -23 c0 -8 -4 -15 -10 -15 -5 0 -10 7 -10 15
0 8 5 15 10 15 6 0 10 -7 10 -15z m400 -36 c0 -5 -4 -9 -10 -9 -5 0 -10 7 -10
16 0 8 5 12 10 9 6 -3 10 -10 10 -16z m-390 -29 c0 -5 -4 -10 -10 -10 -5 0
-10 5 -10 10 0 6 5 10 10 10 6 0 10 -4 10 -10z m404 -36 c3 -8 2 -12 -4 -9 -6
3 -10 10 -10 16 0 14 7 11 14 -7z m26 -64 c0 -5 -4 -10 -10 -10 -5 0 -10 5
-10 10 0 6 5 10 10 10 6 0 10 -4 10 -10z m815 -20 c3 -5 1 -10 -4 -10 -6 0
-11 5 -11 10 0 6 2 10 4 10 3 0 8 -4 11 -10z m-1238 -22 c-3 -8 -6 -5 -6 6 -1
11 2 17 5 13 3 -3 4 -12 1 -19z m438 -18 c3 -5 1 -10 -4 -10 -6 0 -11 5 -11
10 0 6 2 10 4 10 3 0 8 -4 11 -10z m-415 -51 c0 -5 -4 -9 -10 -9 -5 0 -10 7
-10 16 0 8 5 12 10 9 6 -3 10 -10 10 -16z m440 -19 c0 -5 -4 -10 -10 -10 -5 0
-10 5 -10 10 0 6 5 10 10 10 6 0 10 -4 10 -10z m-430 -46 c0 -8 -4 -12 -10 -9
-5 3 -10 10 -10 16 0 5 5 9 10 9 6 0 10 -7 10 -16z m460 -25 c0 -5 -4 -9 -10
-9 -5 0 -10 7 -10 16 0 8 5 12 10 9 6 -3 10 -10 10 -16z m-445 -39 c3 -5 1
-10 -4 -10 -6 0 -11 5 -11 10 0 6 2 10 4 10 3 0 8 -4 11 -10z m465 -20 c0 -5
-2 -10 -4 -10 -3 0 -8 5 -11 10 -3 6 -1 10 4 10 6 0 11 -4 11 -10z m-450 -46
c0 -8 -5 -12 -10 -9 -6 4 -8 11 -5 16 9 14 15 11 15 -7z m480 -20 c0 -8 -4
-12 -10 -9 -5 3 -10 10 -10 16 0 5 5 9 10 9 6 0 10 -7 10 -16z m-460 -55 c0
-6 -4 -7 -10 -4 -5 3 -10 11 -10 16 0 6 5 7 10 4 6 -3 10 -11 10 -16z m490 -5
c0 -8 -4 -12 -10 -9 -5 3 -10 10 -10 16 0 5 5 9 10 9 6 0 10 -7 10 -16z m-470
-60 c0 -8 -4 -12 -10 -9 -5 3 -10 10 -10 16 0 5 5 9 10 9 6 0 10 -7 10 -16z
m500 6 c0 -5 -4 -10 -10 -10 -5 0 -10 5 -10 10 0 6 5 10 10 10 6 0 10 -4 10
-10z m-480 -71 c0 -6 -4 -7 -10 -4 -5 3 -10 11 -10 16 0 6 5 7 10 4 6 -3 10
-11 10 -16z m518 3 c6 -18 -15 -14 -22 4 -4 10 -1 14 6 12 6 -2 14 -10 16 -16z
m32 -52 c0 -5 -4 -10 -10 -10 -5 0 -10 5 -10 10 0 6 5 10 10 10 6 0 10 -4 10
-10z m35 -60 c3 -5 2 -10 -4 -10 -5 0 -13 5 -16 10 -3 6 -2 10 4 10 5 0 13 -4
16 -10z m-535 -16 c0 -8 -4 -12 -10 -9 -5 3 -10 10 -10 16 0 5 5 9 10 9 6 0
10 -7 10 -16z m576 -51 c-7 -7 -26 7 -26 19 0 6 6 6 15 -2 9 -7 13 -15 11 -17z
m-546 -13 c0 -5 -4 -10 -10 -10 -5 0 -10 5 -10 10 0 6 5 10 10 10 6 0 10 -4
10 -10z m575 -30 c3 -5 1 -10 -4 -10 -6 0 -11 5 -11 10 0 6 2 10 4 10 3 0 8
-4 11 -10z m-551 -42 c-4 -6 -10 -5 -15 3 -14 22 -10 33 6 19 8 -7 12 -17 9
-22z m601 -18 c3 -5 2 -10 -4 -10 -5 0 -13 5 -16 10 -3 6 -2 10 4 10 5 0 13
-4 16 -10z m-575 -36 c0 -8 -4 -12 -10 -9 -5 3 -10 10 -10 16 0 5 5 9 10 9 6
0 10 -7 10 -16z m615 -15 c11 -17 -1 -21 -15 -4 -8 9 -8 15 -2 15 6 0 14 -5
17 -11z m-585 -45 c0 -8 -4 -12 -10 -9 -5 3 -10 10 -10 16 0 5 5 9 10 9 6 0
10 -7 10 -16z m630 -15 c0 -6 -4 -7 -10 -4 -5 3 -10 11 -10 16 0 6 5 7 10 4 6
-3 10 -11 10 -16z m390 -9 c0 -5 -4 -10 -10 -10 -5 0 -10 5 -10 10 0 6 5 10
10 10 6 0 10 -4 10 -10z m-990 -41 c0 -6 -4 -7 -10 -4 -5 3 -10 11 -10 16 0 6
5 7 10 4 6 -3 10 -11 10 -16z m645 1 c3 -5 2 -10 -4 -10 -5 0 -13 5 -16 10 -3
6 -2 10 4 10 5 0 13 -4 16 -10z m-607 -58 c6 -18 -15 -14 -22 4 -4 10 -1 14 6
12 6 -2 14 -10 16 -16z m652 8 c0 -5 -2 -10 -4 -10 -3 0 -8 5 -11 10 -3 6 -1
10 4 10 6 0 11 -4 11 -10z m45 -50 c3 -5 1 -10 -4 -10 -6 0 -11 5 -11 10 0 6
2 10 4 10 3 0 8 -4 11 -10z m-665 -16 c0 -8 -4 -12 -10 -9 -5 3 -10 10 -10 16
0 5 5 9 10 9 6 0 10 -7 10 -16z m715 -34 c3 -5 1 -10 -4 -10 -6 0 -11 5 -11
10 0 6 2 10 4 10 3 0 8 -4 11 -10z m-680 -20 c3 -5 1 -10 -4 -10 -6 0 -11 5
-11 10 0 6 2 10 4 10 3 0 8 -4 11 -10z m730 -28 c-3 -3 -11 0 -18 7 -9 10 -8
11 6 5 10 -3 15 -9 12 -12z m55 -42 c0 -5 -4 -10 -10 -10 -5 0 -10 5 -10 10 0
6 5 10 10 10 6 0 10 -4 10 -10z m45 -40 c3 -5 1 -10 -4 -10 -6 0 -11 5 -11 10
0 6 2 10 4 10 3 0 8 -4 11 -10z"/>
<path d="M4163 8375 c-8 -22 6 -33 17 -15 13 20 12 30 0 30 -6 0 -13 -7 -17
-15z"/>
<path d="M5375 8380 c-3 -5 1 -10 9 -10 9 0 16 5 16 10 0 6 -4 10 -9 10 -6 0
-13 -4 -16 -10z"/>
<path d="M4483 8372 c-13 -8 -17 -38 -14 -97 l2 -40 14 50 c8 28 17 60 21 73
6 22 -2 28 -23 14z"/>
<path d="M5261 8336 c-15 -8 -20 -16 -13 -20 12 -7 52 13 52 26 0 11 -11 9
-39 -6z"/>
<path d="M5190 8291 c0 -5 7 -12 16 -15 22 -9 24 -8 24 9 0 8 -9 15 -20 15
-11 0 -20 -4 -20 -9z"/>
<path d="M4074 8155 c-3 -8 -4 -20 -2 -27 3 -7 7 -1 10 15 6 29 1 36 -8 12z"/>
<path d="M4187 7937 c-11 -29 -9 -53 4 -40 6 6 9 21 7 34 -3 21 -4 22 -11 6z"/>
<path d="M4560 7626 c0 -8 5 -18 10 -21 6 -3 10 3 10 14 0 12 -4 21 -10 21 -5
0 -10 -6 -10 -14z"/>
<path d="M4298 7396 c-28 -26 -37 -43 -42 -82 -6 -43 -3 -58 23 -114 17 -36
31 -72 31 -79 0 -11 3 -12 11 -4 8 8 20 6 43 -8 29 -18 76 -26 76 -13 0 3 -13
26 -30 51 -33 49 -40 118 -18 180 11 31 10 34 -23 67 l-35 35 -36 -33z"/>
<path d="M4399 6733 c-85 -187 -141 -419 -144 -595 -2 -64 -6 -121 -10 -128
-4 -6 -2 -16 3 -23 5 -7 8 -39 7 -72 -2 -33 0 -64 3 -70 4 -5 7 -35 9 -65 2
-55 22 -161 42 -232 6 -21 15 -53 20 -70 23 -82 67 -192 107 -268 40 -77 35
-75 95 -40 30 18 55 33 57 35 1 1 -17 43 -40 92 -53 111 -60 129 -91 228 -106
340 -98 697 22 1034 21 59 46 121 55 139 15 29 15 37 4 63 -13 28 -28 39 -28
19 0 -5 -9 -10 -20 -10 -11 0 -20 -4 -20 -10 0 -5 -4 -10 -8 -10 -5 0 -8 10
-8 21 2 48 -25 29 -55 -38z m33 -45 c-7 -7 -12 -8 -12 -2 0 14 12 26 19 19 2
-3 -1 -11 -7 -17z m-30 -60 c-7 -7 -12 -8 -12 -2 0 14 12 26 19 19 2 -3 -1
-11 -7 -17z m-22 -58 c0 -5 -5 -10 -11 -10 -5 0 -7 5 -4 10 3 6 8 10 11 10 2
0 4 -4 4 -10z m-28 -72 c-7 -7 -12 -8 -12 -2 0 14 12 26 19 19 2 -3 -1 -11 -7
-17z m-36 -135 c-10 -10 -19 5 -10 18 6 11 8 11 12 0 2 -7 1 -15 -2 -18z m-19
-65 c-3 -8 -6 -5 -6 6 -1 11 2 17 5 13 3 -3 4 -12 1 -19z m-17 -128 c0 -5 -4
-10 -10 -10 -5 0 -10 5 -10 10 0 6 5 10 10 10 6 0 10 -4 10 -10z"/>
<path d="M4551 6682 c-47 -87 -109 -299 -132 -447 -17 -106 -17 -338 -1 -450
35 -238 126 -473 260 -673 54 -80 173 -224 191 -230 9 -3 110 99 185 188 39
45 47 61 45 90 -2 19 -6 40 -10 45 -5 6 -19 54 -32 105 -14 52 -44 163 -67
245 -23 83 -43 157 -45 165 -2 8 -8 29 -15 45 -6 17 -33 107 -60 200 -26 94
-58 188 -71 209 -18 31 -20 39 -8 47 13 8 12 10 -12 13 -20 2 -129 228 -179
371 -17 49 -33 91 -35 93 -2 2 -8 -5 -14 -16z m209 -1132 c0 -5 -2 -10 -4 -10
-3 0 -8 5 -11 10 -3 6 -1 10 4 10 6 0 11 -4 11 -10z m60 -210 c0 -5 -2 -10 -4
-10 -3 0 -8 5 -11 10 -3 6 -1 10 4 10 6 0 11 -4 11 -10z"/>
<path d="M4970 6070 c0 -5 7 -7 15 -4 8 4 15 8 15 10 0 2 -7 4 -15 4 -8 0 -15
-4 -15 -10z"/>
<path d="M5015 6070 c3 -5 8 -10 11 -10 2 0 4 5 4 10 0 6 -5 10 -11 10 -5 0
-7 -4 -4 -10z"/>
<path d="M5080 6050 c0 -5 5 -10 11 -10 5 0 7 5 4 10 -3 6 -8 10 -11 10 -2 0
-4 -4 -4 -10z"/>
<path d="M5116 6015 c4 -8 8 -15 10 -15 2 0 4 7 4 15 0 8 -4 15 -10 15 -5 0
-7 -7 -4 -15z"/>
<path d="M4925 6010 c3 -5 11 -10 16 -10 6 0 7 5 4 10 -3 6 -11 10 -16 10 -6
0 -7 -4 -4 -10z"/>
<path d="M5050 6005 c7 -8 17 -15 22 -15 6 0 5 7 -2 15 -7 8 -17 15 -22 15 -6
0 -5 -7 2 -15z"/>
<path d="M5093 5979 c4 -13 0 -19 -11 -19 -11 0 -13 -3 -5 -11 8 -8 17 -7 32
3 27 16 27 34 0 41 -17 5 -20 2 -16 -14z"/>
<path d="M4952 5981 c4 -13 18 -16 19 -4 0 4 -5 9 -11 12 -7 2 -11 -2 -8 -8z"/>
<path d="M4990 5970 c0 -5 5 -10 10 -10 6 0 10 5 10 10 0 6 -4 10 -10 10 -5 0
-10 -4 -10 -10z"/>
<path d="M4980 5936 c0 -20 42 -28 59 -11 12 12 11 13 -6 9 -12 -3 -24 -1 -27
5 -10 15 -26 14 -26 -3z"/>
<path d="M5132 5938 c6 -18 28 -21 28 -4 0 9 -7 16 -16 16 -9 0 -14 -5 -12
-12z"/>
<path d="M5000 5761 c0 -6 5 -13 10 -16 6 -3 10 1 10 9 0 9 -4 16 -10 16 -5 0
-10 -4 -10 -9z"/>
<path d="M5048 5673 c7 -3 16 -2 19 1 4 3 -2 6 -13 5 -11 0 -14 -3 -6 -6z"/>
<path d="M5040 5640 c0 -5 5 -10 11 -10 5 0 7 5 4 10 -3 6 -8 10 -11 10 -2 0
-4 -4 -4 -10z"/>
<path d="M5111 5341 c-14 -25 -14 -34 -1 -26 6 3 10 2 10 -4 0 -6 7 -8 15 -5
9 4 15 0 15 -10 0 -9 6 -16 14 -16 20 0 33 23 16 28 -8 3 -24 16 -36 29 -22
24 -23 24 -33 4z"/>
<path d="M4538 5152 c-27 -15 -48 -30 -48 -34 0 -27 145 -224 228 -311 l46
-47 47 46 47 46 -88 107 c-48 58 -104 132 -124 164 -20 31 -42 57 -49 57 -7 0
-33 -13 -59 -28z"/>
<path d="M5267 4743 c-4 -3 -7 -11 -7 -17 0 -6 5 -5 12 2 6 6 9 14 7 17 -3 3
-9 2 -12 -2z"/>
<path d="M5200 4705 c-14 -16 -10 -18 14 -9 9 3 16 10 16 15 0 14 -16 11 -30
-6z"/>
<path d="M5210 4561 c0 -12 26 -32 33 -25 9 10 -4 34 -19 34 -8 0 -14 -4 -14
-9z"/>
<path d="M5447 4473 c-4 -3 -7 -11 -7 -17 0 -6 5 -5 12 2 6 6 9 14 7 17 -3 3
-9 2 -12 -2z"/>
<path d="M5300 4389 c0 -5 5 -7 10 -4 6 3 10 8 10 11 0 2 -4 4 -10 4 -5 0 -10
-5 -10 -11z"/>
<path d="M7210 4280 c-8 -5 -12 -12 -9 -15 4 -3 12 1 19 10 14 17 11 19 -10 5z"/>
<path d="M6190 4266 c0 -8 4 -17 9 -20 5 -4 7 3 4 14 -6 23 -13 26 -13 6z"/>
<path d="M5310 4255 c0 -8 5 -15 10 -15 6 0 10 7 10 15 0 8 -4 15 -10 15 -5 0
-10 -7 -10 -15z"/>
<path d="M7155 4220 c-3 -5 1 -10 9 -10 9 0 16 5 16 10 0 6 -4 10 -9 10 -6 0
-13 -4 -16 -10z"/>
<path d="M6550 4190 c-13 -8 -12 -10 3 -10 9 0 17 5 17 10 0 12 -1 12 -20 0z"/>
<path d="M6127 4173 c-12 -11 -8 -23 8 -23 8 0 15 7 15 15 0 16 -12 20 -23 8z"/>
<path d="M7350 4158 c0 -4 9 -8 20 -8 11 0 20 4 20 9 0 6 -9 9 -20 8 -11 -1
-20 -5 -20 -9z"/>
<path d="M7164 4125 c8 -8 18 -15 22 -15 3 0 1 7 -6 15 -7 8 -17 15 -22 15 -5
0 -3 -7 6 -15z"/>
<path d="M7455 4070 c-10 -11 -24 -20 -31 -20 -7 0 -19 -8 -26 -19 -15 -22
-64 -25 -72 -5 -6 16 -46 19 -46 4 0 -5 -9 -10 -21 -10 -16 0 -19 -4 -14 -17
4 -10 9 -28 11 -41 4 -20 1 -23 -16 -17 -23 7 -28 -10 -5 -19 8 -3 15 -12 15
-20 0 -13 50 -30 50 -17 1 16 30 42 40 36 8 -5 8 -11 -1 -22 -10 -12 -10 -16
0 -23 8 -4 10 -13 7 -19 -9 -14 7 -14 21 0 6 6 16 8 23 4 8 -5 6 -11 -7 -21
-29 -22 -4 -16 28 7 26 18 29 18 29 4 0 -12 5 -15 16 -11 9 3 18 6 20 6 12 0
2 19 -11 22 -14 3 -14 6 1 26 l16 23 19 -20 c19 -20 19 -22 2 -53 -10 -18 -25
-33 -33 -33 -9 0 -14 -7 -12 -17 2 -10 -1 -18 -7 -18 -5 0 -17 -3 -26 -7 -14
-5 -16 -2 -10 15 4 13 2 22 -4 22 -6 0 -11 -6 -11 -14 0 -8 -8 -21 -17 -28
-10 -7 -18 -20 -18 -28 0 -9 -7 -14 -17 -12 -13 2 -18 -4 -18 -19 0 -16 5 -20
19 -16 14 3 18 1 14 -10 -3 -7 -8 -11 -11 -9 -3 3 -11 -2 -17 -11 -11 -15 -13
-15 -19 5 -5 14 -15 22 -29 22 -13 0 -17 -3 -11 -8 18 -11 26 -62 13 -78 -9
-11 -7 -14 15 -14 16 0 26 -6 26 -14 0 -8 7 -17 16 -20 23 -9 24 -8 24 13 0
13 -8 21 -22 23 -29 4 -39 47 -11 47 65 2 78 9 88 49 5 19 2 30 -10 38 -9 7
-14 17 -10 23 9 16 35 13 35 -3 0 -9 7 -12 21 -9 12 4 18 11 15 20 -4 10 -1
13 12 9 23 -7 87 25 87 44 0 8 7 23 16 33 10 10 14 28 11 47 -3 24 -9 30 -28
30 -13 0 -24 -6 -24 -12 0 -9 -4 -8 -10 2 -7 10 -10 11 -10 2 0 -10 -4 -10
-19 0 -16 10 -17 16 -9 32 9 17 11 18 20 3 11 -21 28 -22 28 -2 0 8 -4 15 -10
15 -5 0 -10 7 -10 15 0 13 -4 14 -20 5 -11 -6 -20 -19 -20 -30 0 -13 -5 -18
-15 -14 -10 4 -12 10 -7 18 5 6 12 23 16 39 3 15 11 27 17 27 6 0 9 -7 5 -15
-4 -12 -2 -13 13 -6 12 7 17 18 14 34 -4 20 -9 23 -30 19 -23 -4 -25 -2 -20
17 7 26 -4 27 -28 1z m5 -55 c0 -8 -11 -22 -25 -31 -23 -15 -26 -15 -42 1 -16
17 -16 17 6 10 17 -5 26 -2 37 14 18 25 24 26 24 6z m-150 -21 c0 -10 6 -14
15 -11 8 4 17 2 20 -3 4 -6 15 -10 26 -10 23 0 25 -25 2 -34 -10 -4 -23 1 -35
14 -23 24 -32 25 -52 4 -15 -14 -16 -14 -16 6 0 21 18 49 33 50 4 0 7 -7 7
-16z m128 -58 c-23 -17 -23 -26 -1 -26 13 0 14 -3 6 -11 -8 -8 -15 -8 -26 2
-13 12 -13 16 0 32 9 9 21 17 27 17 6 0 3 -7 -6 -14z m132 -61 c0 -8 0 -18 0
-22 0 -5 -4 -8 -9 -8 -5 0 -13 -3 -17 -7 -13 -14 -23 -8 -17 10 14 38 43 57
43 27z m-65 -85 c3 -5 -1 -10 -10 -10 -9 0 -13 5 -10 10 3 6 8 10 10 10 2 0 7
-4 10 -10z"/>
<path d="M7770 4050 c0 -5 5 -10 10 -10 6 0 10 5 10 10 0 6 -4 10 -10 10 -5 0
-10 -4 -10 -10z"/>
<path d="M5827 4043 c-13 -12 -7 -23 13 -23 11 0 20 7 20 15 0 15 -21 21 -33
8z"/>
<path d="M5910 4010 c0 -5 5 -10 10 -10 6 0 10 5 10 10 0 6 -4 10 -10 10 -5 0
-10 -4 -10 -10z"/>
<path d="M7105 4000 c3 -5 10 -10 16 -10 5 0 9 5 9 10 0 6 -7 10 -16 10 -8 0
-12 -4 -9 -10z"/>
<path d="M5933 3974 c-12 -13 -18 -26 -13 -29 9 -5 60 36 60 49 0 13 -26 3
-47 -20z"/>
<path d="M7073 3969 c-17 -17 -3 -51 18 -46 10 3 20 0 22 -6 4 -12 47 -21 47
-9 0 4 -15 14 -33 23 -18 9 -31 23 -31 33 2 19 -7 21 -23 5z"/>
<path d="M7160 3960 c0 -5 5 -10 10 -10 6 0 10 5 10 10 0 6 -4 10 -10 10 -5 0
-10 -4 -10 -10z"/>
<path d="M7692 3930 c-15 -50 -15 -80 0 -80 6 0 3 -6 -8 -14 -15 -12 -17 -17
-6 -27 10 -11 12 -10 12 4 0 10 6 20 14 23 11 4 13 12 6 30 -8 19 -6 26 6 31
9 3 14 15 12 31 -2 14 3 27 10 29 6 3 12 -2 12 -11 0 -9 4 -16 9 -16 5 0 7 9
4 20 -4 14 -14 20 -32 20 -22 0 -28 -7 -39 -40z"/>
<path d="M7190 3875 c0 -8 6 -15 14 -15 7 0 19 7 26 15 11 13 8 15 -14 15 -16
0 -26 -5 -26 -15z"/>
<path d="M7295 3860 c-3 -5 -1 -10 4 -10 6 0 11 5 11 10 0 6 -2 10 -4 10 -3 0
-8 -4 -11 -10z"/>
<path d="M7656 3853 c-6 -14 -5 -15 5 -6 7 7 10 15 7 18 -3 3 -9 -2 -12 -12z"/>
<path d="M7225 3850 c-11 -5 -15 -9 -9 -9 6 -1 17 -12 24 -26 15 -27 50 -34
50 -10 0 8 -6 14 -12 13 -7 -2 -14 7 -16 20 -4 24 -7 25 -37 12z"/>
<path d="M7167 3835 c6 -17 25 -15 31 3 2 7 -5 12 -17 12 -14 0 -19 -5 -14
-15z"/>
<path d="M7310 3807 c0 -7 5 -18 12 -25 9 -9 5 -12 -17 -13 l-30 -1 34 -9 c37
-11 51 -5 33 13 -7 7 -12 20 -12 30 0 10 -4 18 -10 18 -5 0 -10 -6 -10 -13z"/>
<path d="M4360 3789 c0 -5 5 -7 10 -4 6 3 10 8 10 11 0 2 -4 4 -10 4 -5 0 -10
-5 -10 -11z"/>
<path d="M7195 3790 c3 -5 8 -10 11 -10 2 0 4 5 4 10 0 6 -5 10 -11 10 -5 0
-7 -4 -4 -10z"/>
<path d="M4445 3760 c3 -5 8 -10 11 -10 2 0 4 5 4 10 0 6 -5 10 -11 10 -5 0
-7 -4 -4 -10z"/>
<path d="M6520 3754 c0 -8 5 -12 10 -9 6 4 8 11 5 16 -9 14 -15 11 -15 -7z"/>
<path d="M5726 3710 c19 -37 32 -39 32 -4 0 17 -5 24 -14 20 -8 -3 -14 -1 -14
4 0 6 -4 10 -9 10 -5 0 -3 -13 5 -30z"/>
<path d="M7500 3725 c0 -8 7 -15 15 -15 8 0 15 7 15 15 0 8 -7 15 -15 15 -8 0
-15 -7 -15 -15z"/>
<path d="M6974 3715 c-10 -8 -14 -15 -7 -15 19 0 43 11 43 21 0 13 -14 11 -36
-6z"/>
<path d="M7230 3716 c0 -9 -7 -16 -15 -16 -8 0 -15 -8 -15 -18 0 -10 -5 -23
-10 -28 -7 -7 -4 -16 9 -28 19 -17 19 -20 4 -43 -12 -18 -13 -27 -4 -36 8 -8
11 -8 11 1 0 6 10 11 22 9 17 -1 24 4 26 22 3 19 0 23 -14 17 -13 -5 -14 -4
-6 7 9 10 9 16 0 25 -8 8 -8 15 0 25 7 8 9 17 5 20 -3 4 5 15 18 26 13 11 19
20 12 21 -6 0 -18 3 -27 6 -11 4 -16 1 -16 -10z"/>
<path d="M7550 3720 c0 -5 5 -10 10 -10 6 0 10 5 10 10 0 6 -4 10 -10 10 -5 0
-10 -4 -10 -10z"/>
<path d="M7464 3698 c-4 -7 -3 -8 5 -4 18 11 38 -11 45 -49 4 -19 11 -35 16
-35 13 0 13 17 0 25 -8 5 -8 11 0 20 8 10 4 18 -16 34 -30 24 -40 26 -50 9z"/>
<path d="M6985 3681 c-3 -5 -1 -12 4 -15 5 -3 11 1 15 9 6 16 -9 21 -19 6z"/>
<path d="M7090 3670 c0 -5 5 -10 10 -10 6 0 10 5 10 10 0 6 -4 10 -10 10 -5 0
-10 -4 -10 -10z"/>
<path d="M5820 3660 c0 -5 5 -10 10 -10 6 0 10 5 10 10 0 6 -4 10 -10 10 -5 0
-10 -4 -10 -10z"/>
<path d="M7267 3650 c-3 -11 -1 -20 4 -20 5 0 9 9 9 20 0 11 -2 20 -4 20 -2 0
-6 -9 -9 -20z"/>
<path d="M6615 3640 c-3 -5 1 -10 10 -10 9 0 13 5 10 10 -3 6 -8 10 -10 10 -2
0 -7 -4 -10 -10z"/>
<path d="M6922 3609 c2 -7 10 -15 17 -17 8 -3 12 1 9 9 -2 7 -10 15 -17 17 -8
3 -12 -1 -9 -9z"/>
<path d="M4470 3594 c0 -8 5 -12 10 -9 6 3 10 10 10 16 0 5 -4 9 -10 9 -5 0
-10 -7 -10 -16z"/>
<path d="M6580 3581 c0 -12 6 -21 15 -21 8 0 15 3 15 6 0 3 -7 12 -15 20 -13
14 -15 13 -15 -5z"/>
<path d="M7465 3560 c-7 -12 2 -30 16 -30 5 0 9 9 9 20 0 21 -15 27 -25 10z"/>
<path d="M7100 3531 c-5 -11 -10 -22 -10 -26 0 -9 49 28 50 38 0 15 -30 6 -40
-12z"/>
<path d="M7255 3540 c-4 -6 -10 -8 -15 -5 -5 3 -11 1 -15 -5 -3 -5 -1 -10 4
-10 6 0 11 -4 11 -10 0 -5 -7 -10 -15 -10 -8 0 -15 -7 -15 -15 0 -23 11 -18
41 18 21 24 28 28 29 15 0 -22 30 -24 30 -3 0 8 -9 19 -19 25 -24 13 -28 13
-36 0z"/>
<path d="M7397 3542 c-9 -2 -17 -8 -17 -13 0 -6 5 -7 10 -4 6 3 13 -1 16 -9 6
-17 30 -22 37 -8 7 12 -27 37 -46 34z"/>
<path d="M6325 3520 c3 -5 8 -10 11 -10 2 0 4 5 4 10 0 6 -5 10 -11 10 -5 0
-7 -4 -4 -10z"/>
<path d="M6360 3510 c0 -5 5 -10 11 -10 5 0 7 5 4 10 -3 6 -8 10 -11 10 -2 0
-4 -4 -4 -10z"/>
<path d="M6615 3489 c-4 -6 -5 -13 -2 -16 7 -7 27 6 27 18 0 12 -17 12 -25 -2z"/>
<path d="M7135 3490 c-3 -5 -1 -10 4 -10 6 0 11 5 11 10 0 6 -2 10 -4 10 -3 0
-8 -4 -11 -10z"/>
<path d="M4565 3470 c-3 -5 -1 -10 4 -10 6 0 11 5 11 10 0 6 -2 10 -4 10 -3 0
-8 -4 -11 -10z"/>
<path d="M7482 3468 c6 -18 28 -21 28 -4 0 9 -7 16 -16 16 -9 0 -14 -5 -12
-12z"/>
<path d="M4445 3460 c-3 -5 6 -15 20 -20 39 -15 55 -12 55 10 0 21 -24 28 -35
10 -5 -8 -11 -8 -20 0 -9 8 -15 8 -20 0z"/>
<path d="M7520 3425 c0 -8 5 -15 10 -15 6 0 10 7 10 15 0 8 -4 15 -10 15 -5 0
-10 -7 -10 -15z"/>
<path d="M4550 3360 c0 -5 5 -10 10 -10 6 0 10 5 10 10 0 6 -4 10 -10 10 -5 0
-10 -4 -10 -10z"/>
<path d="M7235 3320 c-3 -5 -2 -10 4 -10 5 0 13 5 16 10 3 6 2 10 -4 10 -5 0
-13 -4 -16 -10z"/>
<path d="M7281 3303 c-1 -32 11 -44 24 -23 3 6 2 10 -4 10 -5 0 -12 10 -14 23
-3 16 -5 13 -6 -10z"/>
<path d="M7360 3290 c0 -11 2 -20 4 -20 2 0 6 9 9 20 3 11 1 20 -4 20 -5 0 -9
-9 -9 -20z"/>
<path d="M4620 3268 c0 -19 26 -42 34 -30 3 5 -3 17 -14 27 -17 15 -20 16 -20
3z"/>
<path d="M4340 3218 c0 -18 5 -28 15 -28 19 0 19 11 0 36 -14 18 -14 18 -15
-8z"/>
<path d="M7225 3180 c3 -5 8 -10 11 -10 2 0 4 5 4 10 0 6 -5 10 -11 10 -5 0
-7 -4 -4 -10z"/>
<path d="M7137 3174 c-4 -4 -7 -14 -7 -23 0 -11 3 -12 11 -4 6 6 10 16 7 23
-2 6 -7 8 -11 4z"/>
<path d="M7255 3160 c4 -6 11 -8 16 -5 14 9 11 15 -7 15 -8 0 -12 -5 -9 -10z"/>
<path d="M6960 3136 c0 -10 9 -16 21 -16 24 0 21 23 -4 28 -10 2 -17 -3 -17
-12z"/>
<path d="M4522 3119 c2 -6 8 -10 13 -10 5 0 11 4 13 10 2 6 -4 11 -13 11 -9 0
-15 -5 -13 -11z"/>
<path d="M4344 3102 c-6 -4 -20 -27 -32 -51 -22 -41 -22 -44 -5 -57 26 -20 34
-17 27 9 -3 15 2 38 15 60 19 34 17 54 -5 39z"/>
<path d="M7161 3083 c1 -10 4 -29 8 -43 9 -33 21 -5 14 33 -6 30 -24 37 -22
10z"/>
<path d="M7042 3069 c2 -6 8 -10 13 -10 5 0 11 4 13 10 2 6 -4 11 -13 11 -9 0
-15 -5 -13 -11z"/>
<path d="M4490 3054 c0 -8 5 -12 10 -9 6 3 10 10 10 16 0 5 -4 9 -10 9 -5 0
-10 -7 -10 -16z"/>
<path d="M7130 2990 c0 -18 3 -20 13 -11 8 6 17 7 22 3 4 -4 6 0 3 8 -8 25
-38 25 -38 0z"/>
<path d="M4900 2959 c0 -5 5 -7 10 -4 6 3 10 8 10 11 0 2 -4 4 -10 4 -5 0 -10
-5 -10 -11z"/>
<path d="M6674 2913 c3 -8 6 -17 6 -19 0 -2 12 -4 26 -4 21 0 24 3 15 14 -18
21 -54 28 -47 9z"/>
<path d="M4830 2750 c0 -5 5 -10 10 -10 6 0 10 5 10 10 0 6 -4 10 -10 10 -5 0
-10 -4 -10 -10z"/>
<path d="M6695 2740 c-3 -5 -1 -10 4 -10 6 0 11 5 11 10 0 6 -2 10 -4 10 -3 0
-8 -4 -11 -10z"/>
<path d="M4910 2719 c0 -5 5 -7 10 -4 6 3 10 8 10 11 0 2 -4 4 -10 4 -5 0 -10
-5 -10 -11z"/>
<path d="M4706 2704 c-7 -18 0 -34 15 -34 5 0 9 11 9 25 0 28 -15 34 -24 9z"/>
<path d="M6610 2690 c0 -5 5 -10 10 -10 6 0 10 5 10 10 0 6 -4 10 -10 10 -5 0
-10 -4 -10 -10z"/>
<path d="M6644 2675 c-17 -13 -17 -14 -2 -15 9 0 20 5 23 10 5 8 11 7 21 -1
11 -9 14 -8 14 5 0 20 -30 21 -56 1z"/>
<path d="M5506 2671 c-4 -7 -5 -15 -2 -18 9 -9 19 4 14 18 -4 11 -6 11 -12 0z"/>
<path d="M5200 2650 c0 -5 5 -10 10 -10 6 0 10 5 10 10 0 6 -4 10 -10 10 -5 0
-10 -4 -10 -10z"/>
<path d="M6510 2645 c0 -9 5 -15 11 -13 6 2 11 8 11 13 0 5 -5 11 -11 13 -6 2
-11 -4 -11 -13z"/>
<path d="M4720 2640 c0 -5 5 -10 10 -10 6 0 10 5 10 10 0 6 -4 10 -10 10 -5 0
-10 -4 -10 -10z"/>
<path d="M6530 2575 c0 -8 5 -15 10 -15 6 0 10 7 10 15 0 8 -4 15 -10 15 -5 0
-10 -7 -10 -15z"/>
<path d="M6570 2540 c0 -5 5 -10 10 -10 6 0 10 5 10 10 0 6 -4 10 -10 10 -5 0
-10 -4 -10 -10z"/>
<path d="M4740 2430 c0 -5 5 -10 10 -10 6 0 10 5 10 10 0 6 -4 10 -10 10 -5 0
-10 -4 -10 -10z"/>
<path d="M5845 2310 c3 -5 15 -10 26 -10 11 0 17 5 14 10 -3 6 -15 10 -26 10
-11 0 -17 -4 -14 -10z"/>
<path d="M6176 2265 c-11 -8 -18 -16 -15 -18 33 -24 59 -35 64 -27 3 6 -1 10
-11 10 -12 0 -15 6 -12 25 6 29 1 30 -26 10z"/>
<path d="M7840 9045 c-10 -12 -9 -16 3 -21 21 -8 37 3 30 21 -7 19 -17 19 -33
0z"/>
<path d="M7360 5630 c0 -5 7 -10 15 -10 8 0 15 5 15 10 0 6 -7 10 -15 10 -8 0
-15 -4 -15 -10z"/>
<path d="M7245 5570 c3 -5 8 -10 11 -10 2 0 4 5 4 10 0 6 -5 10 -11 10 -5 0
-7 -4 -4 -10z"/>
</g>
</svg>
