<?xml version="1.0" standalone="no"?>
<!DOCTYPE svg PUBLIC "-//W3C//DTD SVG 20010904//EN"
 "http://www.w3.org/TR/2001/REC-SVG-20010904/DTD/svg10.dtd">
<svg version="1.0" xmlns="http://www.w3.org/2000/svg"
 width="1600.000000pt" height="1600.000000pt" viewBox="0 0 1600.000000 1600.000000"
 preserveAspectRatio="xMidYMid meet">
<metadata>
Created by potrace 1.11, written by Peter Selinger 2001-2013
</metadata>
<g transform="translate(0.000000,1600.000000) scale(0.100000,-0.100000)"
fill="#000000" stroke="none">
<path d="M7780 15430 c-241 -12 -364 -21 -385 -30 -11 -5 -76 -14 -145 -21
-69 -6 -130 -15 -135 -20 -6 -4 -46 -10 -90 -12 -143 -9 -340 -43 -383 -66
-11 -6 -35 -11 -53 -11 -17 0 -48 -4 -68 -10 -20 -5 -81 -18 -136 -29 -55 -11
-127 -29 -160 -40 -92 -31 -166 -51 -184 -51 -23 0 -174 -50 -185 -61 -6 -5
-19 -9 -30 -9 -25 0 -131 -37 -174 -61 -18 -11 -45 -19 -60 -19 -16 0 -32 -4
-38 -8 -5 -5 -29 -14 -54 -21 -25 -7 -62 -22 -83 -32 -22 -10 -45 -19 -52 -19
-7 0 -39 -13 -70 -30 -31 -16 -64 -30 -74 -31 -9 0 -29 -8 -46 -18 l-30 -18
-3 -1079 c-2 -1244 -17 -1101 117 -1148 70 -25 86 -27 106 -16 25 14 45 7 45
-15 0 -19 31 -31 295 -120 121 -40 486 -164 810 -275 325 -111 664 -227 755
-257 91 -30 174 -58 185 -63 11 -4 178 -61 370 -126 193 -65 464 -157 604
-204 233 -78 302 -110 239 -110 -12 0 -156 45 -318 100 -162 56 -358 121 -435
146 -77 25 -151 50 -165 56 -14 6 -104 37 -200 69 -291 96 -1330 448 -1339
453 -4 3 -91 32 -192 65 -303 99 -460 151 -529 177 -72 26 -100 30 -117 13
-13 -13 -33 -4 -33 16 0 18 -24 31 -106 56 -51 16 -69 18 -80 8 -12 -10 -14
-100 -14 -584 l0 -572 158 -7 c332 -13 974 -28 979 -22 4 3 -19 6 -50 6 -38 0
-57 4 -58 13 -8 90 84 272 185 363 71 65 176 119 261 135 96 18 235 4 314 -32
110 -50 200 -117 240 -179 72 -110 121 -231 121 -296 0 -31 -3 -34 -32 -36
-53 -2 214 -15 697 -32 630 -22 965 -30 965 -23 0 9 -82 48 -88 42 -3 -2 3 -7
12 -11 34 -13 1 -24 -75 -24 l-79 0 0 44 c0 25 4 47 9 50 4 3 7 24 5 47 -2 31
6 60 27 106 16 35 33 61 38 59 12 -8 44 31 36 43 -3 6 -2 11 3 11 6 0 9 8 8
18 -1 14 6 16 32 14 32 -3 34 -2 30 27 -2 24 5 37 35 64 60 56 194 114 241
105 25 -5 20 -30 65 322 11 85 32 243 46 350 13 107 36 285 50 395 14 110 35
268 46 350 l20 150 -21 17 c-26 21 -25 34 3 42 20 5 25 15 33 68 5 37 14 63
23 66 12 4 13 -8 8 -66 -6 -65 -5 -72 13 -82 23 -12 27 -30 6 -30 -7 0 -18 -6
-24 -13 -6 -7 -34 -190 -61 -407 -51 -392 -91 -709 -131 -1014 -11 -87 -19
-164 -16 -170 2 -6 5 0 5 13 1 23 1 23 89 16 72 -6 101 -14 170 -46 69 -34 94
-56 80 -71 -2 -2 5 -14 15 -28 20 -29 22 -40 4 -40 -21 0 -79 59 -73 75 3 8 0
15 -5 15 -7 0 -9 -11 -7 -25 3 -13 2 -26 -1 -28 -3 -2 -1 -3 5 -1 7 1 22 -8
35 -22 40 -43 93 -18 54 26 -14 16 -15 20 -4 20 12 0 12 2 0 9 -12 8 -11 15
10 45 23 35 54 54 66 42 4 -3 -8 -24 -26 -46 -24 -31 -30 -44 -22 -54 6 -7 8
-16 4 -20 -4 -4 -1 -5 7 -2 8 3 25 -2 37 -12 28 -23 103 -141 103 -163 0 -9 5
-19 12 -21 8 -3 11 -21 10 -47 -2 -26 3 -53 13 -67 8 -13 18 -44 22 -69 5 -42
8 -45 36 -45 17 0 51 -12 76 -27 l46 -28 -79 -5 -79 -5 -12 -42 c-7 -23 -11
-44 -8 -47 13 -12 -124 -230 -158 -252 -13 -8 -40 16 -32 28 3 6 0 8 -8 6 -17
-6 -49 19 -45 35 2 7 1 9 -1 5 -3 -4 -17 -5 -32 -2 -59 12 -48 -36 18 -76 23
-14 41 -28 41 -32 0 -3 -12 -13 -27 -20 -16 -8 -37 -19 -48 -25 -72 -40 -126
-53 -218 -53 -77 0 -96 3 -101 16 -5 14 -9 13 -35 -2 -21 -13 -33 -15 -43 -7
-7 6 -31 16 -53 23 -87 27 -208 119 -259 196 -52 78 -88 162 -89 212 -1 30 -6
42 -17 42 -24 0 -631 19 -790 25 -80 2 -248 8 -375 11 l-230 6 -19 -83 c-11
-46 -33 -111 -50 -144 -37 -71 -148 -193 -185 -202 -14 -3 -34 -15 -46 -25
-11 -11 -32 -22 -48 -25 -15 -3 -30 -10 -33 -14 -9 -14 -44 -10 -44 5 0 16
-27 29 -41 20 -5 -3 -9 -16 -9 -30 0 -24 0 -24 -107 -24 -113 1 -161 12 -253
59 -154 79 -279 259 -293 419 l-5 62 106 0 c168 0 114 8 -93 15 -105 3 -257 7
-340 10 -455 15 -682 17 -688 8 -4 -6 -9 -217 -13 -469 -6 -422 -11 -493 -33
-480 -3 2 -6 -18 -6 -44 0 -26 3 -46 8 -43 4 2 7 15 7 29 0 14 4 22 10 19 7
-4 10 -558 10 -1628 1 -892 4 -1651 9 -1687 11 -82 58 -182 111 -238 42 -43
125 -92 158 -92 10 0 24 -6 30 -12 10 -10 748 -14 3607 -16 l3595 -2 0 -290
c0 -160 3 -290 8 -290 15 0 169 -97 247 -155 116 -86 226 -195 319 -315 75
-97 156 -213 156 -225 0 -2 18 -32 40 -66 22 -34 40 -66 40 -70 0 -5 15 -41
34 -81 36 -75 62 -145 97 -258 12 -36 30 -92 40 -125 11 -33 19 -76 19 -95 0
-19 8 -69 17 -110 13 -57 17 -126 17 -290 1 -225 -10 -319 -53 -435 -10 -27
-24 -68 -31 -90 -53 -168 -231 -455 -367 -591 -72 -71 -258 -223 -343 -279
-85 -56 -206 -120 -265 -140 -22 -7 -71 -25 -110 -40 -98 -38 -194 -67 -235
-71 -19 -2 -62 -9 -95 -15 -82 -16 -514 -18 -540 -2 -11 6 -45 14 -75 18 -30
3 -68 10 -85 15 -16 5 -52 16 -80 24 -45 13 -83 25 -140 46 -30 11 -204 97
-250 123 -257 147 -484 373 -637 636 -91 156 -180 385 -203 521 -3 19 -12 60
-19 90 -33 134 -41 220 -41 440 0 225 5 273 42 400 9 30 18 60 19 65 7 38 142
298 185 358 111 153 202 259 282 328 45 39 96 84 112 98 17 15 46 38 65 51 19
14 58 42 86 63 100 73 265 149 459 211 121 38 129 39 295 62 132 18 355 13
473 -10 40 -8 89 -17 110 -21 21 -3 45 -9 53 -12 12 -4 14 14 14 111 l0 116
-3397 0 c-2186 -1 -3414 -4 -3443 -11 -25 -5 -70 -13 -101 -17 -36 -5 -74 -19
-106 -40 -61 -39 -83 -63 -119 -127 l-28 -50 -9 -460 c-10 -485 -4 -606 30
-668 49 -88 90 -122 203 -168 30 -12 363 -15 2135 -19 l2101 -5 51 -38 c29
-21 54 -46 57 -55 14 -51 17 -88 11 -135 -6 -46 -13 -58 -62 -105 l-55 -52
-2027 0 c-2067 0 -2140 -1 -2241 -38 -97 -35 -132 -63 -170 -137 l-35 -69 -3
-423 c-4 -488 0 -533 53 -601 38 -49 132 -109 201 -130 30 -9 180 -12 545 -12
507 0 587 -5 660 -37 82 -36 111 -172 56 -265 -50 -86 -19 -82 -642 -88 l-550
-5 -57 -27 c-32 -15 -74 -45 -95 -65 -57 -57 -116 -175 -126 -253 -5 -36 -11
-298 -13 -582 l-5 -518 48 -21 c26 -12 75 -35 109 -50 33 -16 65 -29 72 -29 6
0 27 -9 47 -20 20 -11 44 -20 55 -20 10 0 22 -4 25 -10 3 -5 17 -10 30 -10 13
0 26 -4 29 -9 3 -4 27 -14 53 -21 27 -7 76 -25 110 -41 34 -16 71 -29 83 -29
11 0 28 -4 38 -9 29 -14 87 -31 110 -31 11 0 23 -4 27 -9 3 -5 31 -15 63 -21
31 -7 66 -16 77 -20 11 -5 34 -11 50 -14 61 -10 110 -23 130 -33 11 -6 54 -14
95 -18 41 -4 80 -12 87 -17 7 -5 36 -13 65 -17 29 -5 89 -15 133 -24 148 -28
321 -51 480 -63 33 -3 69 -9 80 -13 11 -5 76 -14 145 -21 69 -6 163 -15 210
-20 151 -15 1412 -24 1535 -10 121 12 257 26 410 40 114 10 191 23 440 76 44
9 109 22 145 29 36 6 75 17 87 23 12 7 34 12 50 12 15 1 46 8 68 16 22 8 63
19 90 24 28 4 73 16 100 26 107 37 152 52 190 62 52 13 304 109 442 169 18 7
61 24 95 37 35 13 77 31 93 39 17 9 59 28 95 42 88 36 394 195 560 290 233
134 251 144 280 165 15 11 30 20 33 20 3 0 40 24 82 53 43 28 98 66 124 82 26
17 62 42 81 56 173 127 276 204 280 209 3 3 46 37 95 75 248 191 716 639 899
858 44 54 125 151 179 215 83 99 174 216 231 297 140 196 137 192 292 435 15
25 37 61 47 80 10 19 26 46 35 60 28 42 36 56 61 101 13 24 27 46 31 49 6 5
83 148 183 340 21 41 47 95 57 120 10 25 35 81 55 125 20 44 42 94 50 110 7
17 24 55 38 86 14 30 36 80 47 110 12 30 26 59 32 66 5 7 14 27 18 45 4 18 27
85 50 148 22 63 55 158 72 210 17 52 38 118 48 145 49 143 141 491 175 664 4
18 15 52 26 75 10 23 23 84 29 136 6 52 16 113 23 135 6 22 12 65 13 95 2 85
22 200 44 260 11 30 20 64 20 75 0 12 5 26 11 32 35 35 61 541 40 783 -6 69
-15 180 -21 248 -6 67 -15 133 -20 147 -5 13 -14 82 -20 152 -6 70 -17 164
-25 208 -20 112 -33 231 -41 362 l-7 113 -1853 2 c-1018 2 -1850 0 -1848 -3 6
-11 -44 -59 -61 -59 -13 0 -15 6 -10 30 5 25 3 30 -12 31 -10 0 -139 0 -287
-1 -329 -2 -335 0 -423 90 -35 36 -76 83 -90 105 -42 62 -65 86 -101 101 l-33
13 2 191 c1 132 -2 195 -10 203 -6 6 -11 7 -11 2 0 -4 -9 0 -20 10 -22 20 -27
45 -8 45 6 0 26 -12 45 -26 26 -20 32 -31 27 -46 -4 -12 -2 -18 4 -14 5 3 12
15 15 26 3 11 2 18 -3 15 -10 -6 -42 30 -39 47 1 7 1 305 0 661 l-1 648 -67
-3 c-62 -3 -68 -5 -73 -27 -8 -33 -26 -37 -34 -8 -3 14 -11 27 -18 29 -7 3
-160 0 -340 -5 -308 -10 -330 -9 -368 8 -22 10 -45 24 -50 30 -11 13 10 15
335 35 599 36 729 46 648 49 l-33 1 0 180 c0 104 4 180 9 180 16 0 41 30 40
48 0 11 -2 12 -6 4 -2 -6 -9 -9 -15 -6 -5 3 -8 -2 -6 -12 2 -14 -7 -22 -40
-32 -47 -15 -94 -8 -57 9 11 5 32 13 48 19 l27 10 0 718 c0 695 1 718 19 734
11 9 23 13 27 10 4 -4 4 -2 1 5 -4 6 -1 14 5 16 8 3 8 6 2 6 -6 1 -19 -8 -29
-19 -20 -22 -45 -27 -45 -9 0 6 18 30 41 52 32 32 42 38 49 27 6 -9 4 -17 -3
-22 -7 -5 -8 -8 -1 -8 5 0 20 14 33 30 12 17 27 28 33 24 6 -4 8 -3 4 4 -3 6
1 17 9 25 8 9 15 20 15 26 0 6 6 11 13 11 6 1 28 21 47 45 25 33 40 43 55 40
11 -3 27 -1 35 4 12 8 12 13 -4 30 -17 19 -17 21 -3 21 10 0 17 -5 17 -11 0
-5 5 -7 10 -4 6 4 -7 20 -30 36 -39 28 -53 59 -27 59 15 0 72 -57 80 -80 4
-12 6 -12 6 2 1 9 -15 33 -33 53 -39 41 -72 44 -70 6 1 -17 -4 -21 -17 -18
-21 6 -44 -17 -34 -33 4 -6 1 -17 -5 -25 -7 -8 -9 -15 -6 -15 4 0 -9 -20 -30
-45 -20 -25 -34 -48 -32 -51 3 -3 16 10 28 28 13 18 34 43 49 55 23 20 24 25
13 43 -16 26 -15 30 5 30 21 0 73 -48 73 -68 0 -10 -8 -12 -28 -8 -23 6 -30 2
-45 -24 -10 -17 -28 -37 -41 -45 -12 -8 -37 -35 -56 -60 -26 -34 -40 -45 -54
-41 -11 3 -30 -4 -44 -15 -14 -10 -28 -17 -31 -14 -3 4 1 10 9 15 10 7 11 10
3 10 -10 0 -13 161 -13 771 0 512 -3 777 -10 790 -6 10 -19 19 -28 19 -10 0
-37 9 -60 20 -22 11 -52 20 -66 20 -14 0 -28 5 -31 10 -3 6 -17 10 -30 10 -13
0 -27 5 -30 10 -3 6 -14 10 -25 10 -10 0 -35 8 -57 19 -48 23 -104 41 -129 41
-11 0 -24 4 -30 9 -5 6 -34 17 -64 25 -30 8 -73 22 -95 30 -22 8 -49 15 -61
16 -11 0 -39 9 -62 20 -22 11 -52 20 -66 20 -14 0 -28 5 -31 10 -3 6 -18 10
-33 10 -15 0 -52 10 -82 21 -30 12 -83 27 -117 33 -34 6 -65 14 -69 19 -4 4
-19 7 -33 7 -14 0 -57 7 -96 16 -99 22 -187 35 -280 41 -44 2 -84 8 -90 13 -6
5 -66 14 -135 20 -69 7 -134 16 -145 20 -11 5 -67 11 -125 14 -58 4 -177 11
-265 16 -176 10 -550 10 -775 0z m-860 -337 c37 -62 116 -198 322 -558 108
-187 244 -423 303 -525 59 -102 140 -241 180 -310 145 -252 293 -507 345 -595
28 -49 61 -105 71 -123 104 -179 246 -424 264 -452 19 -30 260 -449 323 -562
l21 -37 -24 11 c-29 13 -25 7 -207 323 -41 72 -99 171 -128 220 -80 137 -91
155 -130 225 -20 36 -48 83 -62 105 -14 22 -97 164 -183 315 -167 290 -230
398 -393 675 -55 94 -126 217 -159 275 -33 58 -113 197 -178 310 -65 113 -138
241 -163 285 -24 44 -59 105 -77 135 -53 88 -161 273 -174 298 -10 19 -9 22 8
22 11 0 28 -15 41 -37z m2705 27 c-3 -5 -10 -10 -16 -10 -5 0 -9 5 -9 10 0 6
7 10 16 10 8 0 12 -4 9 -10z m9 -40 c36 -13 32 -30 -6 -30 -48 0 -78 10 -78
26 0 17 46 19 84 4z m-16 -65 c51 -11 33 -31 -24 -27 -56 4 -59 5 -50 27 3 10
13 14 23 11 10 -2 33 -8 51 -11z m-18 -94 c0 -37 -16 -81 -30 -81 -11 0 -13
52 -4 88 9 33 34 28 34 -7z m-6 -111 c40 -15 31 -30 -16 -30 -48 0 -74 12 -64
29 9 14 46 14 80 1z m-6 -66 c12 -4 22 -13 22 -21 0 -12 -9 -14 -47 -8 -53 8
-63 12 -63 26 0 10 53 12 88 3z m-26 -71 c2 -10 1 -38 -3 -63 -6 -43 -3 -52
26 -64 6 -2 6 -8 -2 -16 -15 -17 -103 -4 -103 14 0 8 9 16 19 19 14 3 22 17
26 43 11 70 15 84 24 84 5 0 11 -8 13 -17z m-29 -183 c27 0 54 -16 44 -26 -10
-10 -90 -5 -101 6 -12 12 4 32 21 26 8 -3 24 -6 36 -6z m-3 -97 c0 -51 -10
-85 -24 -80 -10 4 -11 76 -1 105 9 26 25 10 25 -25z m-20 -155 c0 -48 -12 -74
-29 -64 -10 7 -8 53 4 94 9 28 25 9 25 -30z m-19 -120 c5 -48 -9 -98 -26 -98
-12 0 -14 9 -9 43 8 56 11 67 24 67 5 0 11 -6 11 -12z m19 -148 c25 -17 -9
-31 -55 -24 -46 7 -55 11 -55 25 0 12 91 11 110 -1z m-19 -61 c45 -23 -20 -40
-76 -19 -14 5 -23 14 -20 20 8 13 71 13 96 -1z m-8 -65 c20 -6 23 -24 5 -25
-33 -3 -84 3 -92 11 -4 5 -5 13 -1 20 6 10 35 8 88 -6z m-9 -60 c9 -3 16 -13
16 -21 0 -12 -8 -14 -37 -9 -21 3 -46 6 -55 6 -10 0 -18 7 -18 15 0 11 11 15
39 15 22 0 46 -3 55 -6z m-2304 -103 c0 -27 -68 -77 -83 -61 -9 9 -3 20 28 46
46 39 55 41 55 15z m45 -41 c8 -13 -48 -70 -69 -70 -26 0 -18 26 15 54 33 28
44 31 54 16z m3965 -55 c14 -19 14 -19 -2 -6 -10 7 -18 18 -18 24 0 6 1 8 3 6
1 -2 9 -13 17 -24z m-3924 3 c8 -13 -51 -68 -73 -68 -24 0 -13 28 20 54 36 29
43 31 53 14z m39 -48 c8 -13 -24 -56 -53 -69 -30 -15 -32 -14 -32 8 0 11 14
31 31 45 33 28 44 31 54 16z m36 -105 c29 -39 38 -44 62 -39 17 4 27 1 27 -6
0 -17 -56 -70 -74 -70 -18 0 -21 21 -6 36 7 7 -3 24 -30 54 -22 24 -40 49 -40
57 0 27 29 12 61 -32z m125 -97 c8 -13 -49 -68 -71 -68 -25 0 -17 27 16 54 34
29 44 32 55 14z m29 -85 c14 -16 27 -36 31 -46 4 -14 12 -17 34 -12 15 3 31 2
34 -4 7 -11 -62 -71 -81 -71 -16 0 -17 22 -1 38 8 8 1 22 -30 56 -23 25 -42
50 -42 56 0 19 31 10 55 -17z m3380 -32 c7 -13 -53 -81 -71 -81 -23 0 -16 20
20 56 37 37 42 39 51 25z m-3235 -78 c0 -15 -65 -73 -82 -73 -25 0 -22 13 11
49 26 27 71 43 71 24z m3139 -33 c34 -33 39 -50 15 -50 -18 0 -74 53 -74 69 0
20 27 11 59 -19z m-3113 -36 c-5 -20 1 -34 29 -66 37 -44 41 -53 25 -63 -6 -4
-29 13 -50 37 -30 32 -46 42 -65 40 -36 -5 -32 21 8 52 42 34 61 34 53 0z
m3068 -12 c7 -12 -52 -82 -70 -82 -23 0 -16 22 18 57 33 34 43 39 52 25z m-96
-116 c23 -20 30 -46 12 -46 -20 0 -83 66 -76 79 8 13 16 9 64 -33z m-2838 -5
c0 -14 -72 -71 -82 -65 -14 9 -9 24 18 49 27 25 64 34 64 16z m2790 -43 c0
-18 -50 -78 -66 -78 -21 0 -17 19 12 57 25 32 54 44 54 21z m-2728 -110 c-21
-21 -89 49 -77 80 5 14 13 10 47 -26 27 -29 37 -47 30 -54z m2628 0 c0 -18
-50 -78 -66 -78 -23 0 -16 22 18 57 33 34 48 41 48 21z m-2550 -13 c0 -3 -6
-14 -12 -25 -11 -17 -8 -24 23 -57 61 -66 129 -151 129 -162 0 -18 -20 -12
-43 12 -12 13 -49 56 -81 95 -50 60 -64 70 -83 66 -33 -9 -31 28 3 55 24 19
64 29 64 16z m2449 -91 c32 -27 41 -54 18 -54 -17 0 -79 64 -71 73 12 12 21 8
53 -19z m-36 -52 c29 -30 35 -52 15 -52 -14 0 -78 59 -78 72 0 18 38 6 63 -20z
m-43 -52 c0 -13 -60 -80 -71 -80 -18 0 -8 35 18 62 27 28 53 37 53 18z m-2176
-102 c35 -42 36 -65 2 -52 -21 8 -67 74 -60 86 10 15 22 8 58 -34z m2080 1
c29 -34 33 -49 12 -49 -20 0 -79 58 -71 70 11 18 33 11 59 -21z m-45 -45 c32
-26 41 -54 19 -54 -15 0 -78 57 -78 71 0 17 28 9 59 -17z m-1939 -18 c0 -8
-16 -27 -35 -42 -28 -21 -39 -24 -48 -15 -9 10 -5 19 21 42 35 31 62 38 62 15z
m1900 -38 c0 -14 -59 -78 -72 -78 -15 0 -8 23 18 57 25 33 54 44 54 21z
m-1860 -12 c0 -17 -56 -66 -76 -66 -24 0 -16 27 17 54 34 29 59 34 59 12z m40
-102 c14 -19 44 -55 68 -80 45 -48 58 -83 23 -65 -27 15 -72 71 -65 82 3 5 -1
9 -10 9 -18 0 -79 76 -71 89 9 15 28 4 55 -35z m1720 0 c0 -17 -55 -74 -72
-74 -22 0 -15 19 22 58 19 20 50 30 50 16z m-103 -106 c34 -33 41 -48 21 -48
-18 0 -78 50 -78 66 0 23 22 16 57 -18z m-37 -48 c28 -26 33 -50 10 -50 -15 0
-70 51 -70 66 0 23 26 16 60 -16z m-1402 -7 c-4 -21 -19 -26 -38 -13 -13 9
-13 11 0 20 23 15 42 12 38 -7z m41 -105 c26 -46 1 -45 -42 2 -30 31 -48 44
-64 42 -25 -4 -26 -2 -17 22 5 14 13 12 57 -11 28 -16 58 -40 66 -55z m1321
64 c0 -4 -16 -25 -36 -46 -26 -28 -39 -35 -47 -27 -8 8 -2 20 23 46 32 33 60
45 60 27z m-99 -101 c26 -27 38 -51 23 -51 -23 0 -83 52 -84 73 0 17 34 5 61
-22z m-1152 -45 c20 -21 31 -41 29 -52 -4 -16 -10 -13 -41 20 -59 63 -47 93
12 32z m1111 -4 c20 -17 30 -33 26 -40 -11 -18 -21 -15 -55 17 -56 52 -31 72
29 23z m-876 -106 c47 -85 56 -111 34 -104 -12 4 -127 185 -128 200 0 4 11 3
24 -3 14 -7 43 -45 70 -93z m-134 49 c0 -15 -33 -50 -62 -66 -35 -19 -31 14 5
48 40 36 57 41 57 18z m40 -54 c0 -5 -16 -23 -36 -41 -27 -24 -39 -29 -48 -20
-8 8 -3 19 22 41 31 28 62 38 62 20z m2059 -57 c13 -50 10 -60 -13 -51 -15 6
-32 80 -21 97 11 17 22 3 34 -46z m-74 19 c27 -66 19 -120 -11 -78 -12 15 -18
16 -58 6 -54 -13 -76 -14 -76 -2 0 11 73 41 100 41 15 0 20 7 20 25 0 29 14
33 25 8z m-1951 -57 c37 -49 35 -67 -5 -46 -16 9 -49 58 -49 75 0 17 31 0 54
-29z m1765 6 c5 -9 12 -34 16 -55 6 -30 4 -37 -8 -37 -16 0 -37 54 -37 93 0
22 17 22 29 -1z m-51 -56 c8 -26 11 -50 8 -54 -13 -12 -35 24 -42 67 -10 61
16 51 34 -13z m-61 -16 c13 -45 5 -72 -14 -48 -14 17 -33 85 -25 93 13 13 27
-4 39 -45z m-57 -20 c0 -5 -23 -16 -52 -25 -62 -18 -58 -18 -58 -1 0 8 12 19
28 24 35 13 82 15 82 2z m-271 -74 c14 -56 14 -56 -3 -56 -14 0 -36 49 -36 81
0 37 28 19 39 -25z m131 34 c0 -13 -43 -30 -76 -30 -32 0 -31 16 4 28 36 14
72 14 72 2z m-190 -58 c8 -23 11 -45 7 -49 -13 -12 -37 22 -44 62 -8 52 17 43
37 -13z m-200 -50 c11 -32 12 -44 2 -54 -9 -9 -15 -3 -27 25 -8 20 -15 46 -15
58 0 34 24 17 40 -29z m140 38 c0 -11 -38 -28 -84 -37 -22 -5 -28 -3 -24 8 8
25 108 51 108 29z m-1439 -336 c14 -13 26 -14 61 -7 24 6 53 7 63 3 19 -7 19
-7 0 -18 -11 -5 -38 -13 -58 -17 -22 -4 -41 -15 -45 -24 -9 -26 -25 -31 -44
-14 -16 14 -29 13 -150 -15 -121 -28 -274 -61 -355 -77 -38 -7 -54 11 -21 25
13 5 55 16 93 24 94 20 376 85 397 92 9 3 20 14 23 25 8 23 13 24 36 3z m-681
-160 c13 -34 13 -84 -1 -84 -6 0 -13 9 -16 20 -6 24 -6 24 -72 4 -38 -11 -57
-12 -64 -5 -17 17 3 30 63 38 46 7 55 12 58 31 4 30 20 28 32 -4z m1685 -47
c12 -7 65 -46 119 -87 199 -152 228 -171 257 -165 25 6 27 3 31 -32 3 -21 5
-39 4 -39 -1 -1 -21 -5 -45 -9 -39 -6 -42 -5 -37 12 10 31 13 28 -272 238 -92
67 -119 95 -90 95 7 -1 22 -6 33 -13z m-1865 -17 c0 -13 -28 -27 -72 -35 -49
-9 -60 11 -16 30 38 16 88 20 88 5z m-140 -34 c0 -15 -13 -21 -71 -31 -21 -4
-39 -3 -43 3 -8 13 7 23 48 33 49 11 66 10 66 -5z m1212 -21 c16 -14 40 -25
54 -25 13 0 24 -6 24 -12 0 -7 -55 -79 -123 -159 -67 -80 -167 -201 -222 -268
-137 -167 -507 -616 -555 -672 -21 -25 -56 -68 -78 -95 -21 -27 -77 -95 -123
-150 -46 -56 -120 -146 -164 -199 -44 -54 -138 -169 -210 -256 -71 -87 -152
-186 -180 -220 -27 -34 -66 -81 -85 -104 -19 -23 -91 -110 -160 -194 -69 -85
-163 -199 -209 -255 -46 -55 -127 -155 -180 -220 -53 -65 -121 -149 -151 -186
-30 -37 -99 -121 -152 -186 -54 -65 -127 -155 -164 -199 -36 -44 -108 -132
-159 -195 -135 -168 -168 -203 -187 -199 -17 4 14 44 220 292 31 38 71 86 87
107 17 21 66 82 110 135 44 53 134 163 200 244 66 81 156 191 200 245 44 53
94 114 110 135 17 21 70 88 120 147 100 122 213 260 335 409 100 123 144 177
311 380 72 88 165 203 207 255 42 52 82 101 90 109 7 8 38 44 67 80 104 129
237 290 589 715 59 72 126 154 147 181 21 28 47 59 57 70 16 16 137 164 174
211 5 7 -3 26 -22 49 -47 59 -34 77 22 30z m-1347 -10 c0 -15 -76 -37 -104
-30 -29 7 -18 20 29 33 42 12 75 11 75 -3z m-278 -69 c4 -30 2 -46 -5 -46 -24
0 -44 73 -28 98 13 22 28 -1 33 -52z m141 42 c-5 -15 -86 -38 -106 -30 -9 3
-10 8 -2 18 19 22 115 33 108 12z m-208 -17 c11 -22 13 -74 3 -85 -4 -4 -14 2
-23 13 -14 19 -18 19 -70 5 -30 -8 -61 -12 -67 -9 -8 3 -13 -5 -13 -20 0 -57
-39 -30 -47 33 -6 48 12 65 29 27 8 -18 16 -24 27 -19 56 23 99 32 110 21 8
-8 11 -7 12 4 1 7 2 19 4 24 1 6 3 13 3 18 3 14 21 7 32 -12z m1660 0 c0 -14
-60 -71 -75 -71 -23 0 -18 16 20 55 30 32 55 40 55 16z m250 -13 c31 -22 31
-38 1 -38 -9 0 -28 -12 -42 -27 l-24 -28 -3 40 c-2 22 -8 45 -13 51 -25 30 40
32 81 2z m224 -65 c3 -16 10 -75 16 -133 27 -267 81 -747 86 -761 2 -9 14 -19
24 -22 23 -6 27 -27 6 -27 -19 0 -23 -24 -16 -113 4 -69 -1 -99 -16 -84 -2 2
-10 44 -16 92 -11 79 -14 88 -37 97 l-26 9 23 18 24 17 -36 325 c-70 631 -68
609 -46 609 5 0 11 -12 14 -27z m-2370 -2 c7 -11 -38 -29 -79 -33 -21 -2 -30
1 -30 12 0 21 97 40 109 21z m-284 -83 c0 -41 -13 -49 -30 -19 -12 23 -13 74
-3 85 13 13 33 -27 33 -66z m2080 60 c0 -16 -61 -78 -77 -78 -22 0 -15 22 19
57 32 34 58 43 58 21z m-1940 -8 c0 -13 -28 -26 -72 -34 -38 -7 -57 4 -35 22
22 18 107 28 107 12z m-346 -52 c9 -36 7 -88 -4 -88 -14 0 -30 44 -30 81 0 35
25 40 34 7z m153 5 c4 -12 -55 -33 -95 -33 -34 0 -22 23 19 37 40 14 71 13 76
-4z m2409 -10 c50 -32 19 -45 -41 -16 -42 20 -49 49 -9 39 14 -4 37 -14 50
-23z m-365 -24 c32 -34 36 -49 15 -49 -20 0 -76 49 -76 66 0 24 31 15 61 -17z
m-2392 -20 c15 -43 14 -79 -2 -79 -18 0 -37 43 -37 80 0 40 25 39 39 -1z m146
12 c8 -13 -21 -27 -72 -36 -35 -5 -43 -4 -43 8 0 26 101 50 115 28z m2207 -42
c22 -22 28 -33 20 -41 -13 -13 -82 35 -82 58 0 24 30 16 62 -17z m362 -1 c-15
-51 -34 -88 -43 -88 -15 0 -14 35 3 75 17 40 52 50 40 13z m-2776 -6 c4 -13
-74 -36 -96 -27 -22 8 -3 25 40 35 39 9 50 8 56 -8z m4022 3 c0 -24 -57 -82
-69 -70 -8 8 -3 22 14 48 26 37 55 49 55 22z m-4162 -33 c4 -14 -39 -32 -79
-32 -50 0 -34 26 25 41 37 8 48 7 54 -9z m4212 4 c0 -8 -12 -28 -26 -45 -43
-51 -74 -35 -37 19 28 41 63 55 63 26z m-1710 -15 c0 -13 -39 -60 -60 -71 -33
-17 -32 7 1 44 29 34 59 47 59 27z m-2799 -52 c13 -41 3 -69 -20 -55 -13 9
-25 71 -17 92 9 23 24 8 37 -37z m139 27 c0 -15 -13 -21 -71 -31 -21 -4 -39
-3 -43 3 -8 13 7 23 48 33 49 11 66 10 66 -5z m4410 1 c0 -7 -13 -28 -29 -47
-23 -28 -32 -32 -42 -23 -9 10 -6 20 15 48 27 35 56 47 56 22z m-4610 -36 c15
-57 -6 -97 -28 -53 -13 24 -22 79 -15 86 16 16 33 3 43 -33z m-70 3 c16 -40
13 -84 -6 -84 -9 0 -18 9 -21 20 -6 24 -1 23 -53 5 -54 -19 -90 -19 -90 -1 0
18 63 39 101 34 24 -4 29 -1 29 17 0 42 26 48 40 9z m4730 8 c0 -18 -61 -93
-70 -87 -16 10 -12 26 16 62 23 30 54 45 54 25z m-1435 -19 c36 -17 43 -27 25
-38 -14 -9 -103 33 -95 45 9 14 29 12 70 -7z m-3485 -80 c0 -27 -4 -34 -17
-31 -20 4 -39 69 -28 96 6 15 8 15 26 -7 10 -13 19 -39 19 -58z m3020 41 c0
-15 -57 -74 -72 -74 -15 0 -8 23 18 57 26 35 54 44 54 17z m439 -21 c32 -19
42 -43 16 -43 -25 0 -85 33 -85 47 0 18 33 16 69 -4z m1524 -23 c25 -22 49
-40 54 -40 5 0 32 -20 59 -45 27 -25 53 -45 59 -45 17 -1 70 -49 62 -57 -10
-10 -76 26 -87 48 -5 9 -20 19 -34 23 -13 3 -38 22 -55 41 -17 19 -34 35 -39
35 -18 0 -93 61 -87 70 10 16 20 12 68 -30z m-5063 6 c0 -9 -19 -18 -52 -25
-52 -12 -80 -3 -56 16 29 24 108 30 108 9z m3000 -61 c27 -27 31 -38 22 -47
-10 -10 -20 -5 -48 24 -20 20 -33 41 -30 47 11 17 20 14 56 -24z m529 8 c15
-10 20 -18 13 -25 -13 -13 -106 27 -97 43 8 13 50 4 84 -18z m-43 -49 c42 -20
47 -49 7 -39 -55 13 -97 55 -57 55 9 0 31 -7 50 -16z m-526 -6 c0 -16 -61 -78
-77 -78 -22 0 -15 22 19 57 32 34 58 43 58 21z m489 -99 c-13 -38 -27 -59 -40
-59 -16 0 -9 44 12 79 26 43 44 30 28 -20z m-602 -1 c32 -31 43 -58 24 -58
-19 0 -71 52 -71 71 0 26 9 24 47 -13z m2519 -6 c-19 -37 -52 -66 -60 -53 -9
14 19 67 41 80 27 14 35 3 19 -27z m54 -13 c0 -24 -42 -79 -61 -79 -25 0 -24
7 7 52 26 36 54 51 54 27z m-2610 -34 c24 -25 31 -38 23 -46 -12 -12 -83 44
-83 67 0 24 25 15 60 -21z m2641 -38 c-21 -35 -44 -51 -55 -40 -12 13 -5 32
24 63 22 24 34 30 42 22 7 -7 4 -20 -11 -45z m-2060 -40 c-12 -27 -27 -47 -36
-47 -19 0 -19 2 0 47 20 47 36 66 47 55 5 -5 0 -29 -11 -55z m2119 36 c-1 -29
-46 -77 -64 -70 -19 8 -12 27 24 65 25 26 40 28 40 5z m-2750 -8 c0 -8 -15
-32 -34 -53 -27 -29 -37 -34 -47 -25 -10 10 -4 21 28 53 44 44 53 48 53 25z
m2800 -16 c0 -24 -42 -79 -61 -79 -25 0 -24 8 6 53 25 35 55 50 55 26z m40
-47 c0 -19 -45 -72 -60 -72 -18 0 -10 28 16 59 29 35 44 39 44 13z m-2941 -28
c32 -27 41 -54 18 -54 -16 0 -67 52 -67 68 0 19 16 14 49 -14z m711 -32 c21
-14 22 -17 7 -20 -28 -6 -87 18 -87 35 0 18 41 11 80 -15z m-767 -60 c-39 -52
-80 -57 -53 -6 16 29 63 58 69 42 2 -5 -5 -22 -16 -36z m746 3 c11 -11 12 -18
4 -26 -14 -14 -84 17 -91 40 -6 19 65 8 87 -14z m-40 -56 c25 -15 31 -23 21
-29 -19 -12 -100 21 -100 40 0 17 44 11 79 -11z m-785 -20 c24 -28 27 -49 6
-49 -12 0 -70 57 -70 69 0 22 39 10 64 -20z m-55 -35 c29 -24 42 -64 22 -64
-16 0 -71 58 -71 74 0 23 14 20 49 -10z m812 0 c35 -17 33 -40 -2 -36 -28 3
-69 28 -69 42 0 15 37 12 71 -6z m-851 -54 c33 -34 38 -50 14 -50 -21 0 -77
57 -69 70 10 17 24 12 55 -20z m801 -63 c-20 -47 -35 -59 -44 -34 -5 15 21 79
37 89 23 15 26 -10 7 -55z m-851 1 c0 -16 -61 -78 -77 -78 -17 0 -16 11 4 40
30 44 73 66 73 38z m-95 -95 c27 -30 33 -53 13 -53 -14 0 -78 59 -78 72 0 18
41 6 65 -19z m890 -30 c-8 -35 -32 -73 -45 -73 -14 0 -12 13 6 60 19 47 50 57
39 13z m-935 -26 c0 -7 -16 -28 -35 -47 -27 -26 -38 -31 -47 -22 -9 9 -4 20
22 47 35 36 60 45 60 22z m1898 -49 c-5 -14 -74 -29 -95 -21 -18 7 -16 21 5
26 39 10 94 7 90 -5z m-1012 -24 c38 -18 40 -41 3 -36 -31 3 -71 30 -64 42 9
14 22 12 61 -6z m-1021 -74 c-21 -22 -43 -40 -47 -40 -19 0 -5 35 28 68 26 26
38 32 47 23 8 -8 1 -21 -28 -51z m995 10 c49 -25 53 -45 8 -36 -40 8 -81 34
-73 46 9 14 21 12 65 -10z m1013 -22 c3 -24 2 -47 -3 -52 -14 -14 -19 -5 -26
47 -5 38 -4 47 8 47 10 0 17 -14 21 -42z m-2075 -41 c24 -23 29 -47 9 -47 -19
0 -70 57 -62 69 7 13 20 7 53 -22z m1032 7 c35 -14 56 -44 30 -44 -24 0 -90
34 -90 46 0 18 11 18 60 -2z m-1080 -66 c0 -16 -51 -68 -67 -68 -20 0 -16 15
13 49 26 31 54 41 54 19z m1050 -40 c-16 -40 -29 -58 -42 -58 -14 0 -2 54 18
85 24 37 41 17 24 -27z m1125 32 c8 -12 -8 -18 -59 -22 -45 -3 -62 18 -19 25
53 8 72 7 78 -3z m-2271 -91 c29 -35 33 -49 12 -49 -18 0 -77 61 -70 72 10 16
33 7 58 -23z m2276 22 c0 -11 -36 -21 -77 -21 -33 0 -45 14 -20 23 21 9 97 7
97 -2z m2556 -38 c63 -56 61 -55 83 -42 31 20 36 3 10 -36 -33 -47 -53 -55
-46 -16 5 24 2 31 -13 36 -25 8 -80 54 -80 66 0 15 25 10 46 -8z m-4878 -26
c12 -11 22 -29 22 -39 0 -22 -4 -22 -36 -2 -29 20 -48 50 -39 64 7 12 20 6 53
-23z m1142 2 c0 -31 -30 -89 -46 -89 -19 0 -18 13 7 65 23 48 39 58 39 24z
m1154 -30 c9 -49 7 -69 -8 -69 -15 0 -26 30 -26 73 0 38 26 35 34 -4z m-2328
-35 c20 -30 12 -42 -19 -25 -27 15 -50 48 -42 61 9 14 41 -5 61 -36z m5070 -2
c-9 -26 -45 -72 -57 -72 -19 0 -8 39 21 70 32 34 46 35 36 2z m-5126 -40 c0
-11 -70 -82 -81 -82 -17 0 -9 25 18 58 24 29 63 44 63 24z m1194 -25 l31 -22
-27 -3 c-34 -4 -88 23 -88 44 0 21 42 11 84 -19z m3987 -4 c40 -29 54 -58 22
-46 -31 11 -73 46 -73 60 0 18 7 17 51 -14z m-2756 -4 c10 -15 4 -18 -44 -21
-27 -2 -45 2 -48 9 -7 20 80 32 92 12z m-1254 -49 c25 -14 24 -30 -1 -30 -25
0 -80 27 -80 39 0 22 27 19 81 -9z m1269 -19 c0 -13 -26 -21 -65 -21 -33 0
-51 11 -38 24 10 9 103 7 103 -3z m-2550 -13 c0 -16 -61 -78 -77 -78 -21 0
-15 17 18 55 31 35 59 46 59 23z m1213 -90 c-16 -35 -40 -85 -52 -112 -15 -33
-25 -46 -32 -39 -7 7 -1 33 20 81 17 39 31 74 31 79 0 4 9 23 21 42 15 24 23
31 31 23 8 -8 3 -28 -19 -74z m1312 -4 c4 -27 2 -51 -3 -56 -13 -13 -21 1 -28
56 -6 37 -4 46 9 46 10 0 17 -15 22 -46z m-2625 -12 c0 -20 -57 -74 -75 -71
-17 4 -15 8 14 42 30 34 61 49 61 29z m2634 -108 c9 -24 7 -94 -3 -94 -11 0
-21 36 -21 78 0 34 14 43 24 16z m-1404 -66 c-1 -22 -34 -81 -47 -86 -18 -5
-16 21 4 63 16 34 44 48 43 23z m1456 -67 c-8 -12 -82 -25 -96 -16 -21 13 3
25 51 25 28 0 48 -4 45 -9z m-26 -88 c0 -16 3 -38 6 -50 5 -16 2 -23 -9 -23
-9 0 -17 14 -21 38 -9 54 -8 62 9 62 10 0 15 -10 15 -27z m-1500 -2 c0 -15
-29 -79 -39 -85 -19 -12 -21 13 -5 53 9 23 22 41 30 41 8 0 14 -4 14 -9z
m1540 -111 c21 -13 10 -19 -39 -22 -47 -3 -70 17 -29 25 40 7 53 7 68 -3z
m-1590 -9 c0 -20 -40 -101 -50 -101 -21 0 -10 46 23 98 9 14 27 16 27 3z
m1610 -60 c0 -10 -35 -21 -72 -21 -27 0 -43 12 -31 24 10 9 103 7 103 -3z
m-1653 -62 c24 -15 31 -24 22 -29 -20 -13 -104 24 -94 41 10 15 35 11 72 -12z
m1621 -52 c3 -53 -12 -64 -22 -16 -9 49 -7 71 7 67 6 -3 13 -25 15 -51z
m-1664 9 c36 -15 52 -31 38 -40 -11 -7 -92 31 -92 44 0 14 14 13 54 -4z m-31
-122 c-9 -21 -23 -46 -31 -55 -11 -15 -10 -19 9 -33 34 -23 14 -32 -34 -15
-43 16 -59 46 -21 42 15 -2 23 7 33 35 19 55 41 86 52 75 7 -7 4 -24 -8 -49z
m1747 17 c0 -10 -89 -26 -97 -17 -3 2 -2 9 2 15 8 13 95 15 95 2z m-24 -106
c3 -25 4 -49 0 -52 -11 -11 -23 11 -30 55 -5 33 -3 42 8 42 10 0 17 -16 22
-45z m14 -165 c-1 -42 -2 -44 -15 -26 -15 20 -20 77 -8 89 12 13 23 -17 23
-63z m43 -91 c-14 -14 -86 -16 -90 -2 -3 8 11 13 39 15 49 4 64 0 51 -13z
m-21 -94 c1 -22 -1 -41 -7 -43 -12 -3 -28 66 -20 87 9 23 23 0 27 -44z m12
-106 c10 -51 7 -81 -6 -77 -8 3 -14 26 -16 56 -3 57 12 71 22 21z m14 -162 c2
-28 -1 -47 -7 -47 -6 0 -11 8 -11 19 0 10 -3 33 -7 51 -5 25 -3 32 8 28 9 -3
15 -22 17 -51z m16 -109 c9 -34 7 -78 -3 -78 -13 0 -21 26 -21 66 0 38 15 46
24 12z m56 -127 c0 -18 -94 -29 -104 -12 -4 5 0 12 6 14 22 9 98 7 98 -2z"/>
<path d="M11350 13360 c0 -792 -4 -1380 -9 -1380 -5 0 -11 -11 -13 -25 -3 -14
-1 -25 3 -25 5 0 9 9 9 20 0 11 4 20 9 20 11 0 41 -62 41 -83 0 -31 -21 -28
-35 5 -8 18 -14 27 -15 20 0 -7 -3 -11 -7 -9 -5 3 -14 -2 -21 -9 -12 -13 -10
-14 12 -8 l26 6 0 -230 0 -230 -22 -6 c-13 -3 -41 -6 -62 -6 -22 0 -37 -3 -34
-6 5 -5 205 6 406 22 67 5 74 8 83 31 l9 25 23 -24 c22 -23 23 -23 150 -15 71
5 131 6 134 3 16 -15 -19 -25 -112 -31 -136 -8 -165 -13 -165 -30 0 -24 -18
-26 -38 -5 -18 19 -23 19 -213 8 -107 -7 -186 -14 -176 -16 12 -2 17 -13 17
-38 0 -19 -4 -34 -10 -34 -5 0 -10 -9 -10 -20 0 -14 -7 -20 -22 -21 -13 0 -17
-3 -10 -6 18 -7 15 -21 -5 -26 -10 -2 -6 -3 10 -2 25 1 38 -17 20 -28 -5 -2
-2 -2 5 -1 6 2 13 2 14 1 1 -1 5 -276 8 -612 l5 -610 25 -70 c19 -54 37 -83
86 -135 61 -64 164 -130 205 -130 10 0 20 -4 23 -9 3 -5 25 -12 48 -16 24 -5
884 -10 1912 -12 l1868 -3 -6 25 c-3 13 -9 53 -12 87 -5 57 -29 178 -54 268
-16 59 -72 244 -81 265 -4 11 -13 40 -20 65 -6 25 -14 50 -19 55 -4 6 -11 21
-15 35 -4 14 -13 39 -20 55 -8 17 -28 73 -46 125 -17 52 -36 99 -40 105 -5 5
-9 15 -9 22 0 7 -18 49 -40 94 -22 45 -40 88 -40 95 0 7 -9 29 -20 49 -11 20
-20 41 -20 49 0 7 -22 57 -50 111 -27 54 -50 102 -50 108 0 13 -88 189 -104
207 -7 8 -16 27 -19 41 -4 14 -18 42 -32 63 -14 20 -25 41 -25 46 0 14 -26 12
-51 -2 -17 -11 -22 -10 -30 5 -7 12 -23 17 -57 17 -56 0 -85 14 -62 30 8 6 26
13 40 16 50 11 75 31 78 64 2 17 -2 38 -9 47 -14 16 -33 47 -45 73 -4 8 -19
33 -33 55 -14 22 -41 69 -59 105 -19 36 -47 81 -61 100 -15 19 -53 73 -84 120
-100 148 -147 213 -195 269 -116 135 -782 813 -857 873 -27 22 -102 90 -166
152 -181 174 -262 243 -490 418 -194 149 -478 348 -495 348 -4 0 -15 6 -23 14
-9 7 -36 25 -61 38 -25 14 -69 39 -98 57 -29 17 -56 31 -61 31 -4 0 -45 25
-92 56 -46 30 -127 75 -179 100 -52 25 -103 49 -113 55 -47 26 -235 119 -241
119 -3 0 -6 -621 -6 -1380z m1125 -1137 c7 -37 3 -49 -14 -39 -14 9 -33 84
-25 98 10 16 30 -15 39 -59z m-66 -2 c9 -29 10 -46 3 -53 -13 -13 -28 13 -37
66 -11 54 15 44 34 -13z m-200 -48 c13 -47 14 -63 1 -63 -12 0 -26 26 -35 68
-10 48 21 44 34 -5z m135 28 c6 -9 -35 -29 -69 -33 -35 -5 -31 17 5 29 43 15
57 16 64 4z m-194 -61 c0 -10 -62 -30 -95 -30 -11 0 -28 -7 -38 -15 -11 -7
-38 -16 -60 -20 -23 -4 -55 -13 -72 -20 -49 -22 -108 -30 -103 -15 5 16 61 38
98 40 14 0 33 7 44 15 10 8 39 17 65 21 25 4 59 13 76 20 35 16 85 18 85 4z
m-394 -77 c17 -23 19 -86 2 -81 -14 5 -40 77 -32 89 8 13 15 11 30 -8z m-57
-34 c14 -40 14 -69 1 -69 -11 0 -24 29 -36 75 -9 38 22 32 35 -6z m-60 -28 c6
-19 11 -40 11 -47 0 -20 -28 -17 -33 4 -14 49 -17 74 -11 83 8 14 19 1 33 -40z
m-71 2 c23 -57 25 -83 9 -83 -16 0 -37 54 -37 93 0 26 16 20 28 -10z m-53 -43
c6 -10 -29 -27 -79 -37 -41 -8 -30 17 15 33 43 16 56 17 64 4z m2480 -383 c0
-65 -19 -64 -23 2 -2 40 0 52 10 49 8 -3 13 -22 13 -51z m560 38 c0 -11 -502
-51 -512 -41 -4 4 -2 11 3 16 8 8 82 13 358 26 43 2 81 6 84 9 10 10 67 1 67
-10z m-764 -52 c3 -40 -5 -63 -16 -51 -10 10 -18 77 -11 94 10 27 25 4 27 -43z
m-207 21 c10 -25 7 -82 -5 -89 -6 -4 -13 2 -16 14 -5 19 -13 21 -69 21 -35 0
-64 4 -64 9 0 10 49 21 92 21 21 0 31 6 35 20 6 24 19 26 27 4z m346 -4 c21
-13 9 -20 -49 -27 -36 -4 -51 -2 -51 6 0 24 72 39 100 21z m-200 -19 c0 -13
-27 -21 -71 -21 -37 0 -48 8 -32 23 10 10 103 8 103 -2z m-952 -70 c2 -40 0
-52 -10 -49 -8 3 -14 25 -16 57 -2 40 0 52 10 49 8 -3 14 -25 16 -57z m58 35
c8 -32 1 -77 -11 -77 -10 0 -25 88 -16 96 10 11 21 4 27 -19z m557 9 c-3 -12
-207 -29 -231 -20 -32 12 11 25 81 24 37 -1 71 1 75 5 10 11 77 2 75 -9z
m-669 -17 c3 -13 6 -36 6 -51 0 -22 -4 -28 -17 -25 -24 4 -33 98 -10 98 8 0
17 -10 21 -22z m394 0 c-5 -15 -108 -24 -108 -10 0 17 14 22 63 22 34 0 47 -4
45 -12z m-797 -46 c7 -53 -5 -75 -27 -47 -12 16 -27 20 -71 20 -33 0 -58 5
-60 11 -5 14 29 24 80 24 31 0 40 4 44 20 9 33 28 17 34 -28z m55 24 c7 -31 2
-76 -11 -79 -10 -2 -28 81 -19 94 10 16 24 9 30 -15z m608 15 c8 -12 -18 -21
-64 -21 -37 0 -56 10 -43 24 10 9 101 7 107 -3z m-860 -23 c11 -41 7 -90 -6
-86 -8 3 -14 26 -16 56 -3 53 11 71 22 30z m534 0 c-5 -15 -108 -24 -108 -10
0 17 14 22 63 22 34 0 47 -4 45 -12z m-138 -7 c0 -12 -85 -26 -99 -16 -6 3 -9
11 -6 16 8 12 105 12 105 0z m1593 -92 c5 -18 12 -21 54 -19 69 4 85 1 78 -10
-3 -5 -32 -10 -65 -10 -53 0 -58 -2 -64 -25 -4 -14 -10 -25 -15 -25 -10 0 -23
88 -15 101 9 15 21 10 27 -12z m-603 -60 c0 -52 -12 -63 -31 -28 -10 19 -17
20 -64 14 -36 -4 -55 -2 -60 6 -12 18 15 29 71 29 44 0 52 3 57 21 10 37 27
10 27 -42z m58 17 c4 -50 -4 -72 -21 -57 -14 11 -21 76 -11 93 12 19 29 0 32
-36z m57 25 c5 -17 13 -18 65 -14 52 5 60 4 60 -11 0 -15 -9 -17 -57 -15 -50
3 -57 0 -64 -19 -16 -42 -39 -19 -39 37 0 42 23 57 35 22z m-455 -52 c0 -36
-4 -49 -12 -47 -14 5 -23 70 -14 95 11 28 26 1 26 -48z m1210 52 c0 -13 -26
-21 -65 -21 -33 0 -51 11 -38 24 10 9 103 7 103 -3z m-350 -16 c0 -11 -18 -14
-94 -13 -51 0 -98 -2 -105 -6 -6 -4 -19 -3 -28 3 -31 17 -10 20 185 29 31 2
42 -2 42 -13z m-1335 -14 c5 -16 17 -20 73 -23 37 -2 84 1 104 5 41 10 96 1
82 -13 -8 -8 -112 -17 -216 -19 -26 -1 -38 -6 -38 -15 0 -21 -21 -31 -31 -15
-10 16 -12 83 -2 92 11 12 21 8 28 -12z m-205 -11 c9 -17 21 -20 70 -20 33 0
60 -4 60 -10 0 -12 -56 -22 -95 -18 -25 2 -31 -1 -33 -20 -6 -42 -27 -16 -30
36 -3 54 9 68 28 32z m-256 -12 c8 -30 8 -73 -1 -81 -13 -14 -33 17 -33 53 0
52 22 71 34 28z m56 -29 c0 -66 -24 -62 -28 4 -2 37 0 47 12 47 12 0 16 -12
16 -51z m1028 39 c-5 -14 -80 -23 -105 -14 -30 12 0 26 53 26 40 0 55 -4 52
-12z m-204 -7 c8 -12 -19 -21 -65 -21 -28 0 -39 4 -39 15 0 11 12 15 49 15 28
0 52 -4 55 -9z m-1365 -19 c8 -15 23 -19 68 -21 31 -1 59 -4 62 -6 10 -11 -11
-17 -66 -20 -45 -1 -59 -6 -61 -19 -2 -9 -10 -16 -18 -16 -10 0 -14 13 -14 50
0 51 12 64 29 32z m-369 -56 c0 -33 -15 -64 -25 -54 -11 10 -18 86 -11 105 7
17 8 17 22 -1 8 -11 14 -34 14 -50z m50 3 c0 -36 -4 -49 -12 -47 -17 6 -27 59
-16 87 13 36 28 14 28 -40z m55 8 c0 -26 -4 -48 -10 -49 -12 -3 -22 48 -17 80
8 40 27 17 27 -31z m61 18 c7 -38 0 -65 -15 -65 -12 0 -25 64 -17 85 10 26 25
16 32 -20z m894 15 c0 -10 -85 -17 -108 -9 -14 6 -15 8 -2 13 39 14 110 12
110 -4z m-276 -10 c-13 -13 -244 -25 -244 -13 0 20 17 23 134 23 77 0 117 -3
110 -10z m-481 -15 c-2 -5 -25 -11 -53 -13 -46 -3 -60 4 -43 22 11 11 98 2 96
-9z"/>
<path d="M4735 14620 c-3 -5 -13 -10 -22 -10 -20 0 -575 -278 -673 -337 -119
-72 -333 -215 -361 -241 -14 -13 -46 -38 -71 -56 -179 -124 -265 -201 -615
-551 -205 -205 -373 -378 -373 -384 0 -15 -22 -44 -93 -121 -28 -32 -83 -95
-122 -141 -38 -45 -106 -122 -150 -170 -216 -235 -294 -330 -386 -466 -38 -56
-69 -105 -69 -109 0 -3 -13 -23 -28 -43 -16 -20 -39 -56 -53 -81 -13 -25 -29
-52 -35 -60 -7 -8 -48 -86 -92 -173 -44 -87 -85 -163 -90 -170 -16 -19 -102
-188 -102 -200 0 -6 -31 -75 -70 -153 -38 -78 -79 -168 -91 -200 -11 -33 -38
-96 -60 -141 -21 -44 -39 -85 -39 -90 0 -5 -9 -28 -20 -51 -11 -22 -20 -48
-20 -56 0 -8 -5 -18 -10 -21 -5 -3 -10 -15 -10 -25 0 -11 -9 -35 -20 -55 -11
-20 -20 -44 -20 -53 0 -10 -4 -22 -9 -27 -5 -6 -19 -39 -31 -75 -12 -36 -28
-78 -35 -95 -7 -16 -17 -42 -20 -58 -4 -15 -11 -30 -16 -33 -5 -3 -9 -18 -9
-35 0 -16 -4 -37 -9 -47 -17 -32 -63 -187 -68 -227 -3 -22 -9 -45 -14 -51 -10
-12 -32 -104 -50 -209 -6 -33 -17 -88 -25 -122 -8 -34 -14 -74 -14 -88 l0 -25
1825 0 c1900 0 1863 -1 1955 39 81 35 127 71 171 137 80 119 82 131 88 457 l6
288 -30 -3 c-48 -5 -38 24 13 41 34 10 46 11 55 2 9 -10 7 -16 -7 -27 -11 -8
-14 -14 -7 -14 7 0 19 6 27 14 7 8 22 13 31 12 10 -2 12 -1 6 1 -7 3 -13 12
-13 21 0 15 -2 15 -10 2 -6 -10 -10 -11 -10 -2 0 7 -12 12 -28 12 l-29 0 -6
502 c-4 275 -9 504 -13 507 -3 3 -56 8 -117 11 -109 5 -112 6 -115 29 l-4 24
194 -5 c106 -3 160 -3 121 -1 l-73 4 0 703 c0 1051 -12 2506 -21 2506 -4 0
-11 -4 -14 -10z m-113 -1821 c55 -14 75 -15 89 -6 10 6 21 8 25 4 8 -8 -12
-74 -28 -94 -13 -16 -28 -7 -28 17 0 13 -14 24 -47 36 -27 9 -52 21 -57 26 -6
4 -18 8 -28 8 -12 0 -18 7 -18 21 0 12 4 18 11 13 6 -3 43 -15 81 -25z"/>
<path d="M10969 13418 c-6 -18 -3 -46 3 -42 5 4 7 13 4 21 -5 11 -2 13 9 9 9
-3 13 -2 10 4 -5 9 -24 14 -26 8z"/>
<path d="M4871 12702 c-7 -13 -7 -22 1 -30 18 -18 32 -14 18 3 -7 9 -10 19 -6
22 6 6 61 -5 111 -23 13 -4 17 -4 10 3 -5 5 -30 15 -54 22 -23 7 -49 15 -56
17 -8 3 -18 -3 -24 -14z"/>
<path d="M4910 12656 c0 -2 30 -14 68 -27 37 -12 73 -27 81 -33 8 -6 16 -10
18 -8 10 7 34 0 49 -15 13 -13 16 -14 12 -3 -5 17 -228 101 -228 86z"/>
<path d="M5075 12650 c28 -12 37 -12 30 0 -3 6 -16 10 -28 9 -21 0 -21 -1 -2
-9z"/>
<path d="M11173 11890 c5 -14 18 -26 28 -26 9 0 15 4 12 9 -3 5 1 13 8 18 10
6 6 9 -14 9 -16 0 -26 4 -23 8 3 5 -1 9 -8 9 -10 0 -11 -7 -3 -27z"/>
<path d="M11278 11913 c6 -2 18 -2 25 0 6 3 1 5 -13 5 -14 0 -19 -2 -12 -5z"/>
<path d="M11131 11892 c-1 -32 26 -92 41 -92 9 0 10 2 2 8 -7 4 -19 30 -27 57
-9 29 -16 41 -16 27z"/>
<path d="M11265 11870 c-3 -6 1 -7 9 -4 18 7 21 14 7 14 -6 0 -13 -4 -16 -10z"/>
<path d="M9163 11835 c0 -22 2 -30 4 -17 2 12 2 30 0 40 -3 9 -5 -1 -4 -23z"/>
<path d="M11075 11860 c-19 -8 -19 -9 3 -9 12 -1 22 4 22 9 0 6 -1 10 -2 9 -2
0 -12 -4 -23 -9z"/>
<path d="M10935 11849 c-4 -6 -5 -12 -2 -15 2 -3 7 2 10 11 7 17 1 20 -8 4z"/>
<path d="M10965 11850 c3 -5 11 -10 16 -10 6 0 7 5 4 10 -3 6 -11 10 -16 10
-6 0 -7 -4 -4 -10z"/>
<path d="M11000 11833 c0 -18 4 -33 10 -33 5 0 7 6 4 13 -3 8 5 19 18 26 15 8
17 10 4 6 -11 -3 -23 0 -28 7 -5 8 -8 1 -8 -19z"/>
<path d="M11117 11840 c3 -11 9 -20 15 -20 5 0 4 9 -2 20 -6 11 -12 20 -14 20
-2 0 -2 -9 1 -20z"/>
<path d="M9202 11815 c0 -16 2 -22 5 -12 2 9 2 23 0 30 -3 6 -5 -1 -5 -18z"/>
<path d="M11191 11814 c0 -11 3 -14 6 -6 3 7 2 16 -1 19 -3 4 -6 -2 -5 -13z"/>
<path d="M9535 11780 c3 -5 8 -10 11 -10 2 0 4 5 4 10 0 6 -5 10 -11 10 -5 0
-7 -4 -4 -10z"/>
<path d="M10991 11773 c-1 -27 -16 -30 -30 -5 -9 15 -10 16 -11 0 0 -16 36
-35 47 -25 2 3 3 16 0 29 -4 23 -4 23 -6 1z"/>
<path d="M9191 11754 c0 -11 3 -14 6 -6 3 7 2 16 -1 19 -3 4 -6 -2 -5 -13z"/>
<path d="M9446 11678 c-20 -23 -34 -48 -32 -55 7 -18 -4 -16 -26 4 -13 12 -22
13 -29 6 -8 -8 -7 -13 2 -18 8 -5 10 -4 5 3 -11 19 2 14 24 -8 21 -21 46 -28
35 -10 -3 6 2 10 13 10 10 0 27 9 37 20 10 11 23 17 29 13 6 -3 8 -3 4 2 -4 4
-1 20 7 35 13 25 13 29 -1 34 -26 10 -31 7 -68 -36z m34 -23 c-32 -33 -60 -45
-60 -27 0 4 16 25 35 47 27 29 39 35 47 27 9 -9 4 -20 -22 -47z"/>
<path d="M8857 11673 c-10 -9 -9 -23 1 -23 5 0 9 7 9 15 0 17 -1 18 -10 8z"/>
<path d="M9146 11635 c-3 -9 0 -12 9 -9 10 4 15 -5 18 -33 l4 -38 1 41 c2 42
-20 69 -32 39z"/>
<path d="M8828 11604 c-21 -19 -34 -34 -30 -34 10 0 76 59 71 64 -2 3 -21 -11
-41 -30z"/>
<path d="M8923 11610 c-26 -11 -29 -27 -8 -54 19 -25 19 -36 0 -36 -21 0 -28
-21 -16 -51 10 -23 10 -23 8 6 -2 24 2 31 20 33 22 3 22 5 8 32 -27 52 -13 83
17 38 13 -19 15 -20 21 -4 4 10 3 15 -3 11 -9 -6 -14 8 -11 28 1 9 -8 8 -36
-3z"/>
<path d="M9127 11581 c-4 -18 -7 -45 -6 -60 1 -17 4 -11 10 19 5 25 8 52 6 60
-2 8 -6 0 -10 -19z"/>
<path d="M8760 11591 c0 -6 4 -13 10 -16 6 -3 7 1 4 9 -7 18 -14 21 -14 7z"/>
<path d="M9350 11591 c0 -5 6 -12 13 -14 9 -4 8 -8 -3 -16 -10 -7 -11 -11 -2
-11 22 0 13 -29 -18 -56 -16 -15 -27 -31 -24 -35 5 -8 0 -10 -23 -9 -16 1 -1
46 24 71 18 20 21 29 12 34 -7 5 -10 4 -6 -2 4 -6 -6 -21 -22 -34 -16 -13 -28
-26 -25 -30 2 -4 -3 -9 -11 -13 -8 -3 -17 -1 -20 4 -4 6 -1 10 6 10 7 0 10 3
7 6 -4 3 -18 -2 -32 -11 -25 -17 -26 -18 -9 -46 10 -16 21 -29 26 -29 4 0 5
-4 2 -10 -3 -5 -1 -11 4 -11 6 -1 17 -2 24 -3 21 -2 16 -44 -7 -51 -15 -5 -17
-8 -7 -12 8 -3 23 4 34 18 l19 24 -46 38 c-45 39 -59 67 -32 67 8 0 39 -27 70
-60 47 -52 59 -60 81 -54 14 3 25 10 25 15 0 5 -11 4 -24 -1 -32 -12 -70 25
-55 53 7 12 7 22 0 31 -9 10 -5 18 16 31 15 10 33 18 40 18 7 0 10 4 8 8 -8
12 24 32 44 26 13 -3 18 0 15 8 -3 7 -14 11 -25 8 -22 -6 -52 14 -42 30 3 6 1
7 -5 3 -7 -4 -12 -2 -12 3 0 6 -4 11 -10 11 -5 0 -10 -4 -10 -9z m40 -61 c-6
-11 -13 -20 -16 -20 -2 0 0 9 6 20 6 11 13 20 16 20 2 0 0 -9 -6 -20z m-68
-106 c-7 -12 -11 -13 -17 -4 -4 7 -2 16 6 21 18 11 23 4 11 -17z"/>
<path d="M8976 11551 c-3 -4 1 -17 10 -27 14 -18 15 -18 5 2 -6 12 -7 24 -4
28 3 3 4 6 0 6 -3 0 -8 -4 -11 -9z"/>
<path d="M9162 11520 c0 -14 2 -19 5 -12 2 6 2 18 0 25 -3 6 -5 1 -5 -13z"/>
<path d="M9110 11466 c0 -14 -4 -27 -9 -30 -5 -3 -7 -15 -4 -25 3 -10 -1 -22
-8 -27 -9 -5 -11 -2 -6 9 4 11 2 14 -7 11 -8 -3 -18 7 -26 26 -7 17 -17 33
-22 36 -12 7 17 -50 45 -89 25 -36 34 -26 42 42 3 30 8 58 11 63 3 4 0 8 -5 8
-6 0 -11 -11 -11 -24z"/>
<path d="M9153 11404 c0 -45 2 -51 19 -46 16 4 16 6 4 16 -8 6 -17 27 -19 46
-3 24 -4 19 -4 -16z"/>
<path d="M9645 11440 c-13 -6 -15 -9 -5 -9 8 0 22 4 30 9 18 12 2 12 -25 0z"/>
<path d="M8893 11430 c2 -8 12 -16 23 -17 13 -2 15 -1 4 4 -8 3 -19 11 -23 17
-6 7 -7 6 -4 -4z"/>
<path d="M9574 11415 c-16 -13 -17 -16 -4 -25 8 -5 22 -9 30 -9 11 1 10 3 -2
6 -25 6 -22 22 5 33 13 5 16 9 6 9 -8 1 -24 -6 -35 -14z"/>
<path d="M9700 11415 c-11 -13 -10 -14 4 -9 9 3 16 10 16 15 0 13 -6 11 -20
-6z"/>
<path d="M5050 11410 c-21 -7 -18 -8 18 -9 26 -1 41 3 37 9 -7 11 -19 11 -55
0z"/>
<path d="M8956 11408 c3 -5 12 -7 20 -4 9 3 14 -1 14 -12 0 -14 2 -15 9 -2 13
19 6 28 -24 28 -13 0 -22 -5 -19 -10z"/>
<path d="M8786 11391 c-18 -19 -13 -46 9 -55 8 -3 17 0 21 7 4 7 4 9 -1 5 -7
-7 -35 14 -35 28 0 3 17 4 38 1 36 -5 36 -5 9 7 -15 7 -24 15 -21 19 4 4 5 7
2 7 -3 0 -12 -8 -22 -19z"/>
<path d="M10995 11400 c-8 -13 5 -13 25 0 13 8 13 10 -2 10 -9 0 -20 -4 -23
-10z"/>
<path d="M11083 11403 c15 -2 37 -2 50 0 12 2 0 4 -28 4 -27 0 -38 -2 -22 -4z"/>
<path d="M9658 11393 c7 -3 16 -2 19 1 4 3 -2 6 -13 5 -11 0 -14 -3 -6 -6z"/>
<path d="M6405 11369 c-22 -3 28 -6 110 -6 148 0 150 4 5 9 -41 2 -93 0 -115
-3z"/>
<path d="M9438 11373 c7 -3 16 -2 19 1 4 3 -2 6 -13 5 -11 0 -14 -3 -6 -6z"/>
<path d="M11148 11373 c7 -3 16 -2 19 1 4 3 -2 6 -13 5 -11 0 -14 -3 -6 -6z"/>
<path d="M11218 11373 c12 -2 32 -2 45 0 12 2 2 4 -23 4 -25 0 -35 -2 -22 -4z"/>
<path d="M4853 11363 c32 -2 81 -2 110 0 29 2 3 3 -58 3 -60 0 -84 -1 -52 -3z"/>
<path d="M6710 11359 c14 -4 79 -7 145 -7 66 0 113 2 105 4 -31 6 -274 10
-250 3z"/>
<path d="M8890 11355 c47 -18 74 -18 31 0 -18 8 -41 15 -50 14 -9 0 0 -7 19
-14z"/>
<path d="M8994 11358 c4 -13 0 -18 -17 -18 -20 -1 -20 -2 -4 -11 10 -6 24 -9
32 -7 11 3 11 7 -1 28 -9 14 -13 17 -10 8z"/>
<path d="M9470 11363 c0 -6 -13 -16 -30 -22 -39 -13 -38 -18 3 -18 17 0 26 2
19 5 -10 3 -8 8 5 17 10 7 15 17 10 21 -4 4 -7 3 -7 -3z"/>
<path d="M10998 11363 c12 -2 32 -2 45 0 12 2 2 4 -23 4 -25 0 -35 -2 -22 -4z"/>
<path d="M11088 11363 c7 -3 16 -2 19 1 4 3 -2 6 -13 5 -11 0 -14 -3 -6 -6z"/>
<path d="M7058 11353 c7 -3 16 -2 19 1 4 3 -2 6 -13 5 -11 0 -14 -3 -6 -6z"/>
<path d="M7114 11349 c-3 -5 21 -9 52 -9 32 0 55 2 52 5 -9 10 -98 13 -104 4z"/>
<path d="M10823 11353 c-87 -6 -60 -22 44 -25 62 -2 98 -7 100 -15 2 -6 -6
-13 -19 -16 -21 -4 -20 -4 4 -6 29 -1 41 10 33 31 -7 18 -54 38 -84 36 -15 -1
-50 -3 -78 -5z m110 -10 c-7 -2 -19 -2 -25 0 -7 3 -2 5 12 5 14 0 19 -2 13 -5z"/>
<path d="M9197 11336 c-10 -25 -10 -26 18 -26 14 0 25 5 25 10 0 6 -6 10 -14
10 -8 0 -16 5 -18 12 -3 7 -7 5 -11 -6z"/>
<path d="M10590 11330 c-40 -6 -36 -7 32 -8 42 -1 80 3 83 8 7 11 -43 11 -115
0z"/>
<path d="M6477 11313 c18 -2 50 -2 70 0 21 2 7 4 -32 4 -38 0 -55 -2 -38 -4z"/>
<path d="M6598 11313 c6 -2 18 -2 25 0 6 3 1 5 -13 5 -14 0 -19 -2 -12 -5z"/>
<path d="M6693 11313 c20 -2 54 -2 75 0 20 2 3 4 -38 4 -41 0 -58 -2 -37 -4z"/>
<path d="M9377 11314 c-14 -14 6 -24 49 -24 25 0 43 4 40 8 -3 5 -19 7 -36 4
-18 -2 -30 0 -30 7 0 12 -13 15 -23 5z"/>
<path d="M9600 11310 c-11 -7 -7 -10 17 -10 17 0 35 5 38 10 8 13 -35 13 -55
0z"/>
<path d="M9743 11313 c9 -2 25 -2 35 0 9 3 1 5 -18 5 -19 0 -27 -2 -17 -5z"/>
<path d="M6908 11303 c6 -2 18 -2 25 0 6 3 1 5 -13 5 -14 0 -19 -2 -12 -5z"/>
<path d="M6981 11306 c9 -9 89 -24 84 -16 -3 5 5 11 17 13 13 2 -6 5 -41 6
-35 0 -62 -1 -60 -3z"/>
<path d="M7133 11303 c9 -2 25 -2 35 0 9 3 1 5 -18 5 -19 0 -27 -2 -17 -5z"/>
<path d="M9513 11303 c15 -2 37 -2 50 0 12 2 0 4 -28 4 -27 0 -38 -2 -22 -4z"/>
<path d="M10997 11293 c-4 -3 -7 -28 -7 -54 0 -37 4 -51 18 -58 21 -11 42 3
42 29 0 12 9 15 38 14 24 -1 27 0 9 3 -46 7 -25 28 32 31 28 2 49 7 46 12 -6
9 -82 2 -107 -12 -14 -7 -19 -3 -24 17 -6 24 -32 34 -47 18z m40 -29 c14 -30
1 -78 -20 -72 -17 6 -22 98 -5 98 7 0 18 -12 25 -26z"/>
<path d="M9503 11262 c-6 -4 8 -7 32 -7 24 0 38 3 32 7 -7 4 -21 8 -32 8 -11
0 -25 -4 -32 -8z"/>
<path d="M8755 11250 c4 -6 11 -8 16 -5 14 9 11 15 -7 15 -8 0 -12 -5 -9 -10z"/>
<path d="M8792 11245 c-10 -12 -10 -15 0 -16 7 0 1 -5 -13 -10 -16 -6 -29 -20
-31 -32 -4 -23 -3 -23 60 -15 36 4 68 10 71 14 3 3 -23 2 -58 -2 -51 -5 -63
-4 -59 6 4 14 17 19 98 41 45 12 45 12 15 20 -48 11 -69 9 -83 -6z"/>
<path d="M9748 11253 c12 -2 30 -2 40 0 9 3 -1 5 -23 4 -22 0 -30 -2 -17 -4z"/>
<path d="M9353 11243 c26 -2 67 -2 90 0 23 2 2 3 -48 3 -49 0 -68 -1 -42 -3z"/>
<path d="M9603 11243 c9 -2 23 -2 30 0 6 3 -1 5 -18 5 -16 0 -22 -2 -12 -5z"/>
<path d="M9200 11232 c0 -8 59 -59 122 -104 21 -16 38 -25 38 -22 0 9 -41 44
-51 44 -4 0 -28 18 -53 39 -36 31 -42 41 -28 44 12 3 11 5 -5 6 -13 0 -23 -3
-23 -7z"/>
<path d="M11155 11230 l-20 -9 20 0 c11 0 27 4 35 9 13 9 13 10 0 9 -8 0 -24
-4 -35 -9z"/>
<path d="M8920 11200 c0 -5 7 -10 15 -10 9 0 24 -13 33 -30 9 -16 20 -30 25
-30 4 0 0 12 -10 28 -26 43 -63 67 -63 42z"/>
<path d="M9143 11185 c-3 -9 -3 -19 1 -22 3 -4 6 1 6 10 0 10 3 17 8 17 7 0
81 -53 175 -125 26 -21 50 -35 52 -33 7 7 -211 168 -226 168 -5 0 -12 -7 -16
-15z"/>
<path d="M9305 11170 c3 -5 8 -10 11 -10 2 0 4 5 4 10 0 6 -5 10 -11 10 -5 0
-7 -4 -4 -10z"/>
<path d="M9074 11123 c-9 -21 -24 -58 -35 -82 -11 -24 -18 -46 -15 -48 2 -2
13 20 26 49 12 29 29 62 37 73 14 19 15 19 10 -7 -2 -15 0 -25 4 -22 5 3 9
-11 9 -31 0 -67 22 -174 37 -179 17 -7 33 1 33 16 0 7 -5 6 -14 -1 -20 -17
-24 -7 -35 95 -19 155 -22 174 -32 174 -6 0 -17 -17 -25 -37z"/>
<path d="M9157 11061 c3 -51 9 -105 14 -120 9 -28 5 34 -11 149 -8 57 -8 53
-3 -29z"/>
<path d="M8922 11048 c-47 -63 -51 -73 -38 -86 12 -12 18 -13 29 -4 8 7 18 8
22 4 5 -4 6 -2 3 3 -3 6 3 19 14 30 19 20 19 20 9 -8 -6 -16 -10 -40 -10 -55
1 -20 2 -22 6 -7 2 11 11 37 19 58 23 60 17 64 -29 19 -23 -23 -46 -42 -50
-42 -19 0 -2 37 43 91 28 33 50 62 50 65 0 16 -22 -6 -68 -68z"/>
<path d="M9376 11102 c-3 -5 8 -22 25 -38 27 -26 28 -29 12 -36 -16 -7 -16 -8
2 -5 31 4 29 30 -4 52 -16 10 -27 23 -25 27 3 4 3 8 0 8 -3 0 -7 -4 -10 -8z"/>
<path d="M8997 10946 c-12 -27 -13 -37 -4 -42 7 -4 9 -4 5 1 -4 4 -2 17 3 28
9 16 13 17 20 6 10 -17 11 -2 0 24 -6 15 -9 13 -24 -17z"/>
<path d="M5036 10424 c-3 -8 -10 -13 -16 -9 -5 3 -3 -7 5 -22 20 -37 20 -83 0
-83 -8 0 -19 9 -25 20 -6 11 -15 18 -21 14 -6 -3 2 -17 17 -31 l28 -26 17 21
c9 12 19 19 21 16 3 -3 1 13 -5 34 -12 46 -4 77 19 68 8 -3 12 -2 9 4 -10 16
-42 12 -49 -6z"/>
<path d="M4977 10400 c-3 -13 -14 -20 -29 -20 -12 -1 -36 -7 -53 -15 l-30 -14
30 7 c17 4 44 7 62 6 27 0 32 3 35 28 5 32 -7 38 -15 8z"/>
<path d="M10968 9903 c-24 -6 -23 -36 2 -58 12 -11 20 -13 20 -6 0 6 -7 14
-15 17 -25 10 -18 36 8 29 15 -4 18 -3 8 3 -11 8 -11 10 0 15 17 6 1 7 -23 0z"/>
<path d="M11024 9872 c-7 -4 -1 -15 18 -30 15 -13 28 -19 28 -13 0 6 -6 11
-12 11 -7 0 -5 5 5 11 19 11 23 29 6 29 -5 0 -7 -4 -4 -10 3 -5 1 -10 -4 -10
-6 0 -14 0 -18 0 -5 0 -7 5 -5 10 2 12 1 12 -14 2z"/>
<path d="M11041 9798 c19 -19 51 -45 72 -57 32 -20 38 -28 33 -47 -5 -19 -1
-27 18 -36 14 -6 27 -18 29 -27 3 -10 5 -7 6 7 1 33 38 82 62 82 24 0 24 -5
-2 -41 -21 -31 -30 -58 -22 -72 3 -4 13 9 24 29 10 20 16 41 13 45 -3 5 0 9 5
9 6 0 11 9 11 20 0 15 -7 20 -25 20 -16 0 -25 6 -25 15 0 8 -5 15 -11 15 -5 0
-7 -5 -4 -10 4 -6 -5 -26 -19 -44 -14 -19 -22 -37 -18 -41 4 -4 -3 -2 -15 4
-22 11 -22 13 -7 36 9 13 12 30 8 36 -4 7 -3 9 2 6 6 -3 16 -1 24 5 13 8 12 9
-1 5 -18 -6 -92 39 -85 51 2 4 -4 8 -15 8 -16 0 -13 -5 13 -28 18 -15 36 -28
41 -28 4 0 7 -7 7 -15 0 -14 -4 -14 -31 1 -18 9 -43 27 -56 40 -13 13 -33 29
-45 35 -14 7 -9 -1 13 -23z"/>
<path d="M11309 9691 c19 -12 5 -49 -32 -83 -16 -16 -22 -26 -13 -22 9 3 16 1
16 -5 0 -6 12 -16 26 -21 14 -6 23 -14 19 -19 -3 -5 4 -13 16 -16 23 -7 55 15
64 46 4 11 12 16 23 13 10 -4 13 -3 6 3 -6 4 -10 17 -9 29 1 16 -3 20 -22 16
-16 -3 -23 0 -23 12 0 16 -11 20 -40 16 -8 -1 -12 1 -8 6 9 9 -10 34 -26 34
-6 0 -5 -4 3 -9z m61 -48 c0 -18 -47 -73 -62 -73 -23 0 -23 7 5 47 19 29 57
46 57 26z m40 -33 c0 -18 -45 -80 -57 -80 -21 0 -15 26 13 59 26 31 44 40 44
21z"/>
<path d="M11404 9548 c-4 -6 6 -23 24 -39 17 -15 27 -31 24 -35 -4 -4 -1 -4 7
1 11 7 9 13 -12 29 -26 21 -36 46 -18 46 4 0 21 -9 37 -21 l29 -21 -28 26
c-30 28 -52 33 -63 14z"/>
<path d="M11511 9493 c13 -22 49 -38 49 -22 0 5 -8 9 -17 9 -16 0 -16 2 -3 11
13 9 13 10 -1 6 -9 -3 -22 0 -29 6 -9 9 -9 6 1 -10z"/>
<path d="M11515 9446 c53 -49 92 -70 101 -54 4 6 3 8 -4 5 -5 -4 -32 10 -59
31 -67 53 -86 62 -38 18z"/>
<path d="M11596 9441 c-3 -5 2 -15 12 -22 15 -12 16 -12 5 2 -7 9 -10 19 -6
22 3 4 4 7 0 7 -3 0 -8 -4 -11 -9z"/>
<path d="M11674 9392 c4 -7 1 -12 -8 -12 -27 0 -28 -20 -2 -50 13 -17 27 -26
30 -21 3 5 -5 16 -19 25 -28 18 -33 36 -11 36 20 0 29 17 15 26 -8 4 -9 3 -5
-4z"/>
<path d="M11690 9366 c0 -3 38 -35 85 -71 69 -54 89 -65 107 -59 13 4 26 7 31
6 14 -4 7 16 -9 22 -23 9 -31 7 -14 -4 10 -6 5 -9 -18 -8 -34 1 -98 48 -84 63
4 4 -1 5 -10 2 -9 -3 -18 -3 -20 1 -4 9 -68 54 -68 48z"/>
<path d="M11704 9298 c-4 -6 -3 -8 3 -5 16 10 55 -23 48 -42 -5 -12 -4 -13 6
-4 10 10 9 16 -1 28 -21 26 -48 37 -56 23z"/>
<path d="M11775 9240 c-3 -5 -1 -10 4 -10 6 0 11 5 11 10 0 6 -2 10 -4 10 -3
0 -8 -4 -11 -10z"/>
<path d="M672 9077 c-6 -7 -13 -37 -17 -67 -3 -30 -12 -86 -20 -125 -18 -94
-35 -239 -35 -308 0 -31 -4 -58 -8 -61 -5 -3 -12 -56 -16 -118 -3 -62 -10
-178 -16 -258 -12 -198 -12 -506 1 -615 6 -49 14 -139 19 -200 9 -130 39 -352
50 -380 5 -11 11 -60 15 -110 4 -49 12 -103 20 -120 7 -16 16 -56 20 -89 4
-32 14 -84 22 -115 8 -31 18 -78 23 -106 8 -56 47 -209 60 -240 5 -11 14 -45
21 -75 7 -30 16 -59 21 -64 4 -6 8 -19 8 -29 0 -23 39 -137 52 -152 4 -5 8
-19 8 -31 0 -13 5 -26 10 -29 6 -3 10 -17 10 -31 0 -14 13 -53 29 -87 15 -34
34 -81 40 -104 6 -23 25 -67 41 -98 17 -32 30 -63 30 -70 0 -7 14 -39 30 -70
17 -31 30 -65 30 -75 0 -11 5 -22 10 -25 6 -3 10 -12 10 -20 0 -7 10 -37 23
-66 29 -71 225 -470 236 -483 5 -6 42 -74 81 -151 40 -77 77 -147 84 -155 7
-8 18 -28 26 -45 8 -16 62 -102 120 -190 57 -88 113 -176 124 -195 10 -19 31
-51 46 -70 15 -19 53 -73 86 -120 32 -47 75 -106 96 -131 21 -25 38 -48 38
-52 0 -8 206 -282 266 -352 27 -32 72 -84 99 -116 28 -31 75 -85 105 -119 96
-109 295 -320 318 -336 l22 -15 0 801 c0 874 -2 840 57 902 24 25 33 28 98 28
80 0 104 -12 129 -64 14 -31 16 -128 16 -1004 l0 -970 91 -74 c50 -40 107 -86
127 -101 55 -42 101 -78 151 -119 25 -21 49 -38 53 -38 5 0 50 -31 102 -70 52
-38 97 -70 101 -70 3 0 30 -18 60 -40 30 -22 56 -40 59 -40 3 0 51 -31 108
-68 57 -37 126 -79 153 -92 28 -13 62 -32 77 -42 15 -10 65 -38 112 -62 47
-23 91 -47 98 -53 7 -6 58 -34 113 -63 55 -29 118 -63 140 -76 22 -13 46 -24
53 -24 10 0 12 734 10 3708 l-3 3707 -23 78 c-41 142 -65 180 -145 232 -40 26
-101 57 -137 69 l-65 21 -1881 3 c-1530 2 -1883 0 -1892 -11z"/>
<path d="M11715 5934 c-76 -12 -266 -55 -319 -73 -96 -34 -316 -153 -402 -218
-85 -65 -292 -272 -314 -313 -7 -14 -26 -41 -41 -61 -34 -43 -149 -267 -149
-289 0 -9 -4 -20 -9 -25 -16 -16 -63 -204 -72 -285 -20 -181 -21 -234 -10
-361 19 -214 54 -347 138 -528 32 -68 57 -111 132 -225 45 -69 190 -225 249
-268 31 -23 73 -56 92 -74 19 -17 73 -51 120 -76 47 -24 94 -49 105 -55 31
-17 110 -53 118 -53 4 0 26 -8 50 -19 40 -18 108 -34 262 -62 94 -17 334 -23
409 -10 60 11 156 30 246 50 62 13 89 24 210 85 207 105 281 156 411 286 162
161 293 352 339 495 7 22 18 51 26 65 30 58 57 168 80 333 31 219 -7 523 -92
732 -81 196 -241 431 -377 550 -143 126 -215 175 -377 253 -151 73 -218 99
-279 108 -25 3 -71 13 -101 21 -54 15 -378 27 -445 17z m409 -110 c457 -76
864 -396 1049 -826 102 -238 138 -504 102 -753 -46 -319 -173 -573 -400 -801
-171 -171 -352 -282 -580 -353 -267 -83 -589 -80 -855 9 -98 32 -258 111 -341
167 -77 53 -239 189 -239 201 0 4 29 36 64 71 l64 64 -59 74 c-342 431 -353
1044 -26 1485 29 40 61 79 71 87 16 13 12 20 -51 84 l-68 69 75 70 c315 294
755 424 1194 352z m-1299 -534 l28 -29 -50 -73 c-95 -138 -170 -311 -209 -483
-25 -109 -30 -351 -10 -475 30 -188 100 -365 210 -530 31 -46 56 -86 56 -90 0
-3 -13 -18 -28 -33 l-28 -27 -21 22 c-77 86 -196 317 -238 463 -45 155 -58
270 -52 450 6 221 45 381 137 571 40 83 156 264 169 264 4 0 20 -13 36 -30z"/>
<path d="M11645 5733 c-98 -17 -236 -63 -332 -109 -79 -37 -224 -133 -288
-188 l-40 -35 33 -33 c23 -24 36 -30 46 -23 7 6 51 39 97 74 359 272 865 314
1274 106 126 -65 207 -125 323 -243 110 -111 112 -117 52 -142 -29 -12 -31
-11 -102 66 -138 147 -333 266 -523 319 -442 122 -920 -37 -1196 -400 -128
-169 -211 -376 -226 -561 l-6 -84 46 0 45 0 7 63 c19 162 86 346 176 478 55
82 187 214 264 266 455 305 1052 219 1390 -202 38 -47 72 -85 76 -85 4 0 40
19 80 42 83 48 76 52 135 -65 182 -357 160 -835 -52 -1173 -82 -130 -157 -218
-263 -306 -52 -43 -98 -78 -103 -78 -4 0 -16 17 -27 38 l-19 38 74 58 c229
181 390 474 419 769 l7 67 -51 0 -51 0 0 -42 c-1 -118 -69 -323 -152 -458
-204 -331 -605 -527 -985 -481 -438 53 -785 357 -892 781 -11 46 -21 87 -21
92 0 4 20 8 45 8 44 0 44 0 55 -42 24 -99 34 -127 70 -204 105 -226 287 -397
515 -485 117 -45 204 -61 340 -61 250 0 462 85 643 256 93 89 150 168 206 287
57 122 77 200 83 332 l6 107 94 0 95 0 -7 73 c-10 96 -46 236 -84 327 -18 41
-34 76 -36 78 -3 3 -45 -19 -83 -43 -1 -1 11 -31 27 -67 32 -69 71 -206 71
-245 0 -20 -5 -23 -43 -23 l-44 0 -16 78 c-66 303 -327 585 -627 676 -52 16
-201 46 -227 46 -10 0 -13 -25 -13 -94 l0 -93 -97 -6 c-452 -26 -778 -452
-689 -897 46 -227 194 -422 398 -524 108 -54 182 -75 293 -83 208 -15 421 65
573 215 128 128 201 276 224 457 39 312 -142 632 -437 770 -22 10 -67 26 -100
35 l-60 17 -3 47 -3 48 33 -7 c402 -89 693 -471 665 -875 -38 -521 -509 -885
-1013 -781 -301 62 -537 274 -636 571 -30 90 -32 104 -32 250 -1 180 10 233
79 376 124 257 381 441 658 471 l57 6 0 48 c0 57 6 55 -111 34 -207 -36 -361
-116 -510 -264 -166 -165 -260 -374 -276 -613 l-6 -98 -90 0 -90 0 6 -77 c28
-349 262 -697 588 -872 306 -165 697 -176 1010 -27 31 14 59 26 62 26 4 0 25
-36 47 -81 l41 -80 37 21 c315 185 549 512 622 871 107 523 -112 1063 -551
1355 -158 106 -304 166 -491 204 -117 24 -359 26 -483 3z"/>
<path d="M11020 3505 l-32 -33 33 -31 c58 -54 221 -159 311 -200 87 -41 207
-80 313 -102 94 -21 391 -18 493 4 84 19 232 66 271 86 l21 12 -20 39 c-11 22
-22 40 -23 40 -2 0 -40 -13 -85 -30 -184 -67 -449 -91 -632 -56 -191 37 -395
128 -538 241 l-80 63 -32 -33z"/>
</g>
</svg>
