<svg width='200' height='200' fill="#ffffff" xmlns="http://www.w3.org/2000/svg" xmlns:xlink="http://www.w3.org/1999/xlink" version="1.1" x="0px" y="0px" viewBox="0 0 128 128" style="enable-background:new 0 0 128 128;" xml:space="preserve"><g><path d="M21.401,71.525l0.055,15.971c0.004,1.102,0.898,1.993,2,1.993c0.002,0,0.005,0,0.007,0   c1.104-0.004,1.997-0.902,1.993-2.007l-0.062-17.964c-0.004-1.102-0.898-1.993-2-1.993h-9.878c-1.104,0-2,0.896-2,2v28.487   c0,1.104,0.896,2,2,2h14.569l17.333,17.138c0.125,0.124,0.266,0.23,0.419,0.317c1.756,0.997,3.752,1.524,5.771,1.524l47.747,0.006   c0.022,0,0.045,0,0.067,0c3.103,0,5.678-2.527,5.756-5.665c0.09-3.566-1.572-6.439-4.941-8.541   c-2.02-1.259-4.379-2.041-7.078-2.332l-11.082-0.84c-1.107-0.09-2.063,0.741-2.146,1.843c-0.084,1.102,0.741,2.062,1.843,2.146   l11.019,0.834c2.031,0.22,3.824,0.806,5.328,1.743c2.17,1.354,3.113,2.91,3.06,5.047c-0.024,0.977-0.811,1.764-1.78,1.764   c-0.007,0-0.015,0-0.021,0l-47.771-0.006c-1.244,0-2.476-0.305-3.576-0.883L30.313,96.59c-0.027-0.027-0.059-0.046-0.088-0.071   c-0.069-0.061-0.138-0.122-0.214-0.173c-0.05-0.033-0.104-0.057-0.156-0.085c-0.063-0.034-0.123-0.071-0.189-0.098   c-0.061-0.025-0.125-0.04-0.188-0.058c-0.062-0.018-0.121-0.041-0.186-0.054c-0.09-0.018-0.181-0.022-0.272-0.027   c-0.038-0.002-0.074-0.011-0.113-0.011H15.516V71.525H21.401z"/><path d="M69.594,99.642c-0.251,0.442-0.58,0.822-0.979,1.128c-0.386,0.296-0.82,0.512-1.292,0.643   c-0.472,0.13-0.954,0.168-1.438,0.112c-0.499-0.058-0.977-0.214-1.419-0.465l-17.184-9.746c-0.961-0.546-2.181-0.208-2.726,0.753   s-0.208,2.182,0.753,2.727l17.184,9.746c0.911,0.517,1.896,0.839,2.93,0.959c0.301,0.035,0.601,0.052,0.899,0.052   c0.696,0,1.389-0.094,2.066-0.282c0.971-0.268,1.867-0.714,2.663-1.325c0.825-0.634,1.506-1.417,2.023-2.33   c0.517-0.913,0.839-1.899,0.958-2.928c0.117-0.997,0.04-1.996-0.229-2.967c-0.268-0.969-0.713-1.864-1.325-2.664   c-0.634-0.826-1.417-1.506-2.326-2.021c-1.19-0.676-2.377-1.402-3.526-2.157c-1.144-0.752-2.28-1.553-3.378-2.381   s-2.181-1.702-3.22-2.598c-1.046-0.902-2.072-1.847-3.051-2.807l-2.349-2.306c-0.433-0.425-2.034-2.117-3.809-4.023   c-2.356-2.531-5.693-3.983-9.155-3.983h-7.739c-1.104,0-2,0.896-2,2s0.896,2,2,2h7.739c2.355,0,4.625,0.987,6.228,2.708   c1.555,1.671,3.374,3.604,3.935,4.153l2.348,2.305c1.04,1.021,2.131,2.024,3.242,2.982c1.104,0.952,2.255,1.881,3.421,2.761   c1.167,0.881,2.376,1.732,3.592,2.532c1.222,0.802,2.482,1.574,3.749,2.293c0.441,0.25,0.821,0.58,1.126,0.977   c0.297,0.388,0.514,0.823,0.644,1.294c0.13,0.472,0.168,0.956,0.111,1.441C70.003,98.721,69.845,99.199,69.594,99.642z"/><path d="M101.184,30.118c0.389,0.562,1.013,0.863,1.647,0.863c0.392,0,0.788-0.115,1.136-0.355   c0.908-0.628,1.136-1.874,0.508-2.782c-0.493-0.713-1.024-1.407-1.579-2.065c-0.712-0.844-1.974-0.952-2.817-0.239   c-0.845,0.712-0.952,1.974-0.239,2.818C100.312,28.918,100.764,29.511,101.184,30.118z"/><path d="M55.392,46.574c0.107,0.865,0.26,1.736,0.451,2.586c0.192,0.851,0.427,1.697,0.695,2.512   c0.269,0.815,0.581,1.632,0.932,2.429c0.347,0.789,0.735,1.57,1.155,2.321c0.42,0.752,0.882,1.494,1.372,2.203   c0.49,0.708,1.021,1.403,1.579,2.064c0.559,0.662,1.155,1.304,1.776,1.911c0.628,0.613,1.289,1.198,1.965,1.74   c0.687,0.55,1.407,1.072,2.145,1.553c0.749,0.488,1.527,0.941,2.313,1.348c0.806,0.417,1.638,0.795,2.472,1.126   c0.854,0.338,1.736,0.636,2.619,0.886c0.886,0.251,1.793,0.459,2.696,0.618c0.889,0.157,1.796,0.271,2.697,0.338   c0.66,0.049,1.328,0.073,1.993,0.073c0.229,0,0.456-0.002,0.683-0.008c0.882-0.022,1.771-0.089,2.64-0.198   c0.867-0.108,1.738-0.26,2.587-0.452c0.845-0.191,1.69-0.425,2.515-0.696c0.82-0.271,1.637-0.583,2.426-0.93   c0.787-0.345,1.568-0.734,2.323-1.156s1.496-0.884,2.202-1.373c0.713-0.493,1.406-1.023,2.063-1.577   c0.664-0.56,1.308-1.158,1.911-1.776c0.609-0.624,1.195-1.285,1.739-1.964c0.549-0.682,1.071-1.404,1.555-2.146   c0.486-0.746,0.939-1.524,1.348-2.313c0.412-0.795,0.791-1.627,1.125-2.471c0.337-0.847,0.636-1.729,0.889-2.622   c0.253-0.896,0.461-1.803,0.618-2.695c0.157-0.888,0.271-1.795,0.337-2.696c0.066-0.885,0.088-1.785,0.065-2.677   c-0.022-0.88-0.09-1.768-0.198-2.639c-0.106-0.855-0.258-1.725-0.451-2.586c-0.189-0.839-0.424-1.684-0.695-2.512   c-0.346-1.049-1.478-1.623-2.524-1.275c-1.05,0.345-1.621,1.475-1.276,2.524c0.232,0.708,0.433,1.429,0.594,2.141   c0.164,0.734,0.294,1.475,0.385,2.204c0.092,0.742,0.149,1.498,0.169,2.246c0.019,0.759,0,1.525-0.056,2.279   c-0.058,0.767-0.154,1.539-0.288,2.297c-0.134,0.761-0.312,1.536-0.528,2.301c-0.215,0.761-0.47,1.513-0.757,2.236   c-0.285,0.721-0.608,1.429-0.958,2.105c-0.348,0.671-0.734,1.333-1.148,1.969c-0.411,0.631-0.855,1.244-1.322,1.825   c-0.464,0.579-0.962,1.142-1.482,1.674c-0.514,0.527-1.062,1.036-1.627,1.513c-0.561,0.473-1.153,0.925-1.761,1.346   c-0.603,0.416-1.233,0.81-1.878,1.169c-0.644,0.359-1.31,0.691-1.98,0.985c-0.674,0.296-1.37,0.563-2.069,0.793   c-0.701,0.231-1.423,0.431-2.144,0.593c-0.722,0.163-1.462,0.292-2.202,0.384c-0.74,0.093-1.496,0.149-2.245,0.168   c-0.755,0.018-1.523,0.001-2.279-0.055c-0.767-0.057-1.539-0.153-2.296-0.288c-0.771-0.136-1.546-0.313-2.303-0.528   c-0.755-0.214-1.507-0.468-2.236-0.757c-0.711-0.281-1.42-0.604-2.106-0.959c-0.669-0.346-1.331-0.732-1.968-1.146   c-0.627-0.409-1.241-0.854-1.826-1.322c-0.575-0.461-1.138-0.959-1.672-1.48c-0.528-0.517-1.038-1.065-1.515-1.629   c-0.476-0.564-0.929-1.156-1.346-1.76c-0.418-0.604-0.812-1.236-1.17-1.878c-0.358-0.641-0.69-1.308-0.986-1.98   c-0.298-0.678-0.564-1.374-0.793-2.07s-0.43-1.416-0.593-2.141c-0.163-0.724-0.293-1.464-0.385-2.203   c-0.093-0.741-0.15-1.496-0.169-2.246c-0.02-0.754-0.001-1.521,0.055-2.277c0.057-0.758,0.153-1.531,0.288-2.295   c0.136-0.772,0.313-1.546,0.528-2.303c0.212-0.752,0.467-1.505,0.757-2.237c0.283-0.714,0.605-1.422,0.959-2.105   c0.352-0.677,0.737-1.34,1.146-1.968c0.412-0.632,0.857-1.246,1.323-1.826c0.464-0.579,0.962-1.142,1.481-1.672   c0.516-0.528,1.063-1.037,1.628-1.514c0.562-0.474,1.154-0.926,1.762-1.346c0.603-0.417,1.233-0.81,1.877-1.169   c0.641-0.358,1.307-0.689,1.982-0.986c0.669-0.294,1.365-0.562,2.068-0.793s1.424-0.431,2.141-0.593   c0.729-0.164,1.47-0.293,2.203-0.385c0.742-0.093,1.498-0.149,2.246-0.168c0.762-0.018,1.524-0.001,2.279,0.055   c0.763,0.057,1.535,0.153,2.297,0.288c0.771,0.136,1.545,0.313,2.302,0.528c0.758,0.214,1.51,0.469,2.236,0.757   c0.714,0.282,1.423,0.605,2.105,0.958c0.678,0.352,1.341,0.738,1.969,1.147c0.928,0.603,2.165,0.342,2.769-0.583   c0.603-0.925,0.342-2.165-0.583-2.768c-0.74-0.482-1.518-0.936-2.314-1.349c-0.804-0.416-1.636-0.794-2.473-1.125   c-0.851-0.337-1.732-0.636-2.619-0.886c-0.885-0.251-1.792-0.459-2.697-0.619c-0.893-0.157-1.8-0.271-2.695-0.337   c-0.887-0.065-1.791-0.086-2.677-0.065c-0.881,0.022-1.769,0.089-2.64,0.198c-0.861,0.107-1.731,0.259-2.587,0.452   c-0.843,0.19-1.688,0.424-2.514,0.696c-0.824,0.271-1.641,0.585-2.427,0.931c-0.79,0.348-1.572,0.736-2.323,1.156   c-0.754,0.421-1.495,0.883-2.2,1.371c-0.712,0.492-1.407,1.023-2.066,1.579c-0.663,0.56-1.306,1.157-1.91,1.775   c-0.609,0.624-1.195,1.285-1.741,1.965c-0.546,0.681-1.068,1.402-1.553,2.144c-0.482,0.74-0.936,1.518-1.347,2.313   c-0.416,0.802-0.795,1.633-1.127,2.473c-0.34,0.857-0.638,1.739-0.888,2.62c-0.25,0.885-0.458,1.791-0.618,2.697   c-0.158,0.896-0.271,1.803-0.337,2.694c-0.066,0.889-0.088,1.79-0.064,2.675C55.215,44.814,55.283,45.703,55.392,46.574z"/><path d="M49.298,33.908c-2.49,8.797-1.406,18.037,3.053,26.019c4.46,7.981,11.761,13.749,20.559,16.24   c3.106,0.879,6.234,1.298,9.313,1.298c14.928,0,28.688-9.853,32.95-24.906h0.001c2.49-8.797,1.406-18.037-3.053-26.019   c-4.46-7.981-11.761-13.749-20.559-16.24C73.403,5.159,54.442,15.749,49.298,33.908z M82.247,13.002   c2.72,0,5.484,0.371,8.227,1.147c7.77,2.2,14.218,7.293,18.156,14.342c3.938,7.048,4.896,15.209,2.695,22.978h0.001   C106.783,67.506,90.041,76.859,74,72.318c-7.77-2.2-14.218-7.293-18.156-14.342c-3.938-7.048-4.896-15.209-2.695-22.978   C56.913,21.703,69.062,13.002,82.247,13.002z"/><path d="M94,40.252c0.954-3.372-0.638-6.868-3.619-8.397l0.709-2.505c0.302-1.063-0.316-2.168-1.379-2.469   c-1.059-0.302-2.168,0.316-2.469,1.379l-0.672,2.372l-2.72-0.77l0.672-2.371c0.302-1.063-0.316-2.168-1.379-2.469   c-1.059-0.301-2.168,0.316-2.469,1.379l-0.672,2.372l-0.506-0.143l0,0l0,0l-2.159-0.611c-1.064-0.301-2.168,0.316-2.47,1.379   c-0.301,1.063,0.317,2.168,1.38,2.469l0.234,0.066l-2.306,8.142c0,0.001-0.001,0.001-0.001,0.002s0,0.002,0,0.002L71.41,49.84   l-0.065-0.019c-1.064-0.3-2.168,0.317-2.47,1.379c-0.301,1.063,0.317,2.168,1.38,2.469l1.989,0.563h0.001h0.001l0.505,0.143   l-0.671,2.372c-0.302,1.063,0.316,2.168,1.379,2.469c0.182,0.052,0.365,0.076,0.546,0.076c0.872,0,1.674-0.575,1.923-1.456   l0.672-2.372l2.718,0.77l-0.671,2.372c-0.301,1.063,0.317,2.168,1.38,2.469c0.183,0.052,0.365,0.076,0.546,0.076   c0.872,0,1.674-0.575,1.924-1.456l0.671-2.371l0.265,0.075c4.248,1.203,8.688-1.304,9.9-5.588c0.587-2.071,0.34-4.245-0.694-6.122   c-0.337-0.611-0.75-1.16-1.217-1.653C92.623,43.121,93.555,41.821,94,40.252z M80.837,33.165l6.564,1.858   c0.001,0,0.002,0.001,0.002,0.001l0.576,0.163c1.683,0.477,2.657,2.259,2.171,3.974c-0.484,1.715-2.247,2.723-3.931,2.246   l-1.543-0.437c-0.001,0-0.001,0-0.002,0l-6.104-1.728l1.761-6.22L80.837,33.165z M89.483,50.723   c-0.612,2.162-2.846,3.429-4.962,2.829l-2.189-0.62l-6.566-1.859L75.26,50.93l2.22-7.839l7.649,2.165c0,0,0,0,0.001,0l1.612,0.456   c1.025,0.29,1.875,0.968,2.394,1.909C89.657,48.571,89.781,49.672,89.483,50.723z"/></g></svg>